<mxfile host="Electron" modified="2023-08-26T20:08:53.674Z" agent="Mozilla/5.0 (Windows NT 10.0; Win64; x64) AppleWebKit/537.36 (KHTML, like Gecko) draw.io/21.6.8 Chrome/114.0.5735.289 Electron/25.5.0 Safari/537.36" etag="0avKYW9Wzm9QhKsAr4SI" version="21.6.8" type="device">
  <diagram name="Page-1" id="kzHu48nea3WH1eQb3zfo">
    <mxGraphModel dx="934" dy="601" grid="1" gridSize="10" guides="1" tooltips="1" connect="1" arrows="1" fold="1" page="1" pageScale="1" pageWidth="827" pageHeight="1169" math="0" shadow="0">
      <root>
        <mxCell id="0" />
        <mxCell id="1" parent="0" />
        <mxCell id="6KB0BAxIn6tYUSvjbqSV-10" value="" style="shape=image;verticalLabelPosition=bottom;labelBackgroundColor=default;verticalAlign=top;aspect=fixed;imageAspect=0;image=data:image/png,iVBORw0KGgoAAAANSUhEUgAAAvIAAAKPCAYAAAAPJy5TAAAAAXNSR0IArs4c6QAAAARnQU1BAACxjwv8YQUAAAAJcEhZcwAADsMAAA7DAcdvqGQAAP+lSURBVHhe7P0JdGPZdd8LbwAEARIgQYAE52Kx5urqru5qdUtqSS2rLVuWbFmK7CSWV16GVuK14rz4+6Kst6Iv7zl5kb9kZbCfo7ZeYjsey9ZzbH/LlluyLMsau2VJ3bJaUnVXDzXPLM4gQIIAiPE7+9x7wIvLe4F7gXuBA2D/ligMZBeJe+4553/+Z+99gCAIgiAIgiAIgiAIgiAIgiAIgiAIgiAIgiAIgiAIgiAIgiAIgiAIgiAIgiAIgiAIgiAIgiAIgiAIgiAIgiAIgiAIgiAIgiAIgiAIgiAIgiAIgiAIgiAIgiAIgiAIgiAIgiAIgiAIgiAIgiAIgiAIgiAIgiAIgiAIgiAIgiAIgiAIgiAIgiAIgiAIgiAIgiAIgiAIgiAIgiAIgiAIgiAIgiAIgiAIgiAIgiAIgiAIgiAIgiAIgiAIgiAIgiAIgiAIgiAIgiAIgiAIgiAIgiAIgiAIgiAIgiAIgiAIgiAIgiAIgiAIgiAIgiAIgiAIgiAIgiAIgiAIgiAIgiAIgiAIgiAIgiAIgiAIgiAIgiAIgiAIgiAIgiAIgiCawKM+EgRBEERdgsFgZHx8fPFNj557amFhYTGVSiW/9tzzzy4tLb2s/ghBEATRRkjIEwRBEDUIwT41NbX4tife+tTRI4uLJ44fX3zXDzx5Tv2RGp7/+jcu/OZv/875L335K+dzuVxKfZsgCIJwGRLyBEEQfYoQ7OFQaOzNb378qUfPPXIOBfupB04tTsfjY+qP2eLTz37muU//2Wee/fPP/cWvqG8RBEEQLkFCniAIog+IRqOHJ+PxxZMnT5x7+OGz59765jefa0WwW4FEPUEQhLuQkCcIgugh9HHsjz/26Lm3v+Pt59wU7Fb4xV/+xPm//MIXn/3e9773GfUtgiAIokVIyBMEQXQhsgp2K5CoJwiCcAYS8gRBEF3CP/lHf+8TZx56hCeeuh0W0w5W1teTn/zkfz//wovffo5EPUEQhH1IyBMEQUhAvcTTb33zWxcw1vx/e/r9zwwGhyE2fRjCY3EYicbV/7r7ee3VN2796m/8xvnvfOel5y5fufK8+jZBEARRBxLyBEEQbaaVxNPk+n1IbdyHxMptQFEfnz8OkYlZCAyF1J/oflDU/6df+qVnvvf9C89RjXqCIAhzSMgTBEG4hNtx7JvLt7ioT20sw1A4wp16/BrwD6o/0X2USiXIFwqQ3s1CgT3+m//z4x//0z/9019Qv00QBEFoICFPEATRInrBjgco/fgH3v9UO2PYtaI+PDbBXfrJQyfU78qHEOz5fBFye3uQzeX4c3yvXC6rPwXwP//n/zz/a7/2ax9RXxIEQRAaSMgTBEFYRAh2PPH0zAOnzzlxgJLT7GV3edhNOrnOvja4Q4+ifiw+q/5E+0GRXiqVYTeTNRXsZpgJ+bm5uUcwn4Di6QmC6GdIyBMEQeiol3jaTZViUNSv37vGRX02nXJd1KPLns2hu77Hw2LEcyuC3YzPf/7zz376T//0GcwnwN2O977nh5/StwOVsyQIol8hIU8QRF+Dov3wwsK5UDg8hkLwJz7wvn/3sf/3z370zJve1jWC3QqZnSR36vELEZVvmhH1+jh2JwS71+uFQb8fwqEh8LPHoWCAf/l8PvUnrEGiniCIfoKEPEEQfYGVxFOsa/7dv3nx1snZ0XMYlhKZmOEO9vjMovoTvcHO1jqPp0e3vl45S20c+24mw58rbntR/Qn7CME+ODgAoeHh6vOhYFD9CWcQNeq//OWvPEvhNwRB9Cok5AmC6CmMEk/f9pa3nnvwoQdsqXERa46Ctx1hKZ0Ck2QTq/cgvbXKRf3Y3GkoeAZtxbGbEQygo+6FcGiYP0fBjsLdrsveKlSjniCIXoWEPEEQXUk749i1YSmlYoHXbm82LKXTaOPYc+ojCvbc2hXwlbLgCU2CNzyl/rQ10GUXoTBB9bETgt0Kokb9N775rWe3traUOCOCIIguhYQ8QRDSIyqUyJB4ajUspdPYjWPPb1xrKOSdimOXhU8/+5nn8MTcL335K+dzuVxKfZsgCKJrICFPEIQ0iMTTZk487QTa2u2dOmVVL9ibjWPXCvmB0Rku2IXDjuI/vZuBndXrEB0N92SIkRD1f/65v/gV9S2CIAjpISFPEETbsZJ42m24fSCTEOzN1mM3QjjsGMc+7N2DoaFhCAyP8EWJkcsuylni58znMj2bN/Bbv3P+2T/4wz8+T5VvCIKQHRLyBEG4hl6wj41FxrA04HZyK/n7n/x3z3XCwXabYiFfTZLFyjco6lHw2ql8k88rzrpTgh3x+5VEU0w8xeetxrGLECNtOUtsS9lCjFoBF0//+Zf+6/nf/K3f/jjF0xMEISMk5AmCaJlmEk/ddrBloFHlG7tx7FboRBy7Ud4Afs7hke7YYGm02/Gxj33s6RdeeOH31B8nCIKQBhLyBEHYwunEUyccbNlBoZhKbMC9669CKZtkI68X/NNnHRXs4nmnE0+1C7ShcKQq6mXZddHuduBzXDg12u0QQl5770cikTGqUU8QRKchIU8QhCHaxFOzo/GdpttrtwtnF93c3B6667XObjm7BZXte1zI+yYfVP+r+mjj2Dtdj90undx1aWW3Q79IyqZ3koPDQ2B074sa9V977vlnl5aWXlbfJgiCaAsk5Amiz5E18dSodjsKQVlisFGk2008tSLkK+USREdDEBmLdY1gb4TRrotTol4IdhTpWBdfPLdStcfpMKTnv/6NC7/5279znmrUEwTRLkjIE0SfoBfszZ542gk6GYONQlG4uejsosPbSLCbIYS8zx+E4MxDBwRkaicN26lt2LrxNz2fN5BOrnNRb3XXRQj2Zqr2dGJXg8pZEgTRDkjIE0QP81N/+2/9u7c+8faOHqDkNEYx2Pg14B9Uf6I5WgnFMMPI8Q0yAdnob+2HvAHErJzlSGyqev21p89aaQttdR5ZwpBI1BME4RYk5AmiizFLPP3cn//Fc5/57J8/+//9F3/vfKcOKmoHzcRgC8GObu5uJsOfo1C0e4CSFjcd327PG6iHdvGEnzGzdp2/740dB49/iD83w+mwmHbxi7/8ifNYgpVq1BME4QQk5AmiC9AnntqJY++nMo/6cI3ASKypUIx6oEjvVOKpPm+gW0S9lcVTpZSH8sZl/txIyIcCPhgdi3WNYLcCiXqCIFqFhDxBSISbiacYroFhDHZjk7sBbUlBjKffWXqNv2/F2TVDdsfXKG8gPBbveDJwM0nAiNdTgYH0XfAN+GFk9gF+yiwuklDwb++kYevGd2FoWPmc+NVqKJVs/B//9uPPvPDit58jUU8QhB1IyBNEBxCC/fjxY+ceevDBc+1OPDWLTe4WZ7deHHsjZ1dPt4ZoaNHuurQrlArbQlz/VuLY7Zwy2w+7S6Kc5Xe+89JzVKOeIIhGkJAnCBcRgt3JA5ScRuvsohuKIrDTzq5esONzFIpW4tjNhLwQ7FjfHRn25CA+Mw/hkUhPhGkInBa7VhZPZri1SOr1ZGCxw/Td71+49Y+e/sdPUSlLgiDMICFPEA4RjUYPT8bji7IKdiu029kVItHJOHYU8oHcihKiMXMShoZHDsSxJ5IpSN67BKn1ez3r7NoVu6IttHHs+FwsfOohBDuK9KDqrnOXfdCv/oR77CcDL+mSgefUn5AXK4ukj3zkI09du3aNnHmCIAwhIU8QNhEuO57iiM//48f/P8/+2I9/8NzMzHzXl3bU4rSzq41jdyrxFAWkcHlRQHLxqBHsjeinMo/icwqxOzZ1GHIlr622EIJd1lNmlWTgW/yz1iYDd1bUGy2SrO4wmQl5HHtyuVxKfUkQRJ9CQp4gTBCCvV7i6W/85m8/+8NPPPChXo7ZtZsk20oohhluhWhoEXkD+Dl7pcyjvi3wcfveRfCV98ATmgRveEr9yYO0ukjqNErI2JImZOwE66Puh4w1m+xrBgr5zc3NW2K37/DhhcW3vvnN58RuH9WoJ4j+hoQ80fcIwT41NbX4tife+lQziadGjme3i0AjjJJkh+OLUCiWHRXs6PKGhof5cy4g2xCioUWUeRQiULRnpyvCmGFn8VRK3AAo7FaFPF5z8XOeQhriE+MQn57vGsFuBRT1wqlXKvws8vZs5WRgGResVM6SIPoPEvJE3yAEu9uJp1oRiIg4c1lFYCOMwgL48zsv8e97o0fAMxjmz60iBIusIRpajMo8tioCm0XbFhi73kxYjL+YYoukIQiExmAoPFZdJGHeQGrtHiSXLrWt8k0n2A8Zu6+eDLzI29SsnKWbgl27YMXnQ8Gg+hOtQ6KeIPoDEvJETyJL4qniBCoH+AhxhNv7nRCBVrAaFoA/AxtqrfYGQl6UGuzWEA0t2rwBRQS6V9O8lRCNVg+tcjo/Qla0oh77JV+gxeYcC4tBWm2LVllZX09+8pP//TzVqCeI3oSEPNHVWIljlwWZxBG6jMJZtFsDXFBavcgfvZEF8AQjNWEB+G9t7+zC4N46xCYme1IErt29yuPpW23PVhxfvOYi/AJDMfDaOykSjZKBe0HUi/sfBTsmYe9sLsHe5k3+Pd/Uw/zRLtr7X9bzCKhGPUH0HiTkia6gmwR7I/TJo5GJGb6970Y8vZthAcPlJN9lCIyMqyUea+PYUSBtMhGYZiLJSpJst2I1P6JVwd5pkdiNeSBWr3kll4JySinV3kjI69tCPJdJsFsBRf1/+qVfeuZ737/wHFbgUt8mCKLLICFPSIU28XRudmbxG9/81rPj0bHFT//+f3uuV0WgPnm0mc8pBAuGAtgtb2eGECxOhAU49TllB/Mj1pduQGJZcXfHZk+AZ3jccoiGuOYiXroToRhWEHkg+FVb5rEz7dnq/W8k5LX3vxD/g/lNfojY+NQh/jO9wvNf/8aF3/zt3zn/pS9/5TyVtCSI7oKEPNER7CSefvUrz104uRA9h0JQlpNH3cDKCatCsDhZ3g7RHpnvtni08jm7BbPa+MXUPahkNgECo+AbO6z+dC2djp12CqNkYDfbs5XcATO8xQwESime9zAcP8J3O/Rtkd7NQPL+Fc3nXOzJcYjKWRJEd0FCnnAdbeKpvgay+iOW0caZi+RRFA5uJBt2Evyc60s3IbuT4J9z9NDDkN1zQLBIEKKhxag90dmVrVKK3bCYQnIJvHsJLuT9sSP8mqNQx7wBLPE4EQlBbGq+hyvCtN6edq+5FZy6/5PrS9UwI+VzKjXqZU1ib5bf+p3zz372c3/x7PPPf/331LcIgpAMEvKEY7Q7jh2TDXEi7fYkPDPBUirkoLxxmf+MN3YcPP4h/twKsgl2K8iQDKxvC/HcinjUXnNvpQCh4CB3ePWLzMT6KiRXrnf0c7YDq+3ZyjU3QxsW4/aOx/7ntFbOUmZEW+h3PH7+53/+o1/80pfIoScICSEhT9hGtsRTEX8t+4mcdgVLsVgAz+Yl/ryekO+VEA2BSKq0epJsM5gJFnyvkYB0SiS2M+m5k4jKN4nVe3yHCUX98ORxKLDL3G1hYY3Yr2S0X85S1kUa9gFhGjSqXPULv/ALH/3yl79cI+Rxp3Vra0tJLCAIomOQkCdM0SaeihNPO1WP3Sr6+GshAtsZx9qKSNSiF/J4eI9WPGJS30YiCaX1SxCfbf/nbAdikdZKUqU2jh2f1xMsetolEnstGdhMJBaWleIorRwi1g27TLWL0XXeltimY/E59Sfah95AEO1idSzC6/7/++M/Pn/jxvULeuNG1Kj/8pe/8iyVsySIzkBCnuDMzc0+Eg6FXT3xtN20I/7alcQ7VbCEhgbBX0pzAW8UoiHYSSUgcf8GFw74OYUI7LV43UZJla0IFplEogyLUavYuebYT6wcIibaAhdN4tRTbAt9edNuQVmkKWGAtYs0Z0V9qwZCq9edatQTRGcgId9niMTTkydPnHv44bPnkslUEt2Ud7/jTU//k//lJ5/GpK1e29pHWo2/btXVMsIN8aj9nOLk0V6Lv8a2WLlzDTaXrvE8gsFwDLxjh1m7NC41qL/m4rmMri6Cop6HpXR4kSbufxSGuT289xWRiM/tUD1ETBXyuMshdpnwd+AOkyd9HybikzWLtF5BKdt5i7cn7jCJik12Rb1ZtSSr45H2urux0yRq1GP5YAq/IQh3ISHfo9iNY3cihKEbEFveKHaN4undFOxap8utEA2B0Ymc3bZIE21h5jCWd+4rJR79IfDFjqr/lYK45r2UO2C0SMMvp5MqWxWJRmB74HUfgW2+IBmOxGEoNGLYFpurdyG1xr5c3EmTAWXnZUmzw3SwnGWr45EbZoFdRDlLqlFPEO5AQr7LcSPx1CiEoRMuoJvgBJlKbMDyrdchn07w90ILj9t2GPW47XQ1QzfEX2N7CJHSKPFOIIQ8OvLB+PGqQEltpyGTXIHosK8nF6OIExWb3Fy0OrXjoa0II3vyaCusLd3gB4nld5XTkkOzZyFfLFsej4zMAuwPsoUjUY16gnAeEvJdQqcST3shVANdRVNXN7sFle17/Od8U2f5oxVw4hTuFgoWFCudFuxW0Mdfi639doUwtCIeD7iLgQG+WDJypLOZDGwuXe37HSZEf83FcycEe7sWrUY7TN0q6s12PEp7u1BOXOU/4504DR6f8U6LjGZBM2CN+j/4wz8+/73vfe8z6lsEQTQBCXnJEILdyomn7aQbSuU14+oWM0nw7Nzlz82EfKVcgvjEeMe2pt1Cu0hzOoRBiEcUKXaPzHfaXTTaYerF+GtMesbcgfSGcj+PzD0IZd9Qwz7QCO2iNag+dlI47i9elnSLl/ZXhKmH3UVrpcAWVxoh7/MHq/2AHySWS8BEbAxmFk/zn+klfvGXP3H+L7/wxWdJ1BOEfUjIdxAU7YcXFs6JxNNWTjxtJ52Op2/F1dVTyaWgnLrD3eng7CM14lFMoKlkAnbvvdL2z9lOtKLejtsp2qLZShntdhfdXLy0k3qL1vzqG+CDInhG58E7FFX/i8Yc2PFQRbvMi1Z98mgnRH0ri1ZEXPeg3wNBzx6/L4dHx2EwEFR/QnHxE+v3YWftFjdTZF28OAGJeoKwBwn5NoGi/T0//ENPy3CAkpO4WVVDTJBCrNidII04EBLAhKPfW+F/e72kQUUw3OYLGKRXRX29UI164rERsrm6SLOLl3Yi+oCdRasVIe/3ebhQ7PbwDC3a5FElbOyE4zsvMlSLUYwU98tZdhqsUf/v//1/fIbKWRJEfUjIO4g+8RTj2N/2lreew9q6r7366oVP/NuffbZXT29Emo2nF2KlWVfXDLfEo5uLFxkQ7bG+ugybty4ClAvgGR4H70jje7YbXV0rceZu42Qf0Ar5wGhcbQ9FOJbKJdjeSUPy/lUIDXqkXLw4QXJ9qdqmys6LIuqt9tFmFlBa2tUP9IsX5d6d69qwMbPr/v73v38xmUxSGUuCMICEfBNoE0/PPHD6nNU4dnJ1Z2scLXyOg3QzYkVLJ8Vjs4sXGRCTpjYkAJ9rK2WUEjcACruGQh5PPcXrrA1FGgruhwN0I6KP4pdbYWOturpGaPuAJ78D4ZFRfj+a7TKJPipzzotT7PfR+2ofXeTtitfGqA/gmGQ3LEaMPeJ5JxauWlGvGAwHy1nKBN77Vheu73nPe8aodCVBGENCvgFzc3OPuJF4mly/zyZSnGB6s1aymCCbcXXNEJMmikd02MVzGUqsyZ4MbGfS1IJCHqvDDITGYSS+UOvqLt/gMb0oioQw6iUUYdR8kmyrrq4RbvQBJVRD7vKkTpBO7/ASj3iQmM9TgeGZB6AAAcvt4URYTLvQLl7EjkSn5hcn+oFeyGt3v/E1lbMk+hkS8iqdTDzthlhdM6wM0vVcXSOEWOnWEmtCGLnp6prRyqSpdxdRIOKX2TU3KgmIn3V8ZlH9id5B20fFwlssXsQ1b9bVNaMTwlG7eNkP1ZjtqlCNRn0gv3KRC3lv5DB4ghH+nha7/UB2tKIeF6JuzS/iuuO1diqnCcF7/5/+03/6oTNnHqi7+0016ol+pe+EvD6OXabEUyEA0dXtVKyuGWKQbtbVbSTk/ZU9mD10pKsEuxWMXF1s01bj6dsp2K3QL64u3vfrSzdh7fYbqqt72para4S+PfBRhj6g3zV06t51imaFY2ntVawpCwOxoxAIj/PrjSSS21Dc3dAcJNZbyaO1C+/1lkR9szt89XByXKLKN0Q/0bNC3izx9MGHHugKu7CTzpjTgzQKeV8lD4HINIxMLtYM0vh7tlLbkFy+DpnNuz0rABGtq2s1nr6VBZSYGMnVtY9+oYSP2mteWnuNi0E7JR672ek1unfxq13hVK2OSdrdjQDk2MIkxBcn+r8fw29wLBL3rhuVb2RA5Eg0qsXfimFghugHOBa14xRaEvVEr9NTQv597/mhf/GeH/mRp2Q4QMlJ6m3rt4Kbg7QQK+K5FbFilAyMX702iZqFpAxHp5sWK5h4qlxruUKRjO5dFAyy5II02wesCHk84Gd6dl6q9mgVo3sX29OpUI1WxyQnF0utVr7pFnDcxdyB1PpdHgo4NnsCPMMT/Lq3GhYj27j0f/zbjz/zwovffo5EPdFL9JSQf+Y/fOz7504vnusnAWhlEnVTsLvl9vZyMrC2PdKpBCRvX+Dve6NHwDMY5s/N6BVXt925IOKaO7XTlF95lYfWDEQXYHhsmreBKHGKvwOTgdduXgQ/5PlY1Nuurv2ynaI9cBwSYTHYHzoh2K2wf+8erHzTbZhVTSpu3YZKbgsgMAq+MXsb1902Lr326hu3sCw01agneoGeFPLqy54TgFrMEioDIzE+MJuVE2yGTrsqnRSArWBlAVUpl6C8/jp/biTkg74yRCemqpNkNwj2RrQiAK3gdnlHFCpBb7FueUeB9t7tREhKu6hXthPbwKmwmE67uk7GmbuNXQOnnLrbUMiLfoBtgKVmRXt0c9lZFPX/6Zd+6Znvff/Cc0tLSy+rbxNE19DTQl5LNwnARujdxbVbr0Mxvca/55s6yx+bQXZXxW0B2CytuL1edHXTd3k87sjUMSb2xvjEiBMuurpbty7A4IDXsXAq2WilbrtdoWIFN4XK2l3lNE43QlJkQLTHytIdSN5tPYcAHzsl2K1gNc7cbczGH7sGjl7IY3vg+I8LKHyO5lAquQWB3DL7rIv8s/aaQfb8179x4Td/+3fOf+nLXzlPdeuJbqFvhLwWWQSgFXCQFgLF7Fj8cnYLKtv3+HMrQl52wW4FfTy92HlxO3yhFbdX7GzgtbZ60qzbMckyYVbhJzA8wq8xXmsnyzt2aqdJ1gWpVfQLKPFc2wfq5RD0wvijRxmPbvF2rV2QOivqxXzQ7O6GEaI9QgMF8Hsr3EwYHo2Ztoc2zEjmHYlWoXKWRLfQU0L+P/zvP/e1Jx87ww+IsIJWLHQ6gUk/OQrxbmWALmaS4Nm5y59rhTwO0Aj+G+j8jgY8EJ9daItYaSfa8AWnwqlaaQ+3hIoIp8LP2qslHlGcoLO4dOMNyGzc4u/5px+CcqX5oUpm4djKjkQ7EO1hVziikMfrG4gt8MPEalzd9fsw7Mn0rABUFqTKCav7VZvmbJkMrYw/Zoh+4FSYEpoM+BmVQ/CUMCP8rL14jsSf/Omzz/23X/21Z75/4QIlyRLS0ddCXovVcoCtYuRm4QDdirtYyaUgUErxSWN0/qEDAzROwInNTVi78iL/efyc+NVryXcIinoURVbda6P2wOd2BDte63aUUdPS7SUeGwkVrPhSTii7Ld6JU+DxNQ4pEu2BbSDbyb9WMNuRaIfJoG8PfMTXVoUjXnuxQMJrH/RV+GcwCgXL7+Vg8/4NVQDKdwqykzSqfCOuezOLpXro24P3A3U+cANZwoxaxaw9MEzp61//+nM///M//4PqjxKENJCQN2B/EGp+YmnHAN1MHKkb7rWMCPcaxUJ1Ypmch4HgqO32EAJRloQ7PTK3aSPBboZVIR/wFmB69rBU7eEE2jZ1Mkm22fYQiL7g1O5GP+wyCdaWbsDKrctQyu/CUCQO3siiI/OBk+3hBO0KM2oV7Avi/jcLW9WiFfLac2qW7i/fonKWRCchId8AK7HX7aiS4cYAbde97ha07YHPN25fZIphG5iKB994/c+nXSi1w8lymk4lVDq9cBVCHncbQrMPwlBopGbhipMuJgOvXn4R2PqqKhZ6cZepmTZttT06sXjthYPEkHqLpcLOGngzK+pYdFL9L6yBbSCrmWCGE2FGrdLK4lX0A5wHMtlM8q+ZmP/xD7z/Kf0ZNSvr68lPfvK/n//yl7/yLJWzJNoNCXmLCKdzJH6oaTfLCDFQaMMz8Hk7y3l1qytmdYAu79yHSmbTUMh7K0WIjkUgMhblg3W3CPZGGO5IONSm+oUSXnOrAtEMo4VrkPUDKw50P+0yiTANbZuOxKaq974VZ1GPjIvX2jYdYm0q32FMzSyWyrvrUEkvNxTyKNRFXxCL124fm/RhRqLyjZNtim3Q7OLVqeR3qlFPtBsS8jaxcmiPEZ1wuJpB74qhKMIJtJOumJgwhVARz63kFeB195fS4C9nIBybhsDIZHWhtL65BanNVdhZeq2ndiT0aNsUsbLLhLTiZJnhdj/QCsBea1Nte4j7FrE6JhktlvBLdoG436b7hzG1u021176ZxZJA68j746d5e4gFFD7HZOBEchsKyxc0i+/uijO3glGb4ue1GjrWytjUzn5ANeqJdkBC3iZWT98Ug0M3hmcIjJxOO4OtXcTg3KyjgqKwGYHYT3G6Rm06whY44PPza90rB4mZudfd0KZW+kGjg8Q6fYibG7TjMKZWBGI9xNgUGvRA0O9hfS/Ey6qatYcMISntQivq9W0q2kM7NmF7WDVxlHu+dk7o1OFVVKOecAsS8japJ+SHYRem5g7DSCSmvtMb1JYZU+J0cWJppcwYDtBikrTrcLnpqPRKnK4Z2q3n1esXoJRNMtUXAl/sqPoT9pHd6ZW5xGOz/UAIebxHh6dO8rrfaBogmDuQZJ81CMqiFL/cWnx3CmXxfdUgdMy6e91KGIYZbvSFdoSkyEB6Owkrd6/BzppSdnZ45gEoQMDynCCudTeYZ1SjnnASEvI2qSfkxSEovRymIdxrq6KoFYer0wKx3TsSTmLluldzBywKedEe6Gq1u9ymU2gXaoooUu5ft0VRK/0AMeoLjXIIev0kWYGokoJtiuhFfavX3ohO9YVWQ1JkoFF7lFZf4Y/eyGHwBCP8uaDTc4Ib/NbvnH/2D/7wj89T5RuiWUjI28SKkNfSSOh2MyiKhNMpRFEgMg051dnCwbmVLVDlPTkGaFlFUSsixYqQ58nAI0MQm5yRqj2cQLtQc6rEo2iPZp1eN/pCN4cZ2QGvfWLtPizfeJWXeBwMjUFldLElwY7IGKbUjjCjVmm2LwghjztNA8NRft152ya3obh1G6JjozULtV7iF3/5E+f/8gtffJZEPWGHnhLy/+rnPvJn73/qzR9SX7qCXSEv6JUwDaPBOZvehtyKGq/b4PCebo/d7VQ8fasC0QgU8t78NgyGx2F05sQBhyu1nYbExiokb19oq3vdbmpFkb0Sj7howvZopnoPinZxvdsVDiDCjA66190l6vH+N+sL5fQqVHZXbZd47Fa3d3+h1rnDmMT4hIZCq6GSQW+RL6yNFtQYfpNcVXZflGIMSjWjXswdIFFPWIWEvE2aFfJauiVMQwgV/Ko3ODc6vGfYV4Dp+SNdMSnaQR9Pj23qxKRi9brbQT9ZiudW28PIve7l0DH9Qi0wEnM0LEaGvmC0oybbQk0rEK1ee6tCfnQkxNoh2PEkSCdx+zAm0R7YBmJsstoXRD/Aa+1EOJI2zEiZU+UrUeoEWKP+mWf+7/Of/fPPnafKN4QRJORtUlfIr19is0hBfWUNGY4nb2ayFPDB2VeBYcjwwXQ4Og1DQ8NcpKR3M8qhPW/8Nf9ZFLo4qfR25QXr8fStXHczxGTpVphSL4dpiPZAdxcr9izffEMRhAzf1Fn+WA+3r72buBFmZAfttbdbnUSPVshjiUcUi9geYjcQXfxUKgW7d7+nuX97L0xDMRqar3xTb9ejEdgXxHVvRz/QivpuzR0QaM/p0F73X//1X3/mU5/61L9Uf4wgqpCQt4k3snAgAUfQjJDXIiZPt4Su0WQpREsjWhUpRkIXJ9BeO7THLEwDDxIT11oMzq2WdxSTJX51olKDzNVgGmE2WWpFSjGTBM/OXf7cSMhjsmk4HO7qErN6mg0zsoOVa28XMT7xXQ9PkbWN3zQ8Q+C2ey0T9SrftGzkiOvOHsV41Kl+IO5fzBvAzypj7oDA7nX/9V//H8/8wR/8PyTkiQOQkLeJm0Je4ITQxQmyWTdFG8eOz50WKb1cTUMrUpKbK5BZZvcEwxs7Dh7/EH9uF9kmSyNkDdNoRaSgkB/IrvDPM3ro4eq1x38Pd5q2bl/kbdJL968WEWZ0sMSjtYVaK9fejFYNBTNada+7AdEeK3euQfL+FR4GGogfh6J3WP2J+uC17qbdJrF7qJRNXuf3LrZruxdq4rrr52O7Rs5v/MZv1DjywWAwMj4+vvimR889tbCwsHjnzp1bVKO+PyEhb5N2CHktjYSufrLER3zdDW6KWTxyNzi6VkRKpZSH8sZl/tyKkHdLpLQbozANt4WuaA+cIJs51Mrs2vvZazNXt5fDjPTUS5Jt9dqbgW0ixqR27npowzQUU+UE/6zdtHuIbYLjEQpHo0Ts0tqrXMh7RufBO1R77kmn5wU3UOYaxUCqnWucFfXaecHp/Ka/+PxfPLu+tnbr6JHFxbe95a3nHnzoAcODXKhGff9BQt4m7RbyWnDwGR4/BIWyx1A4miEGAjEhiucy1f92K3G0VfSCXTy3ct3rCXnc6RDxv8OeHEwfOlLNLegVcJtbOLpi9wXv4VYOEkNaDc1wo3JSN4cZ2QGvfWL9Pixfe5mPdQPhSfCMzDgiVGQUjlpRL2OYhn58sjovoJDH6xuILUBgdJInn+J/g5WqMhs3IToackXoykB19+WuZlHK+qmdzyquO15rFOx25oV6iMWrU2MTVb7pD0jI26STQh6p9/vFhEiOrn3EwOxkeUcU8p7kDe7qjcw+wB+1IgV/50YiCdvLVyC9iULBGaErI2L3xY7QbVakCDolELWLUhFmJMOi1A6Nrn0peZs16jYbi8bYmHSIv2cFHJO6cXyqXZQqddvb3VedCpfE6455BHhvGu02ZXd3YPP+dX4Pu+leywDvq+tKSBXvq6w99X3V9ZyONo1NJOp7FxLyNpFRyAcqGVg4drrrBHsjxOSJEwqGLjhV4QdFihAmTm9/ojBpprRaM0K3WzHafRmOsIlzYIhNlvYrlmivvWzlBI2SvLFtZammYbaAbRQWY0XIV8oliE+Mc6GCgqVXxie3wzRaWcA6LRCr7rXaV5XP2lu5A4K1ezdgfekG5HeTvK8GZ89avu71kHHxSqK+tyAhbxMZhXxp8ypTvbmeFn/1YnTNaNXRNcPtgdnI0cXP2gv1kfXu1taN7/I+4wlNgjc8pf6UOW6ExbSDdlSDaYRYwOK1N4qbtoMQ8gOhcQiMK2dEiLA9bJOt5DbsJNchs/yG40JXJrRCFxEhgVY+qxifcOFkdwErBHs7BWK9yjfdhtnuRn43BZ7UTf4zvumH+aNVOuGytwrWqP/3//4/PvOd77z03OUrV55X3ya6jJ4S8v/sIz/9ux9+/w88rb50BZmFvBZR9aYXnZPk+n02oaDTqbicKBTQ0fUFQgcGZidc9k4OzJ0IM3ICq4soce8aCXmto9sNk6JVxO7LQUfXmQV4WxawvjJvF+x/9XYXWhG63QZ+VlHOUi90WwnP0I5DspQ61eYOyFy33W5fqORSUMZFKqOekDcyc7r9QLHXXn3j1q/+xm+c/9pzzz9LB091FyTkbdItQl6AE4ps2/mtcMDRvf43qPgsO7pGdIOTog8zQkcXq2l0evelFVeRk7oFgwNeCERmIDw+qwoULy/vmEpsQG5V6+j2dpgRYmcBLq69k3kdiFv9oZ7Q7RVEm9y5/gZk1q7z9/zjx6E80LjEYzc6ugiWE8a8AbyPcZGGbdpus6HlcUhFL+T1iyj89/hBh0tsXIpGbSfJdgvPf/0bF37zt3/n/De++a1nt7a2lAtCSAsJeZt0m5DX0ont/Gax6qSIa25FyItBuZ3b0W7QqQopKBRbEY3NhMVohe5+jG7/nA6MwgiFLvYH0QdkyetohW5xdM1otIjC92HjVf6z3sjhA2O2kaPbbeOQHtxpwjFJJATvj0vOCl3RF9xYvAb9Hgh69nj/G4lNm7YHTwhe0iUE96iop3KW8kNC3iZ1hbxFQd0KrQh5Le0Sf40QE6IQKOK5VSfFTMjjwCwGdk8hDdOTkxCbnOnqidIIFLpK4t1+mBG2aysup9VFlBlaF8tJZ9FI6OJn7aXTgcW1v3P90r6jGz8JZW+AP28WWXMLZMgdaIQQjmKMwsdGwlEIeVx84qFLI2xBhn0B/xte4nHtGkTHRl0RujIgTs2tEbo2P2ur45AZTvcFbjaolW8QvgCP9mb42J/86bPP/bdf/bVnvn/hAiXJSgQJeZsoB2hE1Ve1dJOQFzgl/qzQqqNryNZ17iCOTC7CYHj8gGhMJFOQWrsHyaVLVfGHn7cXwoz02I2nN1pE4aRpV7BrHV183o5Y0W4/HVhce7P+gPkB5fXX+c96o0fAMxjmzxvh1iKqHeznDix1pOxhK8JRXHety44lHs3GVFHi8eCuWu+JP2VXrX7lGzfmhk70Ba2o53OrQTnLbkA/N2j7wuc+97ln/8t/+S8/of4oIQEk5G3SaSFv9Pud+r1OCSIcBETHxwkRJ0anBmUhFIWTYlU0doPz5xRiixs/a7Vs5+xRGAiONj1Ryuroup046gR6gWilP1gV8pVCFqZn5233B9nRij9EhBk5JXRbEY44FglR6ETyqV7oYu5LN4o/K2yu3oWlG29AKbfNhW5wpndLPHJjZV0JH+MmEptrcGySbQfRbiI2CXn5ICFvk14W8lqsCKJWHKx6uC0ahfg76IZ1fzKlvk02l65BcXuZqQ92/eKn1Z8yp5sdXUUQNZc46gRO9getkMdkyaHRGO8P2DewPVCEYkLw2s2L4C3uVoVuL4q/VsoettImnegL2twBZQdRTvHXCHHdtYslvO4YMlnM7eyXeJzq/RKPiFbUYz/FeHqcd9q5M+zU+KQX8sFgMDI+Pr74pkfPPbWwsMBPSHvhxW8/RzXq2wcJeZv0i5AXiK3QkfHZnizvqBV/ikhQRL3bYUatoh+UxXN9e5R3N6CSNhfymNwVjU3wdsBr345Ex3bgdjx9K46uGfr+EPQWeYhUo8ne6LO2WyS0C63Q1SbJerw+fv2xHZqpWiKto6t+Vi7+2P0r4w4ijkVCFFrJIeCVYVJqZZg6Ql60Q7sTsd2kujPMRL04IRhFvdPt6ub49Mor37/wta89/+yj5x4597a3vPXcgw89YHi8sShnSTXq3YeEvE36TcgLPMPj4B1pzrEWAwAOxOLQGD4os8eaO7CiPmrB7xu97wKbanJWTYz5fOcnTj4oswF4lwn17J69QRmFvL+YgsGhERidfUC9/gPs39njji4eyBQejSgiQYLP6gbYrjh51oRUWfys1QUTmxBbddkFoj9w4chEimgTFCk+JkhbYU09cbSZz9otYJukd9Nw7+rLkN9Z4+/5Z85ZapO65oHZ+COwOw7V+2/F98z+Tc1/q68Gg+IPx6ZxtogxpNG/3SSlsjOOrl7IY5tgG4hFFJ4qzEs83nsVIhFlHO7F3IFqCOT6Eg+BxM9pt/KNUy67Hm0/cSJ8DEX9f/qlX3rme9+/8BzVqHce7VDT9ZCQdw+rQr7qbGkFSgsDQCfYyxnEmLNJc4yJIjepEY155dGqYEeqg+8wEylMFA6xtqiKFBP0n5VPJuxzuv1ZO0G9zyquPU6C1epJTFDYrUOtR4gUbAsnJkSr4GfFXSYUft3arvr+gO2hFSmNnF3u6LLxJ8QEIl5zbINud3SVdlUWazU5IRPOCt0DcdOsH9gZi4wQ41Mo6AN/OQtD4TEYHomZ9oV2fVYZyKSTkFhWDIdquCeKevWzir6gN3Rw0dMKok20/QTFu6mhUG9xiuD3GyxORY36L335K+dzOdaJiZbpKSH/9//u3/rEz3z4vR9VX7qClEI+cQOgsKu+cod6Qt5bzMJEdATiM4e7SrBbgQ+wbHAVcdc4wOIXlpNrlkYCpRFGg68TIsWNzyojKEzSqQQsX38ZSvkMgD8E/onjjogUO4uodrHDxDyKoQO5AxK164FQAAvCUQh5DCfCpElhHuzuZmBjKwmltVchPneUfda5nruHEaVdDarB2PisrY5FZjht6DjxWTuP0bbMQdWb3FyF9aUbkN68zz9rcPYs5IvllttEmAo4RgWDQU2beNWfaD+f/sxnqUa9A5CQtwkJ+YOU06tQ2V2rjUUO9k5tb4E29MbKZ626KDYFipZq4m+bdziMPitu6Q+H5c4d0NJIpJR37kMls8mFvC92lL9nhW7edUqyNlXqeyvtqgii2ba1q75N8NFqfzBaLAUDAzAwYJwLkGTCT+zAKJ9VTZLtonvYKo0+qxNjkRHuL2CF0N2XKvhZ8XPi5z34Wc3sYPlQ2kRpA3TZ8VHsAmI1qjLqCYY3fho8Puv5LkqbDPDxyY+VrCQyFeqBov787/8/559//uu/p75FWISEvE1IyB9ECHktvRqfKzCKux6OzvGB2OqhMVpkdnS1ol7GdhUiBSdFdGO1E2I9Cskl8O4l6gp5rB4THx+Xrk2cQNuuTueEiDbBflA9o4AJSDuC3cnF0v5n1Z0ka7II6BwHhatdcbq2dIM71/nsDgyNxsE7tsivf+uCfYBff8XRxTZhfYI9dhKje1jGdsX+gH2hdn4omraJVSGP7YJtoG0T0U7dzC/+12fO/+UXvvgsVb6xBgl5m5CQP4iRkNciXL9eiLsWAkU4ijtbq5BZvcK/542f4dUz6iFECg623Ra7K0M8vZOxu0LI+4IjEJw8xSdE7WS4vbMLqa112L3/Wk/dw3pEuyrJlMrCFD+vaTKljlbaRL+AxUd87ZYQKRbzXOSmk2vqZ1WrwcwfV3+iexCOrtFiqby7rqlW9YD6X1hDiHaxiMJ+0Q3iEBO98R7upOGgbxP9LqBV9ELe51dCYYTLjqCLn1y5AaGBkvJZe/BMFIREfWNIyNvEE54Bb2hCfVVLWwR1p4R8cAy8kUPqq1oaCXmBctiJEo4i+/a2EOyNtqIr+TSUt5SayEZC3lspQjw+5YirKBNux13rF0zNToh6asJi/B7wDzDREhyu6+AZ5Q7gZ+1uUW/k8nqqSbL4eWvOWJiY4X2h2TYR4lBZLO2Lkk7G54rPivdxbTKlfO1au1hSRDuOR2bX3qqQDwYGaxawuJDq9vFJvzB1q1iB3TaxCraJD0ow7MnxhODAyDjvL0btguUslYXp/iIc7+FeFPUr6+vJT37yv5//8le++iyVs6yFhLxNSMgfxKqQ1yJTeUcUjTgQ1257WnMUUch7du5xMTg6/3A1BAP/e17e8d7rMOhhYp4JXfy88m3lt452exuvQ6PcAS1mCyanqjEIp9epsBhcwCiVNOzEmGtFMw65csfxClcxtbkKa7cuQqmwBwPhSaiEptSfqM9+Xkf3bPfLkhAsrn06k2GLpWLTC1i9kNe3Cbq5idQ2FFZfg9jkLP+svbrb1Opizak20aPd+XAill0cdHigUlUPHHSo5+Krr936v3/tf5z/zGc++wxVviEhbxsS8gdpRshraWZwbQYhGpt1eYU41DpYjcJi9rfydY5Jj+YO1Ktjjtcfr3czIRhmiDbBCbE2VEnZfnaTTTXMqDbGvLtCNESb1C5i911FMbYYhdY5LURkQb8wtbZYsw9ea7z+Tjq6ok1C/jL4PXigWP0SjzupBKTW7/IxSuyYYrhR71b5URZr1co347UnP7vZJtgG2sUt9hW3yOwou4gHdta6UNQr8/b+QgofRZt85CMfeeratWt9786TkLdJx4W8we/vuJAXp4c6gBNOmNLxW6vQ4EZlEvOwhXYNru1xhvH6p3e24fbl70Mpm+Tv+acfgnKlteFGVqdX2cq/U7NYw7YdZ1+yoJ8MrS5icWzxVfIQiEzDwOgMv/Ze1i8wf2Bn8z6EvDl1sdZ9MeZWcCKZstlr3wgegqETh630h1Z21rqNzVW2eFm6CdnUOv+swekzkGVt02qb6Be3+NjpMUp7evl+6c7aBYwMiH6Cj2IhhX2lXtGCp59++qnr16+TkFcfewIS8u7RLiEvsDqRYKfHDo8dH4W6cFGsDsjC0cXJ0P3KJPvCeYcJPuMQjYj6E/JjNPBqHSylzvcd/rNWEoEF3ez0inh6FPbKYm2Bt2s7wxawHczapBF47fFa4zVHcTiEeQTsuZFwze/lYO3uZb54Ubby2/9Z24WVnTXRH/B668sJtkIn+oNW1HfzLqLZGJXby6v5TWzuZMOyd/JBy+MTItoE5w5sC95XWLvIXrQguW5SfnakvTlrol2MXHY7fPjDHz53//79vj8ptqeEfDAYjPzIDz750Xe/400fOnd68Zz6tqOQkD+IG0Jei5hIRiYOsQ7vVFiMMjF2MtlO0A0hGjjw4vXG626lfBpiVcgHmTiJjI5WXUVso15gfyv/uiZsYcLhhODmnF6nxaH2syK9LOpxB2bl9hUekoKLtZGpY1AORJsSIlq04jAUUqr3dFoctitx1AnsikOrQl7bV7hgV+ePbjAW6rG5fHC3CftsYMi5HRjRJk4vbgUk5BV6SshrmZ2ZfuTdT771aacdehLyB3FbyAu8E6csHYxhHhbTedFeDxGigYNrpxzOVsShHq2Qx9CaoaHhfaeXfeHvwBCN7dvfh/BohH/W3g3ROLhYw/a1EqLR6mTodAhGI5RDp7SHE4ndJrkrVRlRrz/kN66Br5QBz/CEaWleM1AcYh/Q9gfZxaEIDcR27WSVH6fEoV7I42Ib2wDbAtukXCqzds/Czsp1GB3GkBS2gOnBxFFk7a5B6U6blW+0fcWq2dMqJOQVekrIR6Njh598xzs+tHBoYfHxxx899/a3v/3cVDw+pmwlKZNoq5CQP0gnhbzf54EIE4HCVcQB2MpkKPuNb+Rw4sTptJuLj82EYJhR4/QOeCE4UObCtZ5g3RcIy6pA6PUQjesGIRrKAqaVknZOu+xOYBRjLmuIBl5vO/2htHmFNWiurpCXsU2cwDBxlN3HTifJYntgW6BQd1IcYrsEfWUIDRRgKFS/xKOoBnNgAdODoh4/q3YHBscn/LzjM/tnSoi5g49T6kIKFzxuCnYzSMgr9JSQ/9D73/PvPvbP/peP4xY23nw+nXgosUl0+fZV2N1a5o5nM5CQP0gnhXwpeRvCQ4N8YMV270WEu4liaD93YKYmd0Cftqrt2GLgddIpEQIFJz4nnV59OIoQ9b1WRQPbJL2TgtuXL+wnBM88YkuwyxSC0QijGHMuECweOuUk2v7Qyq6TXshrk7ExIRhFTiqxCoHCJv+svVqpyokqP6JNsB34GNVkm+hxeiGlTRxFlHC5eM+Kem0I2djsCSj4Iy3PHU5CQl6h54T8Rz/yEx9XX3Kxg9thOKjoyeoOebGKlEKeiVnY21ZfuYPMQl772YXwM2rzXkA4Q1o3VyxgxGS4ywRKngkUrMXu5GQYYpMhToL4pRXs+kUE4sTAog1HMVvAyI5oE3w0cnrL2S2obN/jP+ubOssfteC1x+vdrrCYdiB2YHD8dbN6k9G1byYEQ4/oD8OQ4WVOh0bGeZK6UZvg71YSgju/gGkHVqr8uHWQUrurWmHiKH5WvI/FAoaX7pSsGowVRF/B9tAvpEqJ66zRsAQtW7COyjWvkpBX6Gkhr0WIAOxoerSOZyPqCvl2CGoS8uorBbPPrnVzjdq820klE7By6w3IJlf569Dcw5Ave1qaDLWCHQUK5hrIEAaAO2kid8BoAeMGzQyMYjIUTi8+NhIoQsjj/RqcfZg7h5jLgZPodnoXfKnrXbmAsYpTIRp47YVQl3XXSZYY83bAd2CWbvK5NZ/dgXBsls8fQhy2gmgXqULI2pA46hSir1gOIZNYyP/UT3343PIyCfm+EfIC4eyhyDMLvcHOWMgaC2NPaBK8YeMTDknIu4uRkC+n7kIlp4QmmFGvzWVHiEMjl71SyEI5oewoeWPHweMf4s+tIBIgQ13m9OZN4unxq12INhGCsWAzRlR77YeYEPH7Kvwe1ecR4O/ZXL7JBYJ2AdMPNdv3d2Bqy8+Ka99qWIwevTjERzf7Q7tizNsFtgG2jV4cFreXobK7CjAQBN/4SfWnrdPuRG0ncCJx1Amc6ivkyMtP3wl5LUrojTKA6tkPvVGSDQUk5A8iu5DXggOrEAgy0Yw4tCrkMSF4dDQilcvuBMpkeTCe3skdGG0YALaNnTAAJ3c4ZFjAiMnCrVAqLXhCMDq63M1lfdYfOwr5YtnytTdDtAkKQlnyC4wWMHgPy1jlx644VE79bizkZXTZW0WfOCpCfd2Ip3crXAmRWch/8IMfXNza2mICqL/payGvJT5/zFQEaENvtEK+wjpJOBwC/4APwqEQbN6+COktJdTBLUjItybktXRCDCE40Ar3yq441KIV8v74SRgcGuGuFU6AfiZQ8N/e3knD7vIldn8O8UUrfvUi2j7azA6MECjN5BfoxSFeezfFYTsWMO0Erz3GrevFYSmzxfq3Mkd74/YO7EGwXbAvdJObK0uVH9EfxDglxCEepGQHvZAXfQXbANsF/82t1A74dpcgNjHJ7+FeS2xHnKp8I9rF6R2pepCQlx8S8jrqiYA91ml2d5JcMBm5BTdffYEPwG7SKSEPgVHwjRmLwG4V8oL9bfwZ9ty5mMZWxGE9RFJXaGgQgt4i//vxy0y0Znd3ILF8o7q71KkFTDvA8Dj8nNrkQvyc2L78+zqBIhZSVgVK9dpLIg6NFjBO38dOYXbt8T2jPqGcQ9BYyAtxKFNuR6sTq3KmhEEZQBeSZEW7CHGIj2ZtYgdsF39pB0KDHj5njozPmfaVzdW7vDpK7X1c/1TvbsVq5Rs3XXY7VIV8eMo0GqFTkJBXICFfh3qhN0a0RcgbhPaQkG9NyGvRCz8riImQD7q7WR4Wg06JU9UxnBQoOIEo4k+ZMJX7ewaGuvCwnkbgAubO1VeaSgiWURw2Qjh+7UoIrofoE2IRyx9tihAjIa/NL+A7TpgQnFmG2LjyeXvxPt4Pq6p1c63OSwJsExyTxDiFj06OU2JHCh9b2ZHCsCpl10kTY96jpTux8k2CL2Lu8fF47NCDkCspye7tFuxm5NfVg89IyEtLTwn5H37qyX/xb37u7z2jvnQUbeiNmKRwIsEOJ+KZC4mbrgtqEvLuCnktRs51KzHTZugnQrdDMwRaN7fTwq8V9KKxJiG4lIfyxmX+c0Z5BOLaC3HYTYm/Zgjhh4Jee0Kw9j52CrOxsFURgu3i9xQh5M1xgTMUnTNdSClCSHFztSUPuy2x3Qr7YVW1SbL6sCpsF2wP0ReUscoZlx3bAfsKF+zsOe5SiXbRCop6Z1tYQexK4OfF+7gaY+7CfdwusC2wbfQue2H1NdZoBfCM4I67XKFFpQ31vAQS8tJCQt4mA6PTTExPGQ6IxWIRvHtJqKCodqmePAn59gl5AU6Y6OZmmUhsdSKULTQDkSGR0iraidDKQkor5EUeAbrsKDgVN3cF4lMoELqvopEVtPH0CH5OFH/NxNO7uYjVLqSaXcQqYVW1h07hPRzvUTcXTyxPrN7jeVnczZ13zs0V7SLLjpQoPoFf2rMHnBijnFx8CMQC12ose2n9DfZ/JOTtQkJegYS8TepVrdFS2MvAYHEHiuk19R1nkFLIaw61cZNOCXnE6HfXQ7aJ0Cp64VcvCdxNxETYSvIpF4Xsy1/OclGnF+r4O7AySjohRziK22h3YEQcMn5mfThKK9e+HsLNFX1BWci6s4gVi1M3hF+nMFtI5ZZfBR8U1fwp+/1URnOhHlZ3JdoFtgX2GdyJanaBS0K+OUjIK5CQt0k9Ie+tFGEiPnlgMNROoK1CQl4+Id+tNdkbYST83EoI5gKlifwCp0TIvuN3RxV+vZsQjGjbFsX88MQiFCoDTYkQPfqFVKcXsbIJv0bYXUiV1l4FqJQbCvluNRfqgbsS2jFKtK0buRJuLXCR/MrrymKMhLwtPvCBDywmkyiA+hsS8japJ+RRUA96ilzwmG3VKyEMigPYDH0t5A1inGUQ8qX1SxCbVBKjZRUHreDUyaqthGa0U4Sg8BOiHoWfWMB0cyKlmQgpLCtnqXhG58E7FOXP7dBtbq5e+CltO+vo4tQO2AbYNq2EKxkJeWEuYPts7+xCaW8XRnxZiE0d4p+3F9G2bau5Ek60ix3IkW+O97znPWO5XC6lvuxbSMjbpJGQ1wrqelVvxNavCGGwCgl5OYU8lAv8uVvOtSzshyyYO9etOFdCsKMI0YpDFO2dQOtc74sDeePpxbXnCyYLOxyl1Yv8sZGQ70U3d/0enuKtX5y6E0/fSp+oB7bLQPoOhCMxGAyPw9BIzLBd0ukdSK1gCdru2JVoBTu5Em61i12qjnwE+2FMfVcOSMjLDwl5m3iGx8E7Yuxo1BOVVg+caoSRkG+LmCUhby7kN6/ygU5Ps851t5DaXIWV21cgu73OxcHI/FkolD18YrQq2lF0tCNmulVwASN2JbCCBratcPw6BYoQFB0tubk6Ia9dSPnYc0wI9hTSEA0x8Tc139W7EmYobauMwUqVH0Xk4pddhDDER2272D1ISY/ZAreZ/mK0K4HzUr+U7gzEFlh7KIvdVtvFKUqr6q6KzEJewt0CEvIKJORt0qyQF4iBs9nQGxLy3SPktXR7zLXWuULxqAgUJlgKuf3yjtEj4BkM8+daes3NFfH07Tpgyy3XkLu5O7f4omRwZJLvOBi1S2KNib41FLr7uxK9ujjdb1vlsJ56ol7fLvyRvXaiXdrVX7Si3u1diXZh2C7ZHSisq+PUxGnTsbxTkJBvDhLyCiTkbdKqkNeCA6cShnHw3xNOwvLtqzDg86rvkpDvViEv2E/IkjPm2q5orKnTzoQ8bu2j4MB/B90uz+4qzB5a5G5uL4IiSHFztcl2zbctXmu8dk7G5gphyGPZWzinwGhXwmz86gUwNEMJv1HbduYolAMx2wnZZhi57O04P8II/a7E/o6T8yfJOoUYq7T9xaxdKoUslBNsnGaQkLdHfu0y+Mp7JOQlhoS8TZwU8lqsht5ohTxOBOjU5DZuQn5nnb/nGiTkHRHyWjrtbrYiGquu4VAA/KW04uayL+0uE/77ifs3YP3OG/x1t+9KNELbTxu1rRAhVhdMVhFjgtvJp+3elWgX2C7YDqI9sF/sJZeguL3MLq4ffPEH1J+0R7W/DA/z9pE5jMzNmu3Nou0vol3sLHBJyDePzIm4JOQVekrIv+0tj/2j//Sxf3JefekKbgl5QaPQm8TGKj/URrvVeufSS2zQvcOfuwYJeceFvBY3hVArolEIkFbdXK3IlX1XolX0zjVPep89AbmSp7pgcipmWoZwpf0qP7d5rgSOX2hIyJxIKfoEd3FRGNbpE+X0KlR2VwEGguAbP6m+a4xoF+6usy/sL2G2qJJRsFuh3aU7RbtgHxHJ2k6cFFzc2wVPki06K6yN4iTk7UBCXn5IyNvEbSGvxerWNQn57hfyWpo9hEk7CaJA4SLFZKvZiHa5uUL0tVLKUkbw+mtFIV7/3XuvsJuUTYIGIXFW6aZzCpwsAegUrZ5IaybkRX/Bfw/72GBxC+JYhnbqkPoTvYXTSbJG/cVOu9ih6siTkLcNCXn5ISFvk3YKeS1acad3LdA1yWzdd7cEpT8EvthR9UUtJOSdFfKCerszYhJEcSKEu9VJUBY3d7+ixDJ7jhUluiM8Q/Q/Kzsc+fUrSnypBSEvk8veKnZKADqFnXaxgyeXAH9pB8KxOQiMTRu2S3o3A6nV27B+5/W2ONedxk6SrH6+csplt0PVkWdQaI09ZBby73znO3tKwzYLCXmbdErICwbCk7xDmQ2C5d0NqKCgL+yq7ziErEJ+5z5UMpvqK/fohJDXgpPl8NRJyDGBYlWcCGHYDW7u/ha+Mtk2uyvhNK26ueLe0Oe2iDbAf7eST8NYaBAWjj/Iv99riAUb7sI4FXONfQAFYrPtYoYTB1wZOdf4WXv1XAlsV/y8tWFkXkfbpVWwj5W3bvDnJOTtQUJefkjI26TTQt7o9xs5eT4oQWL5xoGqN01DQr6jQh6p9zfo7wH+aFOAyIIQBrVCyN0Dttxyc0tbN2Fo0Afh+CIMR+KqONxvF1wobCU2IHnvdS6EeiVp1Ay7MddutUu7dj96sbwjItoFxTq2B7bL9j0mRgu74AlGwRuRK7xIdiGfX74IPk+FhLxNSMgrkJC3iYxCHn9vdGyUT4pGE+Lm6hJsr2PyXeMDp0zpdyFv8LsFnRTyw54cTM3M8ZMdew0lPOO6QXhG8/H0QoA47eYKYYhCHQVhM0mO+l2JXhf1Rs71UHSupl2cOLBHhhwDvXPtxK5Eu8C+gmK9UX8pJW/x8E7phXz8QfB45TI4Siuv8Efv2GF2/SL8uSyQkJcfEvI2kVXIi99bL64aUWKSzQ+cMoWEvJRCvrR+iV2EgiMiV2b2wzPuqOEZjUWu3s3ljy0KdsSJ8ItG6HclFOHXG1V+9O2Cn3NvQzmAqRW3tF0ue6vYOXSqnejbxe7uBwn55pFZyOdXXgcfFKXcLSAhr0BC3iae4JjpINUOUdlIyGtBcaeEJRycIPTCqCF1hHwll2J/g8tVcxgk5M2FvJZ+CM9QFqT7IndoNA5l7yAXHk4l08kiDFH04Ve3VfkRwhAdXJHkaFRFyW7Yg2gXvcuObdNt4L0s2lfcy7ir6nZuSKu5H0aQkG8eEvL2KZXK8NRT7yIhzyAhbxMphbyF34viTkwSeiyF3pCQ7xohL9iv6T3hujBoF3oBsnXjb9gNWG6pvCPSDSUexeIb+6lsVX604RfYPoo4tCYM6wl5FO3i3/AUdmBqchJi8Rmp2sUptKFGTpXubNVltwMJ+eaROrRG4kRccuQVSMjbpFuFvKDp0BsS8l0n5LU0OmlUNqwKEPH5rQr5bgm/aIRRPL3ZQt1J3BCGKLI8O3f52BSYYAvP0ciBg8e2ktuQXL8LqaVL1TEMFzC9WAkGc0PQoRfj8P4uTP0kWTdcdjuQkG8eEvL2IUd+n566CA8/dOZvffLjP/es+tIVul3Ia7EVemMg5FEUoQjCcpc795mgchkS8s0LeS28RBwTfTI4uQgKQRSIzQgQMyGvdXK95T0YGR6E6bkjVWHYSwjRJ0KNlD7depUft4ShGDdqdj8GPJad5/V7V22L3G5lfxfmvroLo/TbwfC4o4spJyAh3zwk5O2zubmZ/NCHPhRVX/Y1JORt0ktCXkvD0JutdQiMzRm6mDjJ3Hz1Rf7cTbzRI+AZDKuvFEjI2xfyWtrl5CJuuLn4+bG66vDEIoTHmcBholARh0pYDDq5qcQqJO9cdFTkyop2R81qPL1b4Rdu736YiVxZFqhOoF3krt+9DMVtJfzRN/Uwf5QJEvLNQ0LePiTk9yEhb5NeFfKCRqE3RpCQ714hL3BS5AphyN3cOkmOdmlVGDYjcrsVs3h6dHKb3f2oRzsq+dRjP9RIqQSj3Mvdc7KqlcVUMZMEz44SwiijkC8kboC3kJZSyBdzO+BJ3eTPZRPyGCIC60wsM0jIW4eE/D4k5G3S60Jei1nojZh0hCBIb622J7SGhLxrQl6LHZGL9wAKDqeFoZvJp/qwMSFy9fd5N6MVhvg5M2vq8fR17mMruO2yO4FRfXoU9LKU7tS67Hb6jJKLdJs/JyFvD3Lkm4eEvPyQkLdJx4W8we9vx++NzTIBEJ5UJ57aSadSLkEZ68jvbavvuAMJ+fYIeS1C5IajU1Vh2E3hF43QJo0qJ42qn7fLnFy9MNQepFQpZKGcUOu02xDy3VDJpxEo6g+W7mxPPL12MeVEn5HdkS8l2GJR1pNdNYsgqR352NEDc1ynISEvPyTkbdKvQr5e1Rot/HAo9oUDutOQkG+/kBd4Iwvs3mveKRKCXS8MUbTLglHSqJ0QM7fRC0P+qFtUG2FVyGNSMJ4SLKPL3ipiFwYXbk6frGplMeUE5WyievAeCXl7yCzkuRG29hp/LqOQzy9fBJ+nIt1uAQn5fXpnpGZMTcZP/+hTb/lp9aUreAaCpjdzJb/DBrKs+sodjH5/O34vsIHPOzyuvjgICrXAoB/GYpMQnT4E4zOL4B/wwV4mzQaq1lxbgWcoekDItuWzMzxDMfa7jSueVNgEC+XW4r+tgBOk/m+oZDbY/zlzfeuB9xzee1YQ90JkdATGImGYnpyAqXgMJsajEB0bhXBomLu9/oEB9b+QAwy9iE4e4uKdfWJIrt2DpWsXufgT328HKAj38gXIZHOQ2Erxr5X1DVhd34REMgXp3Qxkczkosp+rVCrqf1UHdm/ye5QxFJ2B4NAwRCOjMB4bg/h4DGJR1rYeD+S312Dr9ivs5/O8DYPDI/y/6QVwMTYam4aJ2aN8twXzBpauvQIrt97gzxErn1e0TWp7B5KpNKxvbsHK2iZsbiXZ6x0u5PH72DZOUymycU7d9WzlzAS34AZOucDGiSGpBB+nuAeVvRR/6h2Z4Y/SwPpwZVcZY4zmuI6zu8of0ES0Oge0g93dTO6P//iP/4v6sq8hR94mfevIsw7sGzfekka3Y2SwDPG5I4YhCSiElm9fhd2tFfWd5uh7R97gb5DBkfdDESampnnt7/DwUE85ufvH6e/Xa3fKyUVQGLqRY1ATsjTARPlAmZ8l0Gh3QRtqhMTnj/HP2i2hRnbRx9NXyzsOjRxw2Z1I2G4FcuSbR+b8AtkdeVnj928x/sE/+AdH1Jd9DTnydmGrZS8T00ZUChk+kLlJ5xz5AXNHvrgHucRdNine4aIHCQ6HmZhQbi+sgjI+fQimFx/gkyUmGAoXzA7SOvJskmiHmDb6G2Rw5Is7K7B973Xws+b2DQzw9u4V/INB7uSKexfDMlZuXeL3Od7HGFePP9MIIyf3/uo6rG0kDji5llx2FbH7MTwU5Dsg6LJPxydgZmoCxqNjMBIOwTCKedYmoj/WA39O+3kz2wlYvvFatV/7BwPShBo5Ae6yjI7PQnT2OKTTu7B1/xps3r8JWzkvbCaxrfbbptXFVat0jSPPhKgnINlujnDkWdeS7tpJ7shX0nI68knGn/3Zn/2K+rKv6SkhPxIOT3/wPe94Wn3pDgMBcyGfZyK+T4W82LZEcbOTWIW1O1e4u4dCR7tljRMnul5K+AKbl2yE3sgbWqNMYG5jKORz+LvbEdZjLuRFG2S2t0wXc72ACL1BkYv3NTq5KHLxEe/h0KiSCIYHKaHLvpXahs1Ekon2BKwywY7hFyIsBp1dO4Id0YYsjUcjMBkfr4YsjUVGqiFLTu2IiM+Lrjy2I35OEWqE/Vx83m6hUchSsVSuhiBBgIkWk/7eKbpGyPuH5RXyHhLydpFRyGN8/LVr1y599atf/T31rb6mp0Jrjh898q7f+sV/9Zz60h0Co+AbO6y+qKXMbvjK7pr6yh0MQ2va8HsbhdaUU0o1BTNQuJsdPGQ19MYwtKYdn51RN7QmccP1BRxiGFrTrrCeOqE19cKbsFKIsnAz7jPdDArD9E4K7ly+AKVskr/nn34IypXWhlURFoMJwZh0KlPIUreU7sS2EYnBuKgyqralR0kKZv2J4Y2dMO3vnaJrQmuGJw6USO40FFrTPJ0OrcHxEMfBX/6vn3jm4sWLz21sbNxKJBK3cjncCieQnnLkY9HoYn868u7/3rqOPCbT5RQhYwaGJLQaemPsyLfhszOkdeTblmjb2JE3AtsR44+VpEKlnboxiRLF4N5e/oDLntzJoKFW3ZGCoQnweLzKcwvgJIVhMdrkU+GyR0bC7HtD3GXHn5MBkTQ6tXCKL9JE0iiK+2I+x/t0O0OrjFz2pZU1HrIkEoOxeoylkCVNUrBnaJwceZt0hSPPIEfeHu1y5MWOI46HmICPX3PTk2w8HOdFEt7/o+99YmNzM7eysrpy9+7dl9X/jGCQI28XcuQPoBy2oZyaZwezA6cQ4fytLd0GT0URquTId58jb8R+UuEMD9+QCa2Ta7X2t3ZHyhs/Y1razu/zwOhoRNqDlFrB6BAmbGMn4+mxbbi7rraJFZfdDl3jyLOFom/yIfVdeSBHvjmKRbb42XiDP+8XR17sOmIyvtfr4eGCVs+oEGP0z/+bf/fM75w//y/Vt/saEvJ2ISF/gGaFvBYroTdF/ygEQmM1dcgTS1dh/e4V9Sfdg4S8c0Jei51TZJ1ETAb4qK0Y00ztb72QH2QiHe9NcZ8W2L+7vbMLO8tXIBQc6MjnbRelYp4vwLHPNnsIk2gbXilGI9zdTjYlId8aJOSbo2tCa5r424RgR4EuxsMhHB8Hre12Yb/XjtHaylFUtWYfEvJ2ISF/ACeEvGDfzbN2EA+GbOCX25CQd0fIa3Er3loIQzvx0laoukpMnPvLWcDyjkMjMVNXqVviy51i//MqFX6UXZjaz4ttg22iXUw50TbNQEK+NWQW8jKfiiuzI2/n1Fmty467jnhOCCbg23HZ7eyEXr1x89Y//kf/kIQ8o6eEfDAYjPydD7z34+95+5s+dPhQfFF921lIyB/ASSGvpV7oDYKdH0U8OfK9IeQFWBFGiFw79cvFZIBicHc3y53wNBOITohCUQ1GuxtkdSvYCHSsUeCiqMfPi/c53u+9Wq89tbkCK7evQHZbqWQVmnsEsmzC7oRgN4OEfGuQkG+OSikPZTwPhOFlc6xM9x3uFgQy93iOm1bIG42HXo8HAuz9Ruhd9mYX7yTk9+kpIa8F3fknHnv4Qz/z4fd+VH3LGTos5I1+f68KeS0o7MJTx9hKvcgFmnaLDX8/Jlo1SrhtBaP4fAEJeWeFvBZ0udHJ1Yei4ETghpOrd5XaEcuOgv5gfLm1HSkZwfKbfDGla5vS3q7UQpmEfGvkN66Br5QhIW8TmYW8n42Fp48fgexOEtK5PAwNhy2Ph8JYseOy2+Hll1++8HM/93OPqi/7mp5z5MfHxxff9Oi5pxYOHVp8/PE3nXv72992zl/KjOFkiTGbLUNC/gDtEPJIPTEp8OylwJtPQT7jbGUqEvKdEfJaIpOHoRKacmQyMIrdRFcJJ6lOgaEo6NCjqEcHDB16XMTgl4zYnahlF8ok5FtDZke+eu0YJOSNQdGe302y+XwXQqEwTC8cg6Eha6ExZot3p0S7ESTk9+m5GPk/+NX/8JyRg4foY1Sbwh8CX+yo+qIWEvLuYiQmvZUiTE1P81rb2iQa0dbocjZziqweEvKdF/L17sF66F12/qiKeFnJppPcqV+/x8QRo9Px9E5M1CTkW4Mc+eaR+dq1W8jX23UsFfLVHcKaZPVDyrgrFu84BuCivV2J6EaQkN9H3pmsCbCO/I+967Gn8WRRo7rV2hrIuIWN4MmitvANgncoqr6opS01zQ3q2He8jjwbiNwMaxGgkNTXsS3trsP2vdeYoC/AYCDI2lWpYS3aWsQeF0sV1tZKDeZmqFffl+rIt+d03br3IAMnKH0d4un4BMxMTcB4dAxGwiFelx2TsPBnZcY/GOT3rzhbAR36lVuX+CSLJgTGmePPOA1O1FiXPbW9A8lUGtY3t+D+6jpsJLbY6x0u5PH7luqy65G8TnvX1JH3eMAbmlTflYjsBr+GMtaRl/raVVhfyijRAh42vjl53+E4Z3ZOhRgP0fwS46EXdygj4xCbWYTI5CFIbiUgsXSN66ntgg/WEtv8hOrt9C4T8M2dUO0Uq6urK5///Of/h/qyr+kpIR8MBsf+9o+962fVl3zyS67d45Mf4h9kq0417lR/3Houm2Vj0B7/Xl3qCflCDiBvc2FgFxLy6isF8dkbHTgVnZyriiLE7gKOhLz8Qt6fWYbo6DDMHjrMJyiRkNXtaMcqBI2K5Ruv8YRZFPWh0Rh/3y7opBkdcoUTNR6k5PhE3U1Cnok9s/MAOoXsQr6S3SQh3wwOCHm9iRFnQn12Kl49TAmrx+B4aGRiiMW7/lC1zeQOFD0BEIdVlfxh9ovk6bMk5PfpKSE/MhKe1gp5AU52OPnhNrXR5IfPJ+ePAh5Qgzd5ZpsJMzPqCvlM7wp5wAFwQn2uQwIhLxBtvXbnCm9rXKRpTxIVoghDFZBifo//N40gIS+/kM9v3WZtv2K4G9cr4FilxM0v8JAxXLziyar1Pq+Zy46CvWWX3Q6SC3msge/JKWM/hofIJuRL+Qx4sK+RkLdNLwl51CgDPi9EIxEYZ6J9kol14bKPRUYOuOxatGPBJhPsa+ub1cV7ajvNF+/4/eo4wB5lPXWWhPw+fSHkteDkpw29QaEnwjH029nIAee2X4W8x9cVQl4LtjXuyBi1tT70Br9XbwFHQl5+Ia9MOMoEpN2Nw4Uatq8boSidQn//4r2+dO0iv9dRkGZL/va47HaQXMh7UFCJv09CIV9mfawrhPzgiGk+UaeQWcj7mCgvp5UcN62QFy47fn9sJAzxiVg1VFCExmBsez2XXbvjtrK+AatMuCeSKT4W4OF3jRbvZfZ9qC4yWJ+QqM8uLa2sfOELf0lCntF3Ql5LvXAM4dyOxg8xATDIxQC6t3ohXywW+XYW1k/1ewqQ363j5juBkZBvR0hPFwp5LY1Cbxot4EjId5eQF2C/xaStzfs3eQJXpVxuOhRFJrTOWmavDHsVNkax4bycS/EFadY72h6X3Q6SC/mav09CIc/HORznpRfyYRLyNhjw++Ghx94OFTa+DYcjMDYWgenJiarLjrHtTNuYhgoa7bitrG0e2HFrJiGVL25dit9vlWvXrlz66le/+nvqy76mr4W8QBuOgdUiUOCJLWoU8XhIy8TsUcW5HQzC8AhuYYUhFhmBQ3MzvLNhHFppL83/HVcxFPJt2AnociEv0LY1ht4guGgTmIXeaIW8cEoioyP8PsilVqFUsJBf0SIk5O0LeS3YltrdOKQbQm+sxrKjY8vFCsMbnuKPUiG5kJc9tKY6zpOQt41MQh6rIzGxAEFfGebmD3G3fZDpjJGxcRgZHeWhMWYJ+W3Pa5FYyN++ffsWCXkFEvI60IkV4Rg4sON2vNiS584tdjY12xtrT2s7W2Y7QULeRZwQ8lowHAHLU1oJvQmGRiAWi/Hs//nZqZoqKKn1e/zfchsS8q0JeS0i9Eb0c1y8i7bvFK3GslewDCkJ+aaRPbSGhHzzdELI6w0fkYA6Ehxg12oLtlduQCaxDD5VQgwO7Y8/rY4FjkFCvisgIV8H3KKutyWv72zbiXUoZFwWtDIK+fL+BOgmTgt5LfrQG22FIxR4oVCIb20GBg+G1+B/Q0K+u4S8FuznZmFXbiDGDb2ztry2UY1fbcZZIyHfGuTIt4bMQp4nCu+xcQqLNoSdv3Z8bmBf2jKPIhFVX+YRBXskPgvTR85w8yixeg/W7lxSareX/GwsSMqT10JCvisgIW8B7ZY8bm1tZ8uGE2+x4mH3fYGNGi6GWUgp5PcnaDdxU8gLROiNqHCEaENv8GAcvAe0AiyXWmMiKq/+hHuQkHdHyAsahV01g36xv8LGDDFJ6521ViEh3xplNnaTkG8emYU8lNS+gdeuBSFv5rKL8FptmceBgdr7x8hl39otQAHQoU9wnZEfGIFSmV3LToh2I0jIdwUk5G2CLlrBFzaceHHgR5HNJ1GMpy6zn3E6CRLFjK5qTl8LeRcTfbWhN9t5L6xspIwPxvEF+AThtpglIe+ukNeiD7tC6sXTG7ns+ioRfLGP94tLkzQJ+dbwlDFEkIR8s0jvyOM4ZUPIo2i3c5iSFhwPsC67pVh2bb9gc6xU9x0J+a7g4B1I1Ifd2PXA1XhoeAimDx2DIw+/A46/6YcgPn9M/S7RreSyGdOsfzxSG48k902dBc/oPEBgVP0O0Qtg2M3NV1+E11/8Ahf26VSC78rgou7+yjpcvXEbLl27Bddusp+7swRrbMLGkw9xoiYIx/H0lP/WFrzAxm4PPjl47VCI47w9EhrmpR2PLMzBmZNH4cFTx+Do4Xl+qFJkJMxLPeqrxqBgx7EgtZPmY8Htu/fhtcvX4fUrN2rGAiz12EzVGMKckiy7FhLQU0I+m21DxmUdyrsbEMivw3jIW+384dEIzB1/BM499ZOwcPoxfugU0Vv4/QN88TY5EYPFE2fg1KPvhFNvfg9fwIlylkT3gy49Cvnrb1zgon15dYM7bDRJN4FkbjfR28TnTyjz7/hUdaxemJ+B40cW4PTxRThx9DAsMgE/EYvy8BizMo9iAX/3/krNAv7OvWU+FqBop7GAaDfkyDsJm5y07t36vWvVbXkET2Q88tDb4OyTP85rlg+FI+p3iG4mt34dBrIrEPKXq87NUGiEL+DOPPE+OH7unbQrQxAE0SYqWIChkIXRcIi77Bi/HptehCMPvtWyy44hMBgahy77pWs3ucsuFvAYXtl3C3jJFt+7OzsdNW5lgoS8S6B7h0env/7iX8G1C1/nGekCrIaCQv7U4z/Evt5NIq8HwAXctQt/bbiAw3MIaFeG6HdK5FT2NKVyZ0IdRGgMlgSen5mCI4emYTxYhHLiKmxdfwEya9chn95Uf7oWrcuOoTE3bt+jMDkNJcy8JaSnp/Y3h4LBsZ/+4A99VH3pDnUS7rTJZlpQ1JvVrMYa9Y1OFa1Bd7Is0t/Jrm347Iy6J7vmUmzEUyoVNap6oz9wKpfNQcVisiolu7Yv2bUeeB3wesiG7MmusleFUc7D6IZkVxyL4+q7EpFh/a9Sdi3ZVVSM0ZZ5nI5PcMddnOuBDvvgYIDNqZNsTj3D51Q85BHnXiwvi8J0t+Bpz2FKVpE42dVTLkj7t125cuXSN7/5zT9WX/Y15Mi3GRR4WudWiwi9OfPEe7lL7/UPqd+RgAZJvsRB0skNuHPpu3DhuU+zx5eqwh7BhRy69A+/40eth95QGxBdjM+gugdBGKF12VGoL8xNV2PZtaExWDVGj9Zlz0EIKiMLMBCZV3Jcbl+WLgGVdqqIVqGRtUOI0Bsh8rShN02JvD6gUuneAY9Cb4h+hwQLYYSo9KZNQMWKMSjaZ6fjPAEV67YbJaDiuR7aWHZtAqpIRsdSwSjuuwKqSEQ0AQl5CRAJshe/8ed8CxC3AgV6kReORPmgNzYa5vGAOOhhbVuiO9DnTojTRAXaXZnozNFquBVBEERX4DGWFXqXXZR51LvsGB6jxyiWHcs8Xr5+q+vLPPo8VEaRaA0S8hKB8dUo5C+/9FUu8oxCb44/9BY+6B2am+GZ+DwmMGAcu0w4CB7u5TCNQm8OnzpXU/UmGAhUqzCgc3Xq2KLhpNd2yEUiiL4HDSexm+j1gGmZR+Gy1yvzaMVltyPYO5WISxDtgIS8pKDIMwu90YKDXqm3cpb7EiuhNydPn4HDh2aVrWaT+FCCkBVyHltDRjGqddljU/Nw5KG3wyOPvx0ePH3C9mFKwmV34zAlH64siJ6ir0p/NqCnhHw219kDodyipjb90o3qCXKitu3KVlY5VTQ8A+BXquEQ3Yk+9Ea/K6MF40PBa1xJhyCI3qLTYhRFu3DZY+EBKG1egfLGJRguJ2E0yP4+A3ddoA2NMTtMya7Lbgdy5HuPdFoTg9znkCPfRXCRd+tq9QQ5fW1bLA/pnzgOgekzEJs5or5LdCv6XZmNjc0D8aH5oWnwRo+Ap05Zxr6BQnyIXqZNyf7CZR+LjNTEsmMCqnDZ5w4dgXNPvh/mjj3Idw/RdHj9xb+E9XtXmcDake4wJdoNao6aBHUaX6WFhLxdXIiVtoVBCUJveY87JGKwfeD0aVg49Wj7qqDIVg+6B8FdmftLdwydK6zZ7B2ZBf/MIzA8eYyq3hAEYQltaIwoniBi2Q/NTjeMZR8am4GR2Qdg/PjbIL+X48bD9UsX5T1MieYqW9ACqDsgIe8gHpNsfbcp7mVg/fr34fJ3vmSYIItVUM4++eP80KmhsHwH2RDNM1DKVBNfcRF38swj1ao3TrZ3N5f+JIh+Rwh2PFBpfGyUjxnHFudryjyK4glGoh3DYvQJqDUu+84uObZNUiqRWCZag4R8D1GvNr1vYJALu1OP/xDVpu8h9lIrcPO7X4SVGy8fqHpD7U0QTdLFolTrsmNojNZlP8kW/LMzUzwBdXjo4IGD2lh2bRgfCnZ9AirhDD4fJeISrUFCvkfR1qZfuvZy3dr0FIrR/VipekPtTRDdC+6uaXfYisUiF+yNDlMyc9mtHqbUM9VB0PiW0PzWOvIeCv0hmoCEfI+DtenX713ntekvv/QV09AbDMVA15YOIOpuGlW90bY3hVoRxD4yVzZBlx3LO556/Ifh+MNv4wmoD585yQV7Px+mZAtJjW+fh8IWidYgId9HZNMp09AbDMVA11YcQBSKTqvfIbqVemcRUOgNQdQiS61x4bKX06tQSt6CiH8PTizOcXcdwR22dh6mZBUq8Ui0kwrdblV6ah9nYGAg+Pd/8r3/Wn3pDh4fL/NoSHEPKnsp9YVLeAfAqys1WCnmAPa21VfWQFGfXLsHiZXb3LX3DfjBP6icEIsib3z6EBd66NDj9/N7Wfa5J/n3cb4bZhNNNDIK47ExGBsZhuTKLf49N/EERsHjr43rrJT2bH/2ZvAEI+AZMD5Bt5JjbY5/h8t4hqLs9qutG1/JbgGUC+orc7TtjfgHAzxvAsH2Ho1NV9sb2cuk+aPA6NoLKvldgMJ+KI9rGNz7WiqZDfZ/7rtbeB/g/SAb2nHAG57ij1JRyrO+wu5Xhmd4Qr4wAu3fx8Y6t4sXoMuOyaeR0REYi4QhPh6F2ak4TLBHTDyNjY9ztzadWIblGxerOTBD4TEu2PcwNCadga3kNqxvbsH91XXurmN5RxTr+P0i+7lKmxRPaXcdvFAGz+AI+5LrPJPqGOWrP4Z0BNQNOIcwpOu32CdwjmG0o0/Y4cUXX3julVde+Sv1ZV9DQt4uPSLkBSjS0bndvH+TTxT4OjQaU7+rTBoYjhFjwn50dJRPNFOTE3yiQVcI3SMcvDF8x20MhXwLn90O3S7kBdi+O4lV3l5m7R2dPMTae4ELffx+Mb9Xc+31AsRTZKIhrQz2rkJCvi4k5FujVGD3+Z6SS+S0aME+MzwUrJof8fEYTMVjXLSPhEM88RRPasafE2D/Q/c9OnUYgqMTkFhb4obJyr2bsLU3UD1PJJvL8RKP7RLspmRW2f9VpBTyxdwOG6cyDceQjiCxkC/h2K/2Ce+IXLlV3/3ud18kIa/QU6E1uZzaG/oMpyYcfSiGvgqK2XYu0Z3YCb2ZnTtUTaYTFTC0yXQE0e04EVqDQhzNjRE2VpodpiRi2fVjqYhlNzpMaWl9G8q+/fylno5ldwGfZoFEWIcq6nQHdHcThuiroJSKedOkKYzBJLobUeXIrOpNfGrGVIAQRC9gN8YbRbu+YoxY5C4yAd/oMCXtWKqNZZf2MKUupuaEUsI6nT4Ak7AECXm7GJys2suIKigXv/E506QpDPfwxo6DR7YtS8I2jareGAkQfE50HnJpW2MoaJwDIlz20XCIu+xz03HLLjuid9n1hynhWNpTFWMkLKFIJ5QSvQwJeSfp8Rqw9SYajJ/2jsyCb+oseEbnYTC8H3ftGOQOtBVt6M31q5er2/wHBMhghBZxEqCNrybsg6VYzz75AZg7/jBMjI/D/MxUjct++NAsd9lj0TFLLjsdpiQhdPos0YPQyE+0TIUJbHGKIMaEPvTIY3Dm8af6pla5TJn8bpHeSZlu8/MdGc0iDgKj6ncIQk5wzKoUslDJpyEAOR4aMzMV5wmm8fkTPP8DE/rNXPa+O0yJICSjTOVOq5CQ7zZkdKUrJVi79NeQWbsOpWyyOvFRrfL+QIQejEVGYG7xBBx/+O1w7LEf7otFnEyQaDRG3J/CbFiYm4YHT5+A+clRGPFlIbN6BZZe+2tIrd2qyQ1BzFz2ThymRHHePU4fGEJOsrurOa6+z+m5faanf+r9H1efuoPHU62nfgBeXs3le8uo/GU7yl4y6pXGqmTWq7XKMa66wiYdfW16ba3yPTbxFfNZ/j2rKGXNak+elaL8JP5+/Dtcxonyk81Sr458aWcFwgN5HiccG5/kZfQCgQBPkp2YPQrBkXF2H/ghs91iLD2Vn6yP5kyFfi0/iYI9wL60ZR7RXUcRL8o8Btm9ieJelFqNzx9nr338jIXlG6/xal3beR+sbyZhlQl1dNfRfe90mUdPIaPUQpexhCKjsruG/193rOgUlfwOu3bs+uHu4ZALYZ8tUMrnwIPzN2qLsIm26BQSl8Z84YUXnrt06dLz6su+hoS8XUjIH4RNbCjkBSjiG9Wmn5hd5LXKkd2dHfBAYwFGQl5OIY+HrWS37pseOBUcbnzglCVIyNeln+rIoxCvd5iSOOPCPzCg/hf7oMuuPUxpc2sbUtkyFErsGrJxFBO+8wNjvIpNx2uza5C6FjqDhHyTYJtivyUh35DNzc3k1atXL332s5/9o+9973tfSCQSyoTT5/RckdDn/uRX3R15PV7wTT6ovqgF4y3LWzfVVy7h9YMvflp9oYAdrZy6o75yD4yBNgLjTcvrr6uvzEHhHpmY5V96UPCjk5/aWFbfOYgnPHNgEVNmQrayfU995R7eyIKpeCun7rq/gGN4o0fYQiasvlIoJW605VRVjH33soWEEXiUvDKJ1xIem+BtjY6nHixniodSYe163MmxBBPQvvET6ouDlNYvtWdRExxj98Mh9ZU8FHc3wZNWzgIw66udRBkf2f3K8E6cPrAoNQPLuw8NDfFSj8FgAAb9fvY1YBi7rgdFe75QhN0MOup7kGNf+NooDEYZRxVd4I0/KN2BVYXtZfBm19V+cFJ9Vx7yKxd5dRhlrJBLLJd37isLfX8IfDG5QjzL2QRUUmwOQ20x9ZD6rhzwPpFkfaIDfxsu1rGfh4aH2aJ7J/nLn3jmmc985rPP9Ot5QfUgR94u5MgfROfImyFCb4xcWwy9wW1udG0xJAcXB+iMaemkIw8B9rvNHGly5A0XE9h+eIrsyq03qrHHweER/oihDCL0JjLBFmhs0G4YekOOfH1EaA2bdE3HqE7SwJE3c9n1J0mjy44/q0W47Biyt5Xahs1EElbWN3gyaiKZ4qExGMdeZD9n6rJrxlHZjqNHPMJVltSRBz4HkCNvl0oxK60j366wH31I3HR8gueziJC48Vg0+IH3/+hTP/Yj7/vpvUJ+bDORSO7s7OBRwgSj54T8B9/71EeHgmpgthuQkD+IRSEvwFAbFHjoyKITj8JdCDwEw3Bi04eroTdC4OmFPE7mHiZeym1YoNcVsiTkG+4K1FvEYR6FpdAbEvJ1KeUzitirN0Z1kPBIBKamp/nzkncYhkNs8a6JZZ+Kx3hojIhlx1wLvWBHhGhPbe9AMpWGlTUm2NVY9mRqh1eLwe/bTj6VXMhXxaikQr7IdBXunpCQt4fMQt7psB+zxbo+JM6svOvoWGTsHe94+1M//dMf/tnr164nr9+48W31231Nzwn5D/+tH/nXJOTdwSkhrwVdWxR4wrVFUY/uPIJCTyvwPGwCG4uxVbpmxT4AbEKvE47jFCTkWxPyAv0izih/QklAPMYGfR//fjG/p3zTRMCIyaGwvcr+mP4V8uVCVjohjztrQ8EghMPDSjL0xBRv38m4Ut6xnsuOYDiM1mVf30zAMhPuwmXHBNS6LrsdSMi3RCm9RkK+CWQW8q38bdifh4eCTS3W9f3eaHftpZdeepGSXRV6TshnC5Xg0PDQ2PTEmGL9OI2MQr5cdP/3MtwQ8lrQtU2s3Km6tnqBhyJev2LH/4aEfPcIeS22Q2/SOzAQjh9wdGYmJ/jkkFi+yYW/28gfWtMZIY9t5PN52cQdYaI9BL5CEjKrl6G8uwYjoSFek10s0vXoXfb1zS24v7p+wGVH0e4aJORbY1eJdJBRyBezKfCUmCglIW8LK38b9nsck1G0x6KR/ZC4+LjlkLhG/d5od+1b33rhucuXScgjPZfsKpidmX7k3U++9emf+fB7P6q+5RimSZ+dSnZtx+9leONnDsS1IlaTXZvBLEEWV+w4CGytL8PmrZfVd92jbrJnu5JdDRJuZU52bQbcecHkWBTvZqLPjNdf/AJfHLiN9MmuTICaJeQ7AU7GmISGSachJtD97DE8PGSafJpYucWTmnHBjecKYNjcUHSOT9JK8mnBNAG1ncie7FpN2JQ02bW0+gp/lDHZtZC8B95cgg0wlOxqh4CvDP69TUhtrvK/TfR9TEAdHFQf2Wuriec4bzvV73/hF37ho1/+8pd/RX3Z18g1UjlAMBiMHDt69Iknn3zH+x597M2nwxNzuROnHuDufFMl7wwwdaY75ci34/cyPKG4sUvlkCNvhIitxoo2Je8QrG/t1KzYc8WK0h7CqUZX0gWkcOSZiEc3WEs3O/JGNAq90SMcnUw2B8mVm3xR6Tb9FFoj3DaxAzI9OVHdHscDwJS67IMHnDZEtE2+7GP3TxQqvgAvU4rtm8wPQCaXr7rsUpR5JEe+JSoSO/Ll3DZ40F0mR94yfibQx8aiMH/kFMSmFiAajcJ4NAKT8fFqaEw9lx3H5MRWin8trazxw9P0u2ut9Pvnn3/+CzcoRp7Tc4785//nJ7dOnHnTmFHJO9y+R0GI4RutbMGbOvJsIi0nrqmvXKLPHHktRuUnteDA4/dWwF9IQXpr1VF3lhz59jjyZvCdmfghGAyNsYnAuJRgv5efrJZibcKRLxaLfAscnTVR5tHHhEWYTdhWsOK28TroKWWcslN+sl10jSMvYQlFRGZHno/RaHqwRYYvuqi+KwfFNO6kLTFhgXP7A+q77UO47F6oQHr9Nl9YxManmHifh3A0rv6UMdjvsZ/jmJzPq49t2l0jR36fnnPk//aPvftfFzNbQaO4W5E8ObVwim/hI8249KaOPMaqZxPqC/c44Lb1sCOvxaj8pLe8B9HQIBw5cgQmJ2IQi0Z5WAYu5LCOOSbPtnyiKIMc+Tqf30FH3gy+M5NYh+TegGkpQb7Ic3lnBpHVkbdatUbvsmNM6/zM1IHKEYODB4W2cNvEYUoiptWK2+Zh92m1/GRoSjrHW+vIe0dm+KNMyJywiQhH3huMHhinOk11jB4IsGs3pr4rB+W8upPGFo5eNse6ibbvC3dd7LDFomMwPb/IRX02vcVPORb5apizVPH4+GJdm3iuP/m4nbtr5Mjv03NCXlu1RhuWgaeNoqjDUndI3eoYDeiokDeapPtYyJf3dmF35Qpr57v8tb42vbbqDbZxsy49CfnOCnmOhZAC/Bu9wTEYGJmEQCAAfp/Hcr+2iqxCHj9vcKAC+b1sdYxAQa6tz9xsmcf1ja2aiXs7vcsn7kKBjXlWJ24+TgkhL1/oSo2QNxvjO0i3CHncsSIhbwMcO/NpdtM5K+T1fV9fmx2Tz41CYwaHR2BobBrC8cOQ3mEaavk6bK7eg8Se39HQmFYhIb9PTwt5AYr4dHIDNu/fPBB3q62OYdXBJSGvo4NCXky+2KaNyhpqa9PjTgzeF1YhIS+/kA94CjA3P6+K1QmIT8/XVr1xYGcGkVHI4+cbGY3AkRMPsnv8EIyOjhrWZ7Yb0yrKvTkxcZcKe+DZU8YpEvL2ISHfPDIL+Qq2aQtCHvuzfofNTm12sVjfZP1+bX2zZrFeYn2Cx+87vMhwAhLy+/SFkNeiL3mnrVuud3Cxjmkxn+Xf00JCXke7hLx/mAn5sPpKRTP5Cuq1sTa8yovuLfs4VsKrpBXy+LtdDCMRdIOQz69fhUxiiYvVweBQdWfG8oFTFum0kMdcEHTT9raWoJzZhNEhP1bpgnhcmWjxczdzmFJqO81ddvy+G05bbWgNCXm7kJBvnl4R8tinnarNrj+TwShcEfPv3NgtcAIS8vv0nJD/sR988mfHIiFLPbVR3fKJ2cWqg7u9tck6h5IbbDTIo7sbDAxAYcdlQdvXjnzIkpDXom/j4HCYtaNy24dGlfCq6MxRCDDhV8znTMMwpBXyeKotCXkOJgKi69toZ6bZkDpBu4S8cNrwMCV01oTThrkg+Hp6bgF8njJktzfYovX1A5+30cTd7phWcuRbg4R888gs5DH8r5RJ1Ihl0fdFbXY8l+HQ7DQT7c7VZse+34hWdwvchIT8Pj0n5H/ifT/4UatCXiDCMuolyM4ePVN183Ag0G9jzbCvYSbkMXzHVUjIq69UGgh5gWjjtTtXDrTxABsMUfzUC8MgId8dQp6tqNVXB3dmkLoHTlkMvXFDyOPvN3Pa8ERUM6cN79tIfB5CsRnYXL0PqbXbsHL7Mmzu+ZuauN2kXMyTkG8BEvLNo+xcsjHaJ5+Qj47H4cTZx7m+CI+OGZZ4HWJjg77vIyjaMSSuXgKqrTwWHTIL+eeee+4LN2/eJCHPICGvQyTIooOL4s8oQVYki+gnV3R0+1HI43tulx9EWhHyWkQbo8ArMXGB7Sva2CwMQytk9UlEhd0tyGfZJOsyJOTtCXkt2n6NaJOi7YbetCLkcaxo1mlD8kyQG1WOSO5kmFAuKJMuGyM8w3JNuggJ+daQ+XRSpCsc+Q4L+UqJ9dFiFryFNERCQTi0cJiPAdjX8bA01BT1XHbtDpsbtdn1yCzkP//5z//RvXv33D8NsgsgIW8CinizBFkt2m2s7VQKslvL6ndcQkZHntFNQl4LurDYxnjyJIZHGYVhYHjVIBN7GINslESU3lrhQtFtSMg3L+QFYmfGaugNTpxldo9psSrkhWg3KvVmxWkT44p2e3wjsWU6cVcnXaMxQgJkF/KlfA48eXmFvIeJP1kd+VKJ9buMMgfIKOSL2SRbBLF+jKE17O9zG9H39WFxM9NTEAoMAB5OtXn3Ej/ErlTI87FmcEjJ4zLq+ytrmwd22NoREiezkP/Sl770LAl5hZ47EOr3PvELNw8firt24gOKukBsAXJ7xQOHnlSYoC5s3QVfid38bsEmP/1hL50+EAoprV5Un7kHTv76CVY5xOWO+soZ+OFDE7P8ywp3Lr3E4/DdxvBAqORtpaqAy3T6QCgOEwe+8RPqi4O0ciBUvTbPppPcyUfxj6BQ0R4IhZO2OKZcHKY0FAjw3Tor4MTd6DAlK5R3N6CSXjYcI2Sg5kAoCQ9cUsYSZcfGN/Uwf5SJQvIeePcSIPuBUN7IYUsL3XaiHNq3pRwINeasPBD9PzQ8zJPQsf+L8aAR60s3eChcaS/DD7vzTxxv24FKVijvrkNlh40pHTqsqh4f+9jHnn7hhRd+T33Z15AjbxN0XjMQ5p1Nv42FE5NvOAYeIXgKByvetIyR21Zmf0cbDqLqRUfeCLPwKjOXNJNkn51i5NVXLuKAI2+GrdAbjw9GxuI8RyY2Ngqz0/ZKvTVzmJIVZHfkPayPiL5Kjrx9yJFvHqcceX1YpdXa7KLvixKvou/v5MpQKBZ525bwhPRArC1Ou1WKe7vKfUeOvNSQkG+CeoIWQeEXHIlBdOY4jIyOsUnd21K5uxoMhXwbyl4y+kXIC7ThVdu5CqxtpY2TiFSBizkSamEjVyAh756QF1gKvZmYqubIBANMGJiExuCkvZ3Ge+ZgfeZWk9CMkF3Ia/uqnDHy7Pqpu1sUI28PD5RZ/1MKHsgo5MtsnLQj5EVoTKu12c1KvGr7PhfKOIZiu9YZ3zqBB/sEjikS/m0k5PeRbCTtbjC0JuLLwonD03Di6GHu1E0vHIcjD70Nzj7549zRw4QWovvIsoWY2XanBwe5kVkITD8E3ugRvn1LdD+4iFu69gpceO7TPHwK8yj04KSNYTGpnTTcX1mH23fvw2uXr8PrV27AzTtLsLy6wd12rNEsy3Y50Z34PPI4td2GV712Hs9B4Y2iHUPisKzrwvwMHD+yAKePL1bn8IlYlAt3I9GOfR+NnVW2UMe+f/XGbd73r928w/s+ivdu7vulMt1z3QA58k1g6kxXSpBZvVp18xB08BBtuTurJ8ga0klHHsOGTOJae9GR11LPkcY6wENDQ3y7dSI+CbOHjsHcsYd4G1fKJV4G0QnIkXffkTejJtyKDZvbmWJbD1OyAjnyrVEpZqV25Pcrr8jnyLObXmpHfvH4AzAaYXMxE/JBJg86WZtdDx8/8avB+NYJqrsFEv5t5MjvQ468S6Cbd+fSd6tunhD2CAr6ueOPwLmnfhIWTj/Ghb1lXBIqRPPsJZegvHUDgp49XvNbJDnG54/D8XM/AGeeeC+vgkJ0P7goW713s+udNoJwDQmSmNFAqRSyPHYdY9j9Az6ITS/CkVMPw+FDs9xlj7HvmYXGoNOOFaKEy37p2q0alx2FO/X9ziJTLkGn6Tkhv7W7634dRptgRZNrF/4aXn/xC7B+75r6rkJs+jCJvW6ATQz1wIXbzVdf5Au3pWsv1yzcBoOhmoUbHkBEEARBtI6fV4zZD405cmgaIgM5KCeuwua1F2AvcQfKe2n1p2vRh8ZcunazJjQG81lowS4nmUxGOq3XKXoutOZ9737Hz05PjE2rL12hXmhNJbOpvjiISKSrd4KslUNpDmz7ti20ZqJ/Q2sGR9iX0i56lBMX9ysUYcgULt5EBZR6dcrxnijmrYXGUGhN50JrtGAbyFZeD6HQmtag0JoW0IbWDEV53pDTiARUfW12FPDa0JjBwQCMTeBceoZXn8psJ2D5+mtKWJxngIfFmYXGdEKwyxxaI/PfhgdCra6uXlZf9jUUWtMhUOihgytceiHsEXTpMUH25Jt/hBJkuxgMwzBLlsSFG7btqcd/iH29W/7dmAY7EgRBtAkJQlfcBkU7inIMjZmfmapJQMW49noJqBgaI1z2ncIgFIfnwDc8VhMWR6ExRC9BQr7DCLH3+ot/BdcufL1G7A2HwlWxd/zcO2vEnnagwxMj+5YumdTEwu3iN/6c78jgIUMCdOkp9IYgiH4E5zFtaMypY4vw4Klj1aox6LZjfXa9aG9UMQrPZxChMSUS7UQPQ0JeIurFWWsTZPUDHWbfE90BhtKgkL/80lf5ws0oZwJ3Y0TOhAizIgiC6Ga05hMmoB5ZmIMzJ4/yeezo4XlePUZbLECLNgEVRbs2AfXOvWXusqNoJ5fdJfpgF6ibISHfDBX3wwywhCUmyF5+6SsHxJ7Vo98JualXp1wkyJ554n3V3Rivz3eg3nGYve44BrWZCYLoH7DULlbpEsYDivZma7Pn84UDtdn1VWN6MgFVQrHMT+yVFCpasw8JecnB+tV6safPtL+9sgWe0fnOHkQk2ymNXUa9nAmxG/PQw4/WOFfKdjNdd4IgOoNw2UdHhPHwo/Dggw/yHeODY5VxaMxWcpu77Ddu3+OhMZev3zoQGtPLTrvMYlnmQ8g8Lp6i3m2QCnASl51JIfbQmdAOdHjcs3coCr6xw+CdOMUrQhRhQP2viG5CnzMhKt8YgRMhueEEQbQDbWjMSICNP4nr4Eleh7HBPMxO7lfRwUR+PdrQmLv3V2pc9nvLq64noPJ/V1LhRyf2NgeVn9yHhHwPgIdfiG3Mw4cPw8mzb4bHn/rggQTZrqcNIU0yoT9ULJVMHDgKPO2NQjk819ndGIIgegp9bXZ9aMzi0RNw5rF3QmxqnpsNmMR/7cLzhjvGYqwSoTFY7rHdLrsXSCwTvUvPCXk2gPTfKo0J3O2bfwPF1D0Y9BT5NibS0gmyhFTgbsztmzdqtpsF/lCM78b4Zx6B4YlFGBqRrMY0QXQTfRQmKFz2kdBwTQLq6eNHGobG+PxBiEwfg/Gjj8HwzBm1WMMLcPXy6wdCY6SBkjaJHoQc+R4CE2SxGopRgiydINub+KHIJ2DhmJ186E1w6rGn4NijP0jtTBBEFW1ozPTkeI3LvsgEvNXa7EYJqLlCF8SwoylPxjzRg5CQ70IwlKYeRgmyAlENhWqWdx8Vg1NLc8klWH79G5C4dwny2R31XYCRSLT32pkOpSIIS6Bgr1ebPT4eq5uAiqK9UW32Xk5AJYhugoR8j6OvhlIq7m9zamuWR2eONq5ZTkJKSrA2faPdGDopmCC6G6N+q3XZW63NjlVjhMuOop1qsxNVqKiC1JCQ7xNENZSL3/icoUt/+NS5as3yYGRK/Q7RbdTbjal3UjBBEHITmz0GZ5/8AEzNH3WlNrtjVWNI9BFEWyEh34cIlx4rDeApo9n0fn4wJsiefvQdPCRj6sjZugmywg0KDPoNJw+is2h3Y7CdjWrTU4gVQcgFjquVQhYquRR4susQCVa4yz4RG+OlHWcOHaPa7ERbKEl8j1ToRKgqPae+3v3Otzy9MBtfVF+6gicYBY/P4HRVdmNVMuvqC/fwhOLg0VZWqJTY791UX1inwjopVhrYvH+TPa7zEI3Q6H7Fk5GxcR6WEZte4K8rviCMjUVhLBKGWGQEZqcnYWI8CuNsglm7c4X/e27i8Q+DJzCivlIp5dmE536hIs/gCPsyDj2q5HcA2MTrNp7AKLsGtSe54mQPpT31lTHYrtjOGH5j1M5D4TGITh6qtnMxv8d/Rkvdz1/IAOTT6isX8fjAGzJfWFYyG+z/3J94PANBNgbIF55UbQePh12nSfVdiSjuQWWP3a8MPOuiZgyTgEqR9eG97bZePxTtaIRERkeUcXVslLvrMzMz4Pcwsb23A8nl65Bcu8P7JJ6g6h8M8v8WRftevgCpbfYzqTSsrG3AKhPqIiQmm8vxM0baInj4HMT6H8MzNG48P3aQSnYLoFwwnkM6TIW1MWDfHRgC79CY+q4clHPb4MF+MRCQ7m/7wz/8w2d2dnZW1Zd9DQn5JvAMxXpCyGvB0JudxGrVucUJA0NuEHSBRmPTMD4+ASPhEAwPDUEwyDo2m4QEJOTlFfJarLQzHrWOOzEoHPYyikDXf34hQMLhYfAD+7l0Qv2Oi5CQrwsJ+dZwW8hjbXZ00aORUW5+YMLpVDzGzZDquBrYH1fFAnt68Qx32RPLt9hi/Cqkd7OwmS7AMhPuiWSKh8ygaC8yYd8xl5KEfNMUsylpxbIH+2sxJ+Xf9id/8ie/TkJeQa6RlJACDMm4duGvDRNkBfpEKXxNdBf12hlDbzBBthp6MxblCXXzM1M1sbmHZqd5XC5BdDvlsjMiGIU4hhyORUZs12Y3SkDF0JhUIQAlr3Jiano7IVdt9m5CwtNd6WRXolVIyDuIp8cOm9AnyK6urZkmSsFgWP2v+pAuT+7StjMe6JJavw/VmsvsKzZ1GBaPnYbZqTh3E4cCTIDgva75GYLodrxe+ypPiPbqIneRLXKPsUXuEbbInZmGiWgUwsPDB/sL+xKivS0JqARB9Cw9J+RTO7v9d7JrG0D3dnVlxTRRCk8W9U2dBU94Bo8aVd8luo3UxjLcfO1FuPD8p5m4f5nH1OupcQ1X12Erta1+hyC6l0aOfE1t9rkZODI/Cw+ePMZFe3WRa+CyI9hf0pkMrG4w0X7vPly6fpPXZkfRTgmo7lPCthWLKILoMciR7wUkcYTRnRqOzcLksTfB3ANvg/hcG8ob9nmpMzfjjNeXrsO1l5XQm/tLd7gAuXrzNhMht+DarTs8Rhddw1zJAzCgJOARnYaUSrNMzR+DhVNYwWm26rLPTKqhMSeOcsF+dGEepiaU0Jhw+KBhoV/k3rhzD167wvoR6y/aqjGYhNosnj4f85rBB+oCqcd2zQkCISFPOMJgfhPmx8NVdyo+OaOUN3zXTyqT43iXlzes9G8OQH4vA+srS6auoWcwDL7xE+CNHQfP8Lj6LtF+hIiXX8zLEoaIp2QLlx0d9dj0Ihw589bqOMZrs2NojIHLjqJd67IbLXIpNIYgCLchIU84Qja1Djdf/WY1cVJL9QTZt76Xu/SDAUqO7EUGh0dgZOoYzDz4LraIO9f9izeiZxCx7FhpCV12DI2JDe5Bef012L75bSgm70EpZxwiJlz21E66xmV//eoNqs2uUirRYqWX6bX8v16j51rnHW959KdPLs6dVl+6gmn5SUZld0195h4Hy0+2qexlvc+tlv4rlQqws7UKK7f3DyAKMoGHGJY3zFqvP25YOqxchErW/dKHnsEQd56NqOTZ5yzsH7bkFoblJ7FcHpYHc5l65Tc9hTTEwwOweOQ4dzXRwQyNRqu16YvlCuT3cuz2aD6cgEPlJ+sie/nJUj4HnrxSftIbdu/0aBTt1drso2GIj0dhJj7B3XUMl1HKPLKxKDrJSzsOBochs52A5ZuvQWLlNv83skUvJLfTsLK+X5sdhXxba7Pr4GV2S3vs/huS7v4rl4rgySklkKUsP4nlmdn4g2O42TjeKapjuIQlHsXfhvOObPfcpz71qf+cy2H9ZYKEfBN0XMgPs9+vXSFLJOS1ZHdTkFy/xx16rDGvPcwEa5crNZIf4O/nclk2ztavh05CXk4hj4eGpNdumC7exsanYerQCb54w7bO7Gzx79mGhHxdZBfyHiZCRR15p4R8TW12JtJ5bfaJGBftojb7oN/Pxb2efKEA2b09yJW8UBoYgQp42eXbgJ3kOuxCmIv2jtZm10FCvnlIyDdHMZPk/bbTQn5zczP50ksvvfgnf/In5//gD/7gmd///d//zzs7OyvFYgPR0CeQkG+Czgv5ia4Q8oIKez+d2oDNZeMTZPH55NxRiEzM8AnXTOiRkJdTyGtPdhWLN+Fs+gcDXMwjuHjDHRlcvKELivcBxt9bhoR8XbrpQCi7Ql647HgAGYp2dNlnJ+MwyYS72AVCl90/MHBAtGNoDJ6AigcnYYWldTURFRNSk6kdHseO3y/mdqS+fjILeU+5UB2HScjbo+p6s/FVunFF3HNtEvKin/t8Xt63IyMhXsY1l86s/OUXvvDsN7/1rWevXbv2PB4ERSJ+HxLyTYA3tMeniBM9JOTrg8JNG3qjPVkU3Xqt0EO0oTceX+DgYEJCXiohLxAhVlj5Bhdv2M7CpUfw1ErMncDQGwRPkMUFX11IyNelV0JrxGSOoTHj0QhMToxXXXasFlPPZReiPbW9A5vJFKxtbFZDYzCOvV5ojOzXT2Yhrx2H5TzZVV4hL4vrbUT1nnPhb9P2c7MQuKFgkP9cfHJi7Md+9L1P/fOf/ac/+/a3veVDqZ108OrVa99W/6m+h4R8E3iGov0p5FlHNv3cTYgodG8Tq3eq7q3WpRfHkwuhV8zvQZkJOfwbtAPAcGAAdhP3+c+4CQl5e0JeCy7e0KU3WryJvImphVPgH2afj91DpnkTJOTrIrsQxYnZB0XWl7NVIc8TUNmXNjQGq8XgcwyNwbAZI5cdwQTUvXyeu+ybiaQSz76+CQkm4NF9x+RTO6ExJORbQCvk2bWTLTlSZiFfzqZ6Xshj/x3weasi3WoInFiYZ7I53q9xN80fHJ5+8skn3/fss8+epxh5hZ4T8ju7e7mKxxt0U8z3rZCv97lbEFGWE2RHIjAxEa8ZAAa8FR6y4zYk5JsX8lrqLd6GQ6M1eRNYGrAm9IaEfF0qhSxrhx32B8onRHGCHhoKwfFTZ/lOzOjoKA+NwX6sD43Ro3XZMQFVhMagy64NjWm1YozsQr6USYCnnJdfyOvnJwmQWci3O3zFDs0Ief3ifHpygleKwr5uJQRO289X2MLcLNH8D//wD58hIa9g/0zqLiEYDEbe90Pv/OhTb3v0Q+dOL55T33YEb/SI6WBQWnvNdTHhnThVI6hR8JTXX1dfuUfdz71+iQ2UBfVV62CJShF6IdxbI7LpJFz+7lfVV+6BLpNZOEA5vdqeBdzoPHjZYkpLOXVXGWxdBk/sNRPR5d0NqKSX1Vf2iU0t8EN48EsPLuwwWRpDdMDrB19cWZ/jJDDoH4AQmxjwMRgMwM0LX4NSwf2wSU9wDLyRQ+oreVDa4T77A73gm3xIfbf9cNHO2mNn7RZUilm+AI+zfhwZn1Z/whyczDEBFcV5LrfHE1LzbPJuR1nH8u66ch93+PqZUUreAmALd08wKt39h4vIcuIqf+6dOG1q+HSK0uYVgEKOjWNTjiVaO0VpS21XNrbL1q71/jajMXgoYHyysR4n+vkHP/jBxa2tLcUR6nN6TsijgD+8sHDuzY8//tSj5x45d+L4kcU3nX3gXGrjviIGHICE/EGcFvJawpEJLvLQlT8wAOT3ILN5B3gyk4uQkHdPyAt8Pj9vY0x6xtAqPdiHITDKt2Bx4tBPGHiGga3k2SYhIa8gJnJ0yGJjEfCzdgkPD9W0S2LlFm+31OYyX5xj+8bnT/B+jBM3TuDYlwvsMc0eO1mHXXYhX0jcAG8hTUK+CfLrl8GHzjIJeVtMj0cgn1rmjrh/bJ6LdlykB5lgNxqDjcAQuBLTKGLOdqqfk5Dfp+eE/D/7yE//7j/7x3//aXRzw2Nx9d19cEsfv7CKSrOQkD+Im0Je0EhAlbNbSqgJfjkMCXn3hbyWoVCE78ig8LMCCsPL3/kSCXmXhLzefcOt8XDI+MRTPdg26Z0U3LnyfShllXvVP3Ouo6LdCBLyzdMVjjxWhgmRkG9EpVSA8MgoP/EYw2PQOLGCWJzvZjL8Mbe3x0W8W/38Ax/4wGIymSQhz2g8CncZb370oQ8dmx07Vy+JEgVCo1KH9agbK84mA/b/yguX6LUYeauYxSZjO2Ly61hsEqKT8zA+s8iEhg920ztsperM30Qx8s7EyFulWNgzzZvACUMbS8mTHDcSUNhedf0eROROdm09Rt5KbXZ05LDf6RG12UUC6vpmgrdNcifDJvRSdZGNC2PZqN7H3gF2/Q6aQB0HY9DLBYqRbwJutLCxgY+hbCyXCacSSu0i5k1cmPP49QDrz+kVyK0rC8ZhNgaMRo37gXYMXt/cqvZzjGfHRPN2HJz2u7/7ux+nEpQKPenIf/j9P/C0+rJKvThcFPxr929BbsdaeIZsjjxSWr2oPnMPGR15dILG/HnTtsV23U0s8639ViBHvr2OvBGDwxHwTxzn1UiMqORSUMZr4cKOjJZeceSFyy5iW+3GuGpdNyvuW5kJvcr2Pf7cN/Uwf5SJqiPPczEeUN+Vh1LiOjcMyJG3T2n9DdbAbBHExzG5FmntcORFXxc7auIR67XryecyXBNhSFw2neKmZ2zuBD84DUNjcKGOIr3TvOc97xmjZFeFnnTkHzp5+EByq/agGlwjDmgOqkGXfmJmkSdWIo1ceukceUZbhKSMjny5CJmNm6aHEIVGlDKW0ZmjXOBUSkXu9tqFHPn2OvJGlEplKAdqFzJa8P7wMpGN9ymHtbUb92Q3OvLCfWt3bXYtmPgqFlmyhTcg1fuYV0eSz5GvZNm8RI58U4j5SRnHetuRxz48PBRUd9QivD77/o7aMP8e7lh7vbU+rujn2b0CFDwBqLAF497OJuylsWrMLmRKA/z7soTEfepTn/rP5Mgr9I2QF4hShxtL101LHZodSCQgIX+QSg4nGXdX6WZCXkwg9Q4hGhgYgNHoJEzMHoXgyDhPzLMTVkVCvvNCXhFY5uUnhVgdi7DF28QMzCyeZo/TUCxXYC/jnEsvq5CfmJqFmbnD7PN6YDDEroEmNKbZ2uy4Zb68ttF0bXYtJORbQ2YhXyrmwYNzAIOEvD2qZUVtCnkmYrkoF6egxsZGYW46DlPxcd73MfG8canHNCTZAh3LPK5ubLHFeUpdnCuuu7LIYPec0anqHYaE/D59J+S15FSXHsvbVdgqE4Ufni6K6A8kKuCBROyGRrigYpO5FiEiCtsr7JXLQp6tlPUn53VcyPP4zc4KeS3aQ4hwkvGyiUWUsQwOhywt2LSQkO8CIb99G8YjIxCfnIJwKMwnMGzzaHyu2talYqHlhFhZhDwmuQObx/BsBTwZcXQkDKHwKPu8M+pE3nptdhTtTkFCvjVkFvKeClvckSPfFFikgQt5Nr+YiWWhLyKsn4+NsjFuPArz05PcZccFOgp67OtGi3Ps6xkmzLdYv1YW51tV0a7Es++ZLs75PUdCXnr6WsgL8Gj43dQGP1gInVyc7EWCbM2BRGMT/HtFzyATg2G+TR3TbVOv373K/z038QzFSMgLTIS8FnTeMfk5uXGfbwsO65KfxzQLtlwmbdh+JOTlF/LF7WXYSSzD2t0rB3bbEJHoLtp6O5lgE5/9NKFOCHmcoPe3y9nniITBu7cFheQSbK9ehwFPmQt27ecVKBN57kACajsT0xAS8q1RFfJ1BF+n6ApHno39eN1kE/KRcBCK2R2o+Ni4wv4+7OsD7GuCifWDoTGYbB40DIMTi/P9U1CTbHG+AWtMuOsX51b7Ogn57qBvkl2bITq1wCd+ozKWZlz8xp+DcO7dwhs7fkDQdTzZdfOq64LSMNm1lIfyxmX1lXWwbeslP2Oiz7YmQZaSXTuf7Ko9EMoIs4Tr+Nwx3o9RyOtpJhnazWRXnJyVJDQfd+DCoZBamx0nbRyuD07A6eQGv1/Xl67x1/G54zAwNi9VYhoie7JrYWcNvJkV9T6TONmVCWXvyMFxq5NU2AKovHWDP5c22RUF6Yhcya7oos9MxXkfxxKt3oFBJtRr53YjULQrpR6zvFIUhrw1SjZvBn7P5dV7blSue46SXffpOUf+9IljT73poeNPqC9bAkNvtlbv8EkSQ2+0ZSy1YKdCVyuZ2uanGRpNtk5CjrwG3NJt4jAoEVZllCArwqri88e4s4S7MCUY4IsYHHi1x0/jox8KfEfHbTx+3BWodcXJkd/HLOEad2Rwt82oHw+PKDsy2NYDg0Eo5nMNk6GdcuRRtOu3y2fi49x5w/tqNBxSt8sP+i3CfcMY10yePYcAlCoeKLP7IZNOQtYzwr8vS2IaIrsj7yl2iSMvoTsKpbySJ8WQOrSmQ4686Os+KEIhtQyevS2Ij4Xh8OIx7q4jg4Egz93So+yo1Q+NcWtHrerI8+tmbOJ1it/8zd/839WnfU/POfJ//+/+rU/8zIff+1H1peOgkzsyuQi5QsWw5FopccP1MAty5Pdp1pE3IhSZ4CFURi59dneHx1gbleZbufUGrN5+Q33lHkauODny+9gpgarsyMwYtzUTwomVOzwh3ohmHHlcQISZMMdDVlCc4+SN9dqtlHoso1Gwl6+ejGh2nHnVUZb0QCNy5FuDHPnmaacjL3bVsK8bnYKKYX84vtSUd+Rn28xyPVFi/Vr09U7vqOXXr4GvlGHjv3wHab3zne/sOf3aLD3nyD/84On3OeXIG4FO7s5eBbKsbxmtgjH0AZ1rTiGrPDpMxxx5gyRfQbc58kYU1ARZFOUY84mJzyL5GR17fUwigqIqvZ2ATDsceQNXnBz5fcwceSOUHZklPqHijos20R0fR2NTpsnQ9Rx54byFw8MwFhlVXPbJCZieinOXHSd33NHBKkr6+0m47Fk1xnUjkYRlGzGu+45yawdCuYXsjnwZQwgK5Mg3hdaRD02xW/DgWNlJ3HLkcbNsmPVpZYdWiWdXKkRFTCtE4c7v0EgMwhPzAGxc3Vq5BcnVO7C6tg5b2UpNX+/0jhpW1PFW2D2HeRmSOfK/+7u/+wvq076HHPkm8EYWGm6tY8fFThwoZ2AvvVkTb90qHXPk63zudjjywBYSvrHD6gsFJx15I4KhiJIgOXNEjUnM8AWcdjemXY40OfLOOfJG4I4MumO4K6Nn30Vbhr0SE8qRQ7yPC+fNy8Tz6OhIjfNWD22Ma4EtBvHRyGW3Q/VAI3Lkm4Ic+eapceTjD0oXWpNffR18lWLTjrzo67iTxnfV+OFpg7b7Ojrsyq7afl+XOQ69tHGFz+vkyMsNCfkmqCdow748TM0uwFCo1jFBIYBlLlEMtJoMS0J+H7eFvMAzPF538sQSYtwdVx1HNyAh766Q11Iv9CadSoAvoLhtVhALPj6Rs+co3M1Op20FCq1pDSVpfVW9z0jI26GXhLx2gS6Eu9UFugh7w74uwuAa9XUS8s1BQn4fufa/eoDUyg248tKX4NqFr/MYOAHWs547/gicffIDcOjUYzA6PqN+h+gFMKQKFxne+BkYGJ0Gn0kYStdSca6eeDeASe63Xvs2vP7iX/EFOIZaCcKRmKGIR+cNhboSErMON+8swetXbsD1W3f587WNBOykd10R8YiviVKaBNEP+DzqTpdugYGiHYX65EQMFuam4fjiITh97DCcOLLAQ2QmYmO8r+tFvOjrqZ00P3/hBuvfr7G+fvn67Wpfx4OV3OrrBKFFrmWzA7gdI4+gK20aK67G4ol4a/PDpub5Fr6HDSS8Nn2DShlaDGPk8fe6fhBVnc/dhhh5GAjwI/hrcDBGvh714lJxV2BqUomLjOOZArOHYHrhBD93ANvdzgmy9ehsjHydOvpdGCNvFdw929lag7W7V3mZR3FasIhnx6oxGM+OE/faxhYk2lBJwoz9OugUI98M1fMgKEbePjUx8pPSxcg/dO6t/OwXTMIdi47zsXrOgVNQUci32tdlrgzD51Y2r8sWI18qleH8+fMUI69CjrzLoBDA5Mkr3/0qd+nX711l7yodHkUBJtSdevzdcOyRJyEUnebvE91FJbcNq5e+BZnNu0xUZ6vuDZ4/MHf8YXjkXT8Bh069icdgE90LlhhFl/6Vb38N3rh6kzvtK2sbPDkNnbeOJ6aV27doIAhZwROPK4UsePZSMD05AUcW5sDLxuTo9GE4fPQEd9/xFGR8D3uM9gtFezqT5Qem3b63DFdv3oFL12/DNdbXl1lfR/HudF8vlajf2iWZ3HI/nrSLICHfRlAI3L9+EV5+/s/gzqXv8lNkBSj6jj/8Ni76Zo+d5UmWRPegLNgusQXb1+DyS1/lOzFaMGH2+Ll3wgNv/RGYmDumvksQzkGhNb0NLdQOgu45OukiNObY4iE4fngWYkNlKCZvw9LFr8LmnddqwlwF6KRjLDvupqFoxzC419kCXR8a0+kFOkE0oudCa44eWXjiiUcfeEp96Q64BaZLNhVY3d4Xh01h8iuiPaQGn0/MHuHJdpg0pA/N4CEuujq9lV1cFLg70FNojUlojS60BMOkMBwDhX0+x77HEEfnY+mxeqUN60GhNe0PrTGiXvnJTlLcE+UTKbSmGWQPrQEMXenj0Jraw/giMDU5zh33GHuOce74PQyNwVLBo7Hp6hib3t6C9duX2Vx7GwqeAGwk07ysK4bBiVKP+XyhrWFwNWTZuCVh+ApSDa3B0tMdOEjLjGw2m/ujP/qj/6K+7HvIke8wGEuvdem1zgHG0tcLzRBuBNar9UpWJYBQqJc0iS79kYeegIfe8X6YOny6uV0YaneC6Av6xZGvzmuhoWpozAMnjsDxIwv8uQiNESeiahFJqMJlT2Q9kA/O4D8KhVwGNtaWuXAnl53oJUjIS4Re9GnRhmbE45N8C/HUMfYeG9wOz0tQAcdDgrIeYsH26jf/4sCCDV16ba4Ehd4QzVANraG+2JNUK69ISLOLDCHaefLpjG5eOzTHq8ag225U+lEfGnP5+q1q7gq+JypEkWhvHgrn6g5IyEtIPZcey1hOz8walsQiugOxYLv4jc/Byq03IJvez9vpygRZ2hWQApp0CZnxq7XZtfHsZ04e5aJ9Rj35uF6px63Udt2yrlg5hnAWmRePxD4k5J3GYVGjd+nxYClEDG5Ys/re8ipUAqPsdx/caiTkRZsge+3CXzdMkBWHlGgnwjE2+REEQXSS0bFxPkZ5fX4mxBWXfZiJcm1ozKljizWhMVbOYrh28w6vzY6ifWl5jVeNodAYgqiFhHyXIFz6N779Rbh06dKB8nd40h+eepkfmuUnoBLdRb2KRsphYg/D6YcfPzAR+rzUhQkFqlpDtBsRGjM6Olo98PDUccVlP7p4qG5oDIp2bWiMVrTjvOZkqUfareotytSeNZAK6EIK+YNVSsSAOn/4KMydfAyOPfae5hMoiY6CuzDXX/6GYa6EFpwIyxUSb4QCiZU+oUM5EDjHoCgfHwtD2JeH0uYV8CSvQ8Sf54JdYBYas72D1WL2Q2PQjNKGxlA8O2GV3V1NPCpBQr5XGNhd4gMqxhrioBoOhx1PoKy0obSfbXo4se9ArkRyq+peiYkwVRoCb/QIeIbH1f+KIIiW6POcj2KxyE0hFO2xsVEexoehMRjPjjuCM9PTsHjiDDzw2LtgNDbJzYaXn/80G6Ne4vlc2tAYFOrCZb+ztNKx0Bjl6Cc2Xcg8X0h2Gi7RPdCd0yNkdxKmoRl0wmj3gy797euXq+6VdiLE2sMYWuWfeQSG40dhaGT/TAKif+ia0BoSLNKgrRoj4tnPPnCiWupxdnqSh/EZhcb4/EEYmz0JE8ffAgOjM2o+14s1oTEUz94Y2kkjWoVG1B6kXmiGSKA8eu4pKnPYA3iLWT4Bi7JtJ848Aiff9C46QbYPIUFA1EOIdm2yvCj1KHZyzeLZ0WXXxrOLUo8iNKbsqT2gkOgxqDKZ1JCQb4ZySX0iN/XKWI5EojUu/ei4BLXoCdsUs1uwdPFrsH7rVb4rIxAJstS+hCxQglr7EKExQrSfZIJdlHqsSZY3iWfXhsZQqUd3oRKPRKv0nJBP72b7MwmiQeyfvoyl0QmjwsUtliQdWLpkAdUJGu3CiPaNzhwFr39I/Q7RS/g8cgtlL1XVaQnf4LD6bB/hsrdyCqooYWxUNYZCY/qbUokW390AOfJ9Rr0TRoWL+9i7/za5uF1Ko8PEFk4+Amff/j46QZYguoxjZ98GJx97N0zNHrJ9Cmq+UDhQ6lFfwpiqxhB6aLegOyAh34045EwLl16cMCoOm0L0Lq4/oLhBwgEai4zUOEA4gRByod2F0bcvJUAT7YZCa6xTKeWhkk+DJ5eAeGSIi3YMhRkKjzEhv2D7FNQr12/XhMagaCeIbqVAY0kNJOSJ6gmjeNgUnjBq5OKeeeK9cOLk6aoDND8zVdcBIuQBXXpt+5olQFOCLOEmFFpzEGGM6E9BPfvgGZibjEIAcrBy5duwdOnbB/qtPp6dTkEl+oXMzjbVkddAQt5puryuOZ4wii4uhmYsXXsFsppzF4ZCI6YOEE0W3YGVE2StJsgKEUK7MYQV+t2RF/1FlHo8NDtVNUaMTkFVFtg/wBbY74XB4RHWb19h/fbTcP3yRVdPQSUIorsgIU+YsrF0Ha5892tw+aWvKgmyGgdIf6Q2vt+3dGlpLqsJsujSh0YiXGSIKhiL8zPVKhjRyIj6XxEEgaBo1/YXo1KPkVFzY6Qmnv3OKmyXWR8bCPKf2d3Zlk60U+lTgugcJOSJhuR2U9zFfe2V71UdIP2R2r7YUfCMzgP4Q/x1z9HDFXMaJciiS3/s1EM1VTDC4R5tZ8I1ZA+tKTUpjMWulNEpqHZLPQpjRBvPLsZYmcWyzIeRlWStwkYQDkFCnnAM71CUC3rvxCkYis6q7xLdhL5MqTZBVguKEOEabqV21HcJwhzZQ2t83vrToT40RsSzo8uOz+udgipEu7ZqjD40BvtTPZddarEs8yLDJ7fMqZZ4lHhn19PlIcO9Dgl5whEGoFid3M6cPgUnH34rHUbUxQiXXiTIJjbWaqpgaE91zOzR4TBEY7wgtzMaiR+qJnsL0R5hwtypU1BRtAuXvZnQGJnFslfiMoUV3E0VayAJxbLPRws0ojVIyBOOsJdkou7KtyGTWIJSIae+ezDWuuIZUL9D2KbSmfAeTJC9d+uqqWvoGQyDb+qsEloVGFXf7QB0jDjRBCI0JhqLwdzxR+CRd/xYNf/jEBPxjUJj9KUe9aExBYdOQfVJvhAimkTisE3ZD5kjFHpOyDOh4X5Zog4Jqo7TYMDRurhmsdbnfuAD5NL3KAOhcQhNnYCRhXMQnTlSPXuAIGRAuOx4Cmo8FoGh8jaU1l4FSN2CsDfLBbsZ2nh2/SmoVOpRg4e8QcJ9ikVaYGjpOQvr0NzsuR9+x5s+pL50Bc9giLuQRlSyW0zwFtRX7uAJRsCjVjAQVDIbuIeovnIHz+AI+zIWZ5Vcis12+5VrMEE2ub4E6/eu861N34Af/IPK34yHmkQn5yE+f4yN+z4oFQtQLFioeuMb5HH4NVQq7LPvl1B0C7zeeN2NqBRzAHvb6iv3MLrvKvkdtoLKqq/co9497y3vQTTkh8OHF2EiFoVoNAqR8WnWvschPDbB23cvm1Z/ugU8PvCGzA+uqmQTrO+5H+ZT717oJJX8LrsX2Be/TnH1XXmoFDIAeXYfeDzs75tU33UHFO2BQT9ERsMQHh7i4TBTEzF+f45FRiEcCkEsPgOxqUOQzynnLKzeVg9NY9ePjVj8tFMU7hubW7CytglbyW1I72Z4WEyRCfsKG3vaiRjjsR+a9cVOUSmyMQjHwDa0rW00c4SHzR8eNo/IRGV3Df+fjSmj4PHLVcq3kl7lj57g2AHN0Qk2NzeTV69evfTZz37m/I0bN76tvt33kJBvAimFfA5/r7sixo6QF1TYxIOhGZvLtyCd3OCiLjQa49/zMhGPJ4xOzB7hgg/FfmaHfQ4zSMgfuO9kEPKl3A7srl6FrdW7/LV/MMDaUpkscScGF23Tiw/w9s3lcuw2bbJUKQn5uvSrkPf7B3joC552iomoE+NRGB+L8IoxI+EQE+3D4B8Y4OJeC7rsxTLAwFAEBiOzkNvdhkxyFZKJdUgVBrnDns8XuGiXARLyTSLmCA/7Hwl5W3RSyGN/HR4KYqhu8k8//ewfffzjH3/6U5/61Mc/+9nP/gqJ+FpIyDeBlEK+DSKmGSGvBUNvdrbWuPuFgh4Fn3DpUfCNxqbqCz4S8gfuOxmEvPj8eEIwti+eP4CLNmzH4PCI+lPAF3DxuaMQmZjhOzF1F21GkJCvS68LeeGyDzLhPh6LQpwJ9pnJCfYY4yIe49wDgUEu2gcGDsaz7zFRntpOsy/FaV9Z34TEVgpSO2keNlPm14/9jV4m+ofH1f9SHqpCPsAEH+uPMkGOfPOQkFfyVLDvisX47HQcpuLj/HV8YiL4rne+49zf/Ts/+dOFfGEstb2d29zcvK3+pwSDhHwT1BU1OJg1ELQtE2CCWtfhu0HIa0ERhy59amOZh94Ilx4xFXwGQh5LspXTOBC6Cwn5xkJeCy7aMLTKaNGGj2LRNhhU7idLoTck5OvSS0JeGxqDByfhoWOzvFpMFKJjEe7UDfr9B1x2RMSza0Nj1ja2uGjH0Bj8Hiag6kNjlL7UBUKej8Mk5C2DQn6XhHwzOC3kRb8Oh4d5iJtYjPN+rVmMG/Vrr28g+OQ73v7E3/k7f/vpaDR27utf//ofq9/qe3pOyN9bWn753loqOTo6Mj09MTatvu0odUWNTUHbDNyR6XIhL8DYeOHSY6wqurjoziN6wYeJZIGw4r6JLXRcta/ducx/3k1IyNsT8lrqLdpEvkRseoG/LuT3uLNvCAn5usgu5P0+D5QyrI10Yg8nbRTmNf1ajWfH0Bj8XjAQMJzcUZRj+IsQ7fdX1mGdCXd8rQ2NsRLPTkK+eUjIN09XCHnWH+xeNyHajRbjmFhuthgXu2fZbA4SyRTv18urG3whLvr10v37K1/96ld/T/1P+h55C5g6wPGjR971xGMPf+hnPvzej6pvOYKHDVTe8JT6qpZS8rbrog7L/Omd6dLmVaaKmaByEU94xlRIOfm5sdoJJsJisqQV8ERSt0FHwhs5pL6qpZzdgsr2PfWVexjdd+Wd+2yC31RfuUe9e76Zzx+dWuA7LpGJgweHpZNMjN27Dtuby+o7Kl4/+OKn1RcHaUcfQOrdC52kzCbdyi6bePl1ekB9Vx5QpGPS6frSTSj4lNh1s1rsenByzxeKfBIvFAo84ZSHwzhYJUbpS0wss4Wab/yk+q48lNbfYH9kQR2H5Vqoldkimo8BHi/4Jh9S35WDYpFdsw127RhePIHcxJDoFKXVV5liZgu0CM7r+yaHDJRWXuGPja4binEMeUOBjmEyfibQ8XWjvt1sv/7a888/93/+m3/zg+rLvqfnHPno2Njht771LR/68R/70ad/6sM/9dP/4B/+w/cdO/NYEB3dbGYXmk6000CO/EGc/Nwi1lq49Ig21logttAT96+p77gHOfLNO/JGiKpGiZU7/HVwOMwmA2U40ifIokvPqxoZOPLa2Mrs1jJUzNx8ByFHvjH8EB421lZySQgF/TB/iC3cRrGNvRAaVZx2sy104chhPDs6cliP3UpoTKuQI988Mjvy6FbK7MgXd1YBD+1Fc86J8BWnKJXK4C+nmaxgCyHNdTNKLkenPcaea/NUzJx2J/r13Tt3bpEjv0/POfJve8tj/+j/+rf/r/Nmjm42neTiARPymoUc+YO4/bm5S3/oJFQCEd7hcQUvVu2VUp5PcpUc+/0uJRqTI++sI28Eni2AITZGLj3vt2tLXCSg24MTCYp4reNz+aWv8gWC25AjX4tw4wKDg1ysCzcuu5OA9XvX+M6K1+fn4zHuwmA4lSBfKPDJG/uzMpErrlwnIEe+eciRb5788kV+8JJ37LBUBgEK9lPHFvkOaa5QgaHQyIEx1wwU7diP3erX5MjX0nOOPCa7/uATZz9k5ujq464xEQ8T8+xAjvxB3P7c3KXfTkIWhnncq3bVjgmxnsAIX2QMBEch4PdC0WabNkJaRx4dRHRhXcZpR94ITHgVCbIIuvE1CbLRyWrMtFFs5eb9m9bOI2iRfnbk9dUlpibHYXpygrtxKOK1bpyys3KIj7Ve3yAkVm7xfJbtxCpsF/w87hXjX/Xx7J2CHPnmkdqRr5SUa4fPhydY9/Dz59KAi2+GUwmlzYD9tZzP8B00PxRgZmYaZqanqv14OBQyHHMRFOpW8lSc5LVXX73wzW9+k5JdVXpOyMei0cUffeotP62+PLCFr61xjc5QbPpwNdHOajk8EvIHacfnNptgR4JemJ6aUpLk2GN8dhGiM0e5c4ALNSfEnbRCXog3l2mHkNdidvaAQGzTioSoRHKbQmscFPI4YVupLmHkzmm30LHU4+r6JuzkyqwfsrbJp3l/LA7GHA+NaZWqkPcFpItVRmQW8iUmAj14/aRMdtUKeUzalEvIt7tWu+jbPAl1JMQW4xM8uXx6epof7lfYTcDG7Tdgd3uzZuwV/RrDYJKpbcMkVL3J5hZXrly5REJ+n54T8lOT8dNaIS/Q1rjWu/Qo7O249B4/m8gDB2O2kX4V8rDHBnGXQ3vMhHx26RU2/26DF8r8YClkYGDA3mFTDSAh314hL9CePZDP70Gm6OMTiL4GOE4gZfw72pEv0GNCXjux609BrVddAsHJHa+/cOOMSj2KqjHtPNm1GfaFPJa5JSFvhzLrdyTkm8NNIY99FvuvaUUo1t+18ewo2tHcjMTnIb2dgs17V2H11huwU/DBWmKH9+ud9K4aLuN8nopVSMjX0jdCXkurLr3HP0xCXgevn98hIY/lu2oEn66MJT62HE5FQv7A7xa06/PnMruQ846YTiA8vArj+JmQ5X3Bpf7QzUK+lVNQ0Y3DBdMmE+y4A2K31CMJ+daQWcjz+07Wtu0TIS/C3kZYH8YdNO2hSo2SUPWL8c1kGvIVfzVJuORnY79XnutGQr6WvhTygnonUepdekQcWmMk5LFzoKtVziYVYeMiJORrUerw7oMLta3VO9WFmr5ueVPhVCTkD/xuQbs+vyJQzevIC4KeMox4PTC1twah/BbsDBj/3c0iq5CPxsb5hJ1Jp2BgZIqPR0NDQYgxoY4TuxOnoOJkL3ZA7LpxJORbQ2YhX21bHKMlS8TtNSEvtMZQcBBi0bEDYW/1KkJhcjkmnQrRjmFvq+sJ48U4+5K12g8J+Vr6WshrQYcWXXqsX42l07SJdvpDa/L5PARHYkqM2egI70jTbOWLHWl3a9XaKZUtYCjkcSfApYotAr6AMRNzEgl5Qb0ylvUWakaQkJdfyJ98+U/g+PqLcGj7DZjavgZje5sQK27DYm4ZgmWlYkLW1/rWtWxCXkzssVgM4jMLMH34FBPvo3w8GmPjU6PQGBTtW0kl5tXqKajNQEK+NbpCyNsM62oLXSzkRd82CnvD3BWzvi36tf5QJXzUiva69dq1Ql6yJGES8rWQkNdRYQOlNtHOyKWfnF3gVRqMKmgk1+51Rshnt9wX8vXEnIRCXos+nKre6aK5TJrfB1pIyMsv5Kdf/TL479+GMhOgbCZj98p+HwmXsjBZ2ILpvFKqM8MEfcVzUNhaoZNC3lfKw2huHca3b0Ixm2BjzRYEKhmYnIxDJLrfN4xEu3DS9W4cingroTGtQkK+NYrpdZ4HRELeJpIL+fn5ef5Y9PhhYHBYCXcziGdvFPZmtIMmcoiaWYyX2b8Lkl43EvK1kJCvg3DpjcrhadF2pN3kGtOz7gorjx9FVW2ICwl5a1hx6acWTh4MpzIQb8ItGagU2PzffCKtVUjI1xfykze+DYN7rL1w0kpnoLS2ya4P6xM+H/vblUlogE3q6NIv7K027dK3S8iHcgkYzqdgfPMSzKcuwfHVF+Dw5gW+2xDNLMNsZgnG8lus76XhbmKL3dNvsHt6F3z+ILBlTMPqEk6eimoFEvKtUdolId8UEgp5bRnXickZXqZ1cmqGi3erhyphfoqrO2g4Pkgq5C8xvvWtb5GQVyEhb5GacngVD+zulQ64WtiRCntZZUBzEaNYdRLy9mmU9CxcelzA5YslCITGquFUmEQk3JIBT5n/O27TUSFfr1KTbEJeQ4VNbGXWN0tsokOMXPr5vTUukIrs3y9YSOhyWsijy46CPb59EyZ2bsKhzYtwdO1vYC75uiLa2d+H3/cyQaInwK59LJuAw4lbkIMB2CiWYWttCZKFQSmqS2ghId8iGQzBqLAxgIS8LToo5IXZgwekjbO5YrDCFtEbNyG3cQuGAz4u2oWRpAdFO/ZfsYOGon1lbbOqNdzeQautvy+XkP/ud7/74ksvvfQZ9WXfQ0LeJujSp7N5yJQGDF0tFNiYGMIpFdkg4rzrRUK+lmaFvKBR0jOWsYxPM1GvCafSuiV7mZ0+EPJ1KjVJLOSrsH5a49IzPIEAf/QycTRWTMNsfgPC7HMMekp1E2RbEfJCtEe3rsJC8jWYT1zkLjuK9mhmiYfNBNnfYiTaK2wxibsNkMlBZSfDvyDFPu8uXv88pIMjkAoxASqjmGKQkG8NZZwjIW+bNglSIdqNcueiYxE+b4xEYoCnzofHJviO8P1rF/npx8U868MDQ5BifRpFezsOVWqIxEL+4sWLF0jI79NckKjEZDLZpPq0Y2B290BkHkLzD0P00Bl+9DzRHeDOy63Xvg0vP/9nsHLrDcimjW8n4ZbgoLu9476QJpwDHfrinfuQf/0qE/YbUM7uL0AnKrtwPHsP3pX8LpzK3OLCvlkwNCaSWYGFjQvwwNJX4ey1T8Pbrv1PePT2Z+Fk4nswnr7D/v0EDKghPgLc0sbFRiWLuwk7UF7fgvLSOlRW2CJkPQmVbXa/5dh/g6KeIIi2g6Idw2Mwln1hbhqOLR6CU8cOw/EjCzwhdSI2xt12/YFpYt4oeALgHZmFkcXHoVwswMa963D71k1Y20jwnbR2h70R3U3POfJ4susH3/OOp9WXrlDPnRwo7sD0ZBzmZmf4SjwSneAhGqPxQ+D3D0I2s8sm6tYmYHLka2nVkTfDLJxKH5eYy+XY9U+o/5V7kCPfgiNvRAWrMmShzNrRLEF2tpg4kCCrd+SFyz6Sug3T6RsHQmMi2RX+/WDl4PkSPA6Vu+x77B5SnHZIsfZkfxcwIQ959r2StUkd3fiucOSxH0v49xWzKfCwNidH3j4yO/J4bognq/ThZpxl7KOYaKo9e2GWiXWxQ2slnl2ccCzmDRH2hhXwZC3xSI5890BCvgnqiZrizhqklq/C9uYKGwBK1eoo/kElRGPq0HG+rYaDS7PVbUjI16IMNu7FAPPDpnDgLQeqW5zauEQc4PhBRDgIszZ3qx36Xsgz6oVk2BbyWjCO3GqCLBMrsfwWD485svn9amhMPHOvfmgMinb8t7WhMeiuo2jfY/+uDdFuRNcIeUn/Pk+B/W3dEFqDZQp1Vcs6jcxtWy4V94V8eBI8XmPZUywWefgLCvPx6BiMMpE+PzsF00y0689e0GMUz252wnEN3EwgIW8XEvK19FxojSxgIuX96xd5iMadS9+FdFLprAgK+iMPPQGnn/gxmDp8GoIh9ytgEO7jZQNxcOokjCycg+jMEfVdotvgoTc370L+8nUobdTutKA7/2DyFTi6/jewsHPFMDQG4aExTJxjGEx5I6mExtzfOBga41KiGmGfUguLKEJeMNE0GK6dY7WhMdOTE3BkYQ7OPnCCh8bgcwyNQcddHxqDoCjHuHUMg7l9bxkuX78Fb1y9CTfvLFVDY/DQJQqPIdoFCflmQNfVBnjK6PWXvwGvv/hXPLFFEAgE+IFEpx5/Nxx75EkIjE6p3yG6CW95D2LDHnjgxBE4dWwRjh45Agsnz8Ej7/oJOHTqTZQj0a0woV1aWYf8q5ehyCbs8vaO+o19qvHsO5naePa1rVrRToJdenweaqNmKZXlvXZYSvjU4z8Ei2efhJnpKdvx7Ns7aVheXedC/fUrN+D6rbs1oh2rQvU8JrsYnYKG01pIyLcRDNGo59KffvTtXPzNHjtLLn0XUcrnYP3mK3D5O1/mC7VScd+hjU0f5rsvD7z1R2Bi7hj4A7UhUUR3UE2QRZd+k4l1dNlXE1BZ3lREO1aPSWOITIFmGaLv8Hk96rPOgk57JZ+GcnoVBgtbMDsxwh12JDI+CRPj4zAUDJiKdgyLEaL98vXbXLTfWVqBza0Ud+HJZZcDjxy3mzSQkO8QZi49Ep8/XnXpUfwRKjZ3QtqNWKi9+s2/4Au11MZ99TvoCoVg7vjDcOaJ98LMiUfJpe9WCkUobyYpNKYJZHZtidboRNtiaAw66ZMTMV455uSxw3Dm5FE4+/A5flqqt5SFu69+E25e/GbNHKsV7feWV+HazTtV0b6ytkGiXUXmULN02qScXJ9CQr7D6F16rfhDlx7FnwjR8A+Nqt/ZR8T6dRzJtt46DS7UsIwlLtSwjCWeuCmYnF3kLv1D73g/5UgQfYMsri3hPG6GJYk5biwyUo1nxzBGEc+OQn50JAyD/v1kTNwJPX7uB+Dkm98DZRiA+9degZef+zRcu3GTx7ML0Y7JqZ2MZy9JvFigULPugYS807QgaLXiT+/S48B05i0/BCcf+0GYmpmFeGysJtZvdPSgyCc6Dy7UVm9fgje+/UW4duGvaxZqeNiUNkei4e6LQSUUgugWyJEnGqFPQj00O1Wd4+Znpkzj2RF9EiqPZ7+7Cnu+/Wpb2WxWfSYhHjLDiOYgIS8h9Vz6ofAYTM0uwBQb5Ixi/Qh50R42tXTtlZrDpvS7L6GIeb102fB4aBghCIJhw8hC0T7A5i8RGmOUhIonpFqJZzdKQu2G0BhyvQkn6LkZOJPN9lTslN6l1yZS4oAmHIi98sHato5DjrBjbCxdhyvf/Rpcfumrhrsvx8+9E46ee6quS48Toc9HIproDii0pjW6eUfD7x+oiWdfnJ/h8eynTxyphsZYSUKleHaCOAipgC5Bm0h5/fKrB2rXFgfHwDd1Fjyj82zUlOvUP8KceucNjESiNS796NhEdctZuFd4cAlBdAMUWtMaMi+EYtMLMHX4AQiPxnhoDJ54qo1nx7K82nj2MPu+Hq0xhaExRqK9mXh2mePQCcIJSMh3Ibs7KcPatejQDo9NweSxR2HuzDuo4k2XUa+SEbr0iyfOVLecKayKIPoL2RZCeHK5iGePxiZ4vs+xs0/w0JjD8zO24tndPFTJx+ZForcokylQA93hPUKgvAvTkcH9+ML4ZK2bS+UOu4Z6ORICseWcK9CARnQHFA/cvdQkocajEPakobzxBuRXXwdPdoMfimeEGKc6eagSOfIOQIm4UtNzrTMyEp7+2z/2rp9VX7qDbxC8QeOQhkp+hykxdzPjPYMh9hVWXynkU8uwvXoTEit3+Gv/YIBXRUEwQTY6Oc+3P5HMzhZ/tIvHPwyewH4FAC3t+Nw4mHhDB5NAK7sYjuKySBgImLY5FPegspdSXzgLht4k15d4uxbKHkjs7MHG5habALcgsZWCfMUHnqEoFEsV8Fawrrk7k1a9tnfz89fg8bD2n1RfHGTyxrdhcC+tvnIPj4/dh34JSr7qSIVi/EvpJ3H1XXmo5HfZGMG+ZP379rbZvZxjg+eQeV/vIKX0GmB0jScwyvrjkPqu8/Cd3aEgRCOjXLhPjEdhfCzCw2IwZGZ4eBjGJqZh+vBp/vM7iVVYufkaDwvE2uPZogdS2zs8rn1lfZOPUykm5FHQo2CvtPnsBU85D5WsMud5wlNyJedXSlDJbPCnnuFx1jX2S2h2nDJrq2yCP/WwcVem6/b8889/4dKlS8+rL/secuR7DOHmGpU7FIcSkUvffWC7bqwuGW45e9jCcnBsDvxTZ2Bk7gy1K0H0IG7saKDLrk1CxXh2TELVxrNjGF+A/ZwW4bR7hifAP3ECBsKTvCrX/VtvUBJqj0A7Gd0DCfkeRpQ7vPiNz/FDibTlDjHmGg8leuCtP8Jj6b0yOQGEZbzFLMQjQ9UJ+OjxU7xdcbE2cegUHTZFEEQ1NKbRoUpG8exGSajaQ5XQXChVqCJRr0GhcN0DCfk+oFwq8EOJsNyhmUt/9skfJ5e+CynmtmHlyt/AzYvfOpAgO3f0jPXDpgiC6Alq4tk1Fa6aPVTJKAmVIAh5ICHvNJInhWgPJWrk0vsDw+p3CNnh29pqgmwvHTZFEISC0e4aivZGhypZqc9uloRKoTFtpIVT4Yn+hoR8H6N16bVurnDpzzzxXlOXXu/6jBrUBe4pyt1zGJaVw6bEYo0giO7g1OM/BCcfezfMzh3iov0kE+yyHKpE8dTNgcnBBNEqPSfks9lcT53s2g7qubnCpX/oHe+H2UPHqq7PscNzNa6P39/HMfaddFLq7ADVO2yKEp8JQk7QJKkUslDJpcCTXYfpWIjHsyNYgWxicoaL9kGDMdcont2JQ5UId6A49OZoc+Ej6SFHvkdwqjSUcHP1Lj2WspyYntNUMQio31HwDXRQyEseziQDjQ6bosRngmg/+p1NTDzF0JizZ8/C3PQEBDwFWHrjBbh58ZsH+q0+nt3NQ5UaQYK0t/FIFvazu6txGwkS8l1Jxf0wD61Lj26u1qXXTyDo+uBz12nD5+516h02ZTfxWYgQTJwjCKI+NaI9HjOMZ9cmoSphcD8AJx9/D68bf//6K6zffhquXn6j7YcqWYZMlZ6hVKLFWbdAQp5oCLq56NJfevlvDCcQdH3wUKK8t8fj5HsMbFdMfBYufT63q36n1qWfOnwa/MFwTb1prQgZZwKEILodJ+O8K+zf0vcXjGevivbxmOUk1JtL65D1RdWfAMhlMxQaQ7iOz0clRbsFEvKEZfL5nOkEgocSDcWPgm/qLHjCMwADQfU7hOxoDxEzcumnFx+AB86+6cAhMUbl6wiiW/F5m5sO0WUPDPohNjbKRTvGs589c/JAf9GjFe1m8ey480mivTXIWW6SLirw0O+QkG+Gfr3B63xu7bbx7JHTvLoC1S/vPoRLb3SImBZtUt0mEyIE0e00cuSN4tnFoUonjh6G2elJLtqNFrhGSaj6Q5UoCdV9ZIv1JggnICFPOEJxexkG99ZhJADV2sXa+uVTRx6iU0a7CP0hYuvLSh4EihD9ITG7e+TcyECRjMeWiM4cq+aFaEV7nI1njeLZtYgcIgyNMeovQrQT7cHnocUR0duQkCcco15llOmFE/yU0ZOP/SC59F0GJj4v37tVFSF61xAT8XhI1eg8gJ/yJDrFAIW0NgWKdhTlsfE4HHnobfDIEz9cI9qnJicsx7Nrc4gwNMaovxAEQTgJCXnCcepVRsE6yHTKaG/iHYqCf+I4jCycg+iMUveaIGQCXXYU7WNhJsxza7C38iqEywmIDXtgdGR/EdpItFM8O+EENeFcVPGHaJKe83CiY2OH/+y3/uMt9aU7+EPgix1VX9RSTq9CZXdNfeUOnuFx8I7Mqq8Uyqm7UHH5LCxPcAy8kUPqq1oafW5/YBji88fY13H1nX2wWsr6veu8hn1dPF7wTT6ovtintH6J/QEF9ZVL1GnzSj4N5a2b6iv3MGz33Q2opJfVV+5h9LsF3vIeE0ZBmJpbPCCAEiu32UJuGbY3HfgbTdpf8OCXPwmhVBuuxeAg+Ibl23m4Hj8O96dY//L6wRd/QH1XHpQxYrUtfx+67IP+AQgGA0y8B7ijjiJef3/iIWloNIixB3cLI/FDfJcJhTmK90KhAPlCseMivbT6Cn/0Rg6zsViuMMXyzn2oZDbUcVKuHVc8WKucvM2f+6Yf5o+yUNzbBc+Wcu952dgmUwy/LNft9u3bt/DrO9/5znM3bty4cOXKledyOfbHEVV6cgn493/yvf9afeoOvkHuPhpRKeSYMk2rr9zB4x8GT2BEfaVQ2dtmowL73S7iGQiaTiCV/C5AYb98oR6Mud7ZWuNx1/lchr8XHFY+Ax42NRqb4tVRBoPDUCoWuKt/AI8HvKFJ9cU+fAKpuDzJ1mlzKOVdX0Qhhu1eYNfJ5fsNMfrdgjKbjHZXrsDW6l3+OjQa448I7sBEJ+chNr3AXxfye/xeaAqT9hdM3vg2DO614VowMej1D6qv5GEnHINUiF17D/v7QnH1XXmojhEO/30o2rFqTGQ0zL5GIBoZgVkexx7lyafDQ0F+Cir+nJ4SDECAXbdAdB6yO5uwu7UCW1sJSO35uJDP5wtQLJWgIsFRknwRxEBDBcdimajkd1jbsrGIj5P7/V8KintclCLe8BR/lAVPmc0d2S3lORvbnDrY0RHEdWN/kzdsPu46hejHQ6y/xsYiEB+PwszkBJw6cWwsm0knv/vd773413/9jd8rFtkfRtTQc0J+YGAg2Fkh776w6kYhryW3m4Lk+hIkVu7w18HhMOvEyq2Iwg9rmAvhl9lRBjkOCXkphTwf8PdSXKA3WqzhjkzFFwSf1wN7WZt/Nwn5uqCI50Ie79XhcfVdeXBCyIvJPhaN8ETUCTbZT03EuGgfCYe4aEcHXi/aMTRmj4nybDYHiWRKDZHZgMQWG4tSO1y0l1C0lJhGGGD/PRPLMlEqsfEto+x4kpC3icRCns8d0gt5Nu46LOT1i28U7dPxcd6Px9hr/eL78OHD0z/xoQ++71/9b//y4+zvWXz9jUsXyJXfp+eEPK7WPvPFb55PZ4swHolMj0VCzo/IJOQPYEfIC4TwW7t7taFLj+xld7mQE4MAbp2Ps46fSdxjOt7lyikk5BsKeS36xZp/MMDbFBmJRLlLj6FWuJWMOzDFggWThYR8XTaHY9yVB+9ATwh5P+vfGBITjYxy0Y5O+9zMFBfxGOceCAyCf4B9VhPRntpOs68dLtpX1je5aE/tpNVwmeIBl533YUmFPP9bJRbyxWwKPKUsCXm7SCzkS/kceHBcb1HIa0V7ODSkJJDrFt9GO2Zm/fjkyVPnvv/971+4d+/ey+qP9j09GVqDK7VXXr/8V8/+1XO/sp2rwJseOXuOyQXnRj4ZhTxOkAU2kLqI00JeSz3hVw3PmDoEo6N4vLmyco+ORfggsLF0gy8KXIWEvC0hLxCLNYxBTic3WJv6q4s13IXBEqUTs0fY4wT/Xs0OjB4S8nWphtZ0mZAvFou8H+u31OPjMS7ihWgfHDx4zbWT/frmFmywr7WNLS7a07sZU9FuhMxC3gNlqGTWlecSCnlPgfU7cuTtI7GQLxfsC3kh2s12zMKh4YaLb9wxwwpp9frxl770pWdJyO/TkwXLfubpf/CJtz35znNPvv2Jc5PxOB+RRUIlJt4Zxl/boV6yaxuSDw2THnmy0ab6yh1aSXZthujUAkQmZtiXcZKlAMtdttymjaBkV9NkV5wkyyllAWaVqcOnedviIk0PJsjigg7LXtbAJjlKdjWnmuzKRJ5v/KT6rjzgKafDAyVIJVaZkJ8Cv99vmoRqBE72WH9dm4TqZD32UvIWAO5sBkbBN7aovisHuONYXn+NP5cx2bWQvAfevYQ6TlKyq1X43JG4wZ/LluxaziagkrqnjLtTD6nv7oNiHPsvLrSxD4v+3Ajsx5g8jqVZm00m/9jHPvb0Cy+88Hvqy76n5xz5YDAY+cV//TPPTkWCi6HQcFAk3mljdPdDNZp07zrtyPsCBwZyJUaxex15I7QuPYZf8Hbz+Gq221bXN6FYzEM5j0LexYQ0cuSbcuTNQJG+uXyLu/TYtvoEWcyTCEWnucCruvQGjrxwc9GxHb/2AgxkWT9wGVkd+a2QXKE1PNyN3RuhoB8mp/DU0xAMhUZgNDpZd0sdwQkeE03x1OBEchvur6xzx13Es4skVCeR2ZGHSkVqR76c26bQmmaQ2JGPTignFZdZP/OPTPAxVoS5TcQi/CRj7Y4ZOu16ULRjX8Z+i6ExuGO2srYJW6xPt5JMTo58LT0n5EWyqz7xDrftB4OKi6avpLGbZoOQHRHIVs1mE2VbhLyBoO5FIS/AtkTht3H/JmwVAjXbbXwy94cUgccmEQ5Oxk5DQt5RIS/AnRSzfhoIDtXmSaAzxO4/bYLUHJtMeJgVm1ACL38FPLttaAcKrTkAinEU5tWJnrXNYDkD+eQ9yGzegWJ2m92s5ZoFG6LdUhdxsNokVCHo7U70zdA1Qp61rUeMdZLAQzAwR8s/JF+isIj1ZpCQbwy66xjmNsbG2fGpORifXeShMjWinS3A9Yi+KkS7m4tvEvK19KyQV19y0NnFU0dF/LXepZ8+fMqeS19nouxbId+GspvoyHqGjZPkcPAJhiI8jh5jrgcGfK2VOtRDQt4VIa/FrJ8ifPEdn+MTipmbO/C9L/W1kG9Xsiv2Na07Nzsdh6n4+AF3LjQaZX3xKA+hKjIxhYu11dtvsAk9B5niAN9Nazae3Q2EkOf3usk41zG0Qp6NQ7IJ+WqxBQkXQfux3u0po2iLDgp5HDsxnj0cHoYx1ncHK1lI33sVSuk1GGXvDYdC4B88uPMjFt/1KkC5vfj+4he/SEJeQ18IeYFjLj0J+QO0RVCaJDsO7q3x+NvpmTklXk91ch0JoxLIIOSNQqp6SMgL9P0UEQmyWsSEgiIwmdqG0Te+Dr4MExQu0y+hNfqJXiShih0QIdqNQmO0W+qpdA72KoN8Yi/vpbEYAeQ8YWnqswuqQn5giIS8TWQW8lBkYwj+fTaSNtuGRsh7R2b4oxuIvix2M3HhLZJQxVkLIxE2hy6e5uIdD0q7f+0iPyytUvFAtuip7phZqQDlNp/5zGfOr66uXlZf9j19JeS1CPcPk18xltOWS9+nQp6LWZNBuj2CsmK4NZpP3Yfk6m0u/DDeGiveCCdBu0DDhVs2s8vau8i/ZwsZhLxRu/egkNeir2aULXqruRHCzRVJU2O3vw+BTP868ijimw2tsTLRN4pnF1vq2Dar64kDW+oo4nn4nUMLDachId88Mgv5SpHNi5IK+VKe3W97ypjlVNhPTV8eCcEUW3zryz3WqxyTL7PxjbVhscwuW2oNdlKbkIFQx3fMtHz+85//IxLy+/SckMc68k//1Ps/rr5sCNav1rp/KN6NRCCyndxkN7/HcCISnWfQU4T8rpqc5xIdE/J1Bul2CUqjwa6STQCo4hwTI42SKHGBhqUOpw4d56UO8Xu2XPo6eRF9IeQNdgOquCjkBdylZ22agTCfUIzc3I3Fx2A7fhQG8jkYSiuixw26PbQGxyof+8I4dqMScY0merEDgqLdaEvdrPpENY+GhLx9SMg3jcxC3lPKsftOGTubEfLYR7G/anNTxscifIea9+XhoYblHs3KthaxgAReN5z7JDspmoR8LT1ZfvK5P/nVlpaMPNaaiXcMzdCDpfG2tzagEppWwjgwHtSvHE6EFTbW712D+9cvqj/tDkZlINtRflIpy3ZYfVFLu8og+qbOqs/2KW1eVSYREybmjvH2xIWZllIxXy1Jis5vXZiI9o2fUF/U0rbyk0bt3q7ykwa/W9BM+cmmwGTXOuUnteDEtXj3OxC7+RJ4V2+p7zqDrOUn7x95HO7EFqBQKlfLT6LvMDQ0VB2rgsEAd9YbgRM9loRDcS7KPOLkbqdEnB6lRO2q2pfkK48pyk96glHTe71T1JSfjB5l92CYP5eFcuouGwe2pCzd2aiMYiexUxoTD0jDviv6spctTMJMrDcC+3IzZVur183nB1/8AfVdOfjn//yff+iVV175jPqy7yEh3wCsZY4nUOpFoBko9O9e/p76yh1IyNfSSMgL6i3QMCbw3q2rsJdiQsMIEvLSC3msUT4xpeRJaOuSl269DsEr3wb/dz6vvtMaMgr5yuAQ7L3lA5B/5IchnUqAx69M9lbrswvRLoS73brOViAh3zwk5JtHZiE/AAXYW3mDP9cKedF3lRCZEct9Oc/6Loa/CNGe21PCYZqhmN4ET3qJhHwXQELeIvVEoHCqsPPsbN6H9AoTli5CQr4Wq0JeCy7QsD0x3EYP7qpgTHaNS19PyBeyUE5cU1+5Bwn5+kJe3AdmOzCI7+WvwcArz4HvzuvqO/bptJBH0V4eHYeVig9yTLD75k/ByOm3gj8yof6EOc26c05AQr55SMg3j8xCHsNfDs/PcAOwPBixdUCa0B3bO2neh8VrpyjvrkNlh80tJOSlh4R8E0RnjrBJc86w87TDnSUhX0szQl7QyKXHsJuNpes1Qh7DNjCUCsMUgoEA+91ZWHrjRf49NyEhb03IC0JM2GLpQ6O29STXYOBv/qIpl76dQl6I9uLsKShPHIIS+8LXEBgGPK0aF5woArAeP35e/KziJGTtRC8cdycnersUtpfBm10nId8EJOSbRxYhj/NGaW+XawQMkTl0/EFLol3smKG7nmN92g3RboTMQv5//V//+YcuXiQhLyAh3wx13FlBObulJADhl8MYCjrudq2pr1yiB4W8lnoufWJ9Gco+JdZY5EMIsukkXPnu19RX7kFC3p6Q11KvbdGl9135DgywLyu4JeTz/mHwxuehNHeKCfZ5KI9MQDneWFDiRL/F7s+lq99nN0SBj0/++OmOinYjyJFvHhLyzdMJIS/MHh7Prho++LpUyFV3fMvFAkTZmIQLb7H41oa5OZWb0iwyC/mPfOQjT127du159WXfQ0K+GSwIeezIuE02HPBBcWdNcXUdgoR8LU4JeYE/MAyYF2Hk5BpBQl5+IS+o17bCpa+88nUY3DOvBNSqkM+zOdk3OQ+VwWEu2nOxQ+A5xIQt+9saoZ/o8VHEsyu7chvSCmVy5JunyESfZ1OJpZZRyBe2boM3n+pLIS9EO5ZpRYddW/yiHutLN2GDifp8dgf8wWEYnDpT7csyQEK+eyAh3wxevLFPqy9qQVETi/z/23sT6MbOK7/zAuACECAIkuBarCJrVZVKu2xZthbLi2x1vHS5u6fVM5OeVuf0OZNOnIn6zHROlpmOPdMn00nGM86kT9KdM4nUx4nd24zlE9vddjtWWS1blmxZpbVWVnEp7iAWEhuxznc/vAc+gA8g8IgHPID/3zk0+QDKBeLh+77fu+9+97rpyPG9z/MtcE7V2No8oHjpCDVEvnEir6U8kqsrUmIiTm9ck8+bCUT+4CKvhc8tp96o0TAt1aL09Yi8NjUmL75zagx/1SrtHJHjzxhH5fbbhAqRPxiIyBvnsETk82LscaUYtXIMSzsH7PZDXTfUnhfqWM7GQzVXrWk2EPn2ASJvhCoiL1NqtsSkIai06Y5zW7nsoeEoPUS+BDNFXqWnb4C6/ad0RYoXWU4ZMHuPAkS+sSKvokbpeaxyv4ESxFjtfu1bUurVMpaVRF4r7SnPMNmm7ijms++HevtclXYj1SasLvJWT61JB2+SPR21pMgjIm8co9VX1Px1VdrLq2FVQu8CnI/1kHMni7xJdwsOQlHkebz6rTVeIfKldKTI/3///l+Ghgbc5nWlqFHkVaptujMUpYfIl9AMkS/IR/V0Kkaef265zY1vGgxE3hyR11ItSm+ff5ccV1+jnje/R3ZuKsbRdW0+ew3Srkbm1Ls5jcyBRUT+YCC1xjjtLPJqagxH11nWjVSOUaWdv9czljPxMNm2xNwJka8LiHwpEHkj1CnyWhoSpYfIl2AFkVf3RKjRGztlKbI2b/7eCIh8kUZ+Duxi0ecoPUt9rT0kyilPwzJ74xpE/mBYOSKfz6YoF7gif7aiyFv5Iqjf1U1d6TAFVhaoe+x8cROqmhZTi7SbdQFu5dKY6e11ssdWIfJtwP6XnG3I0z//iX/ocvY4lcPGY+OWxfo1m/MsEmJCq0R8O0SbK3MUDYsFV6BKAt/S9w6N0fjMOepxFqJ6O4kKG+502mAX25+bSZX22/l0XFyNVN4g2Cj02ljnxWRIOWNNL2qmSlt5riPvtcdocKCfhv2j1CsWhp5eZ+3ns0ZsYkItbx2fz+5U/bw1Cr1/u0hmh/I7+3TGbQTcYt1ducV6Iz8H+XyOYpFAcaw6urrJ2devPLsXXuj3a3nOqTL5vHlZf/nUtpgDxDis8lltJTaLvz6Sn5+0+Ky7Kn/WW0U+W7hIE9hcg2IJKksBazH5ZFgMgh1LvXccXOGGSv7hYRqZOEbj03fQkM9L/qFBWb+9z+UUUt8tf0+LdixHtrYpEAzT6samHMuR7WhDx3I+kyjM3zy3eSrPba3AJi5qib3CguP1hRdeeD4UChU2FwAq/QSDpsGSwB1g3/zB12l17rKsfKIyND5Nx+96mM594BMygt8W2DvymrBmQmsLNPfuq/Tej78jy4tlM7s5kW15PkERHqt8bnmsLt14S3ZO5ajceiBI87dX6MatBbp8/RbNzi3S6npAbmjjiJ1ZkXcAQCks4xxZH+j3kCsfpWzgGtlCszTQnZLVZFTKI+8s7SzmLOsraxtyLF+dnS+O5U0h7/WmywDzsYkLH7ALIvJGqBKRp2yq7uhkpchfeZQ+lUpRJiWu4Msi4zyJdeV2KJvcVh4xCb4ydw0qB6XsdyeiUVgxIs//tnwN/GM2TduhdVpfvE6pZFw+Vul8MvVE6XUj8k163w9bRL4SfEctHI5QZMcmF/hUKk0ZIQNWwOoRecu/Pt7bgoi8IZoZkef1jqPpgwNeGh4cIP/wIE2OjdCQ+HnA66GhkXEaGp2krJiX1uauiK/LMnWV1+28vbvqXTMey2beNSvHyhF5eZffohH5r33ta1/e3t5eUw4PPYjIWwht5E8vSn/HA4/LqO7I+FEa9Q/RsSPjdO70cbrzzAnyDVS+7Q9aQ3mUXi4mCuVR+ky2eYsHAKCNEUJ6WOhW8tnV9e7MyWm53h0/dkQ+xtF2vfKPjm4n+SbP0MRdT1BX/yiFVsVc/N5ruGsGOhKIvEVZm78imwzduPTXFAksK48S9TjdNDlzpjiJ1bKzHrQWbp+/PPs2XX71u7Rw5fU95/PIqXvowY/+Ah294wHyDk8ozwAAwOEgk8nI1BjOaR8f9UtR5yDVHSdnSqSdc9rLSSkbUNVUt6uzczLV7dbCknws25mJBwAUgchbHDVK//bL39wTpVfz+0KRLYqnDkdEl2u276GNIlRqlF49n9Wi9FzfvC045PsjAAC1o+az811kVdrvPneaTh0/RqdPTJN/yFexZjuvdyztnM/Oov7etZt0bXa+KO0caeeNqKCBYH63PBB5I+SbnxPLuddqlH72vZ+VbMpZWlmneK5Hlma0eaeIuo23jwfNQT2fHKXXu+vCUfo7H/5kxSi9uhjyggcAAFZEnac4l52l/ejkGN1xclpK+9TEWEVp1waptNLO6x3/3HGbUCHL4ABA5NuQ6FaoYn5fl3uYvFPnafzsB1EhpU2odtdFG6UfOzJDYyNDdHLmaHEx5JKXAADQSo6ff5iO3vEgeQf9UtqPTIyWzFMTYyNS2ge8/ftWjmFR1wapOrlyTA57o0ADgMi3IzrpJdyUZ3LQWdwINDY2LqO69374czKqy91lgbXR3nXRi9KPTR2nkeEhubkLeyMAAK2CUxzzqWhxEypH1TnoMHPmbintXFFGb57SSvvtlbWmlHvM5qwry3aHdcsoZrPYCNwudKTIb2/Fd0Oah4S8kMDFKz+pmHt96r7HUMe8jSivXa63N4JzQsOxtOy8BwAAZpAXUq2tHHN03E9DPUlyxFdp5d2LFF66QtHQ3kqA2nlK7beglfZwZBuVY/T2fFkEh826F0BNrBDaFnRkWO9zT33kWd+A21hf9VqoVs+6GTW1HT176rmrnVXVjpSBpdl969JnM2lZUaVmdP5dlabVM3ePiLe/9PpTrf9sLnzOK9zV0NSRNwO1G3AskaJgNCUWwU0Khbdk5Cot1kCu8WvrcVMmkyV7brcRVSOpWkeeeydwHWmzsUAdeabqe9FCUEf+YBTryPd4yNZbmDMtQ0kdeTHeHXurtzQCWTlGfHFEnZsrTU2K9UKJsLPM83NOJ3etHqeRqVPk8fnlOsN3EmUjPOqi4PaOrNGunafUfgvNrNGuUuxQyuuXxT53xY7odu5NM6I8ag3yO8p4lev+kPKoNfjKV77ye8lksgnNS9oDpNZ0MGpUt1Idc0Tp24vYVlBGsPRwOL00ePQcTZz/ME2evJucbuuJJgDAGuhVjuFyj5zPrpZ75AZL1SrHcKR9M5qhRM8YUa9XpgYGVhaKNdoBAM0BIn8IqKWOOXLp2xPeG+F35UqapHCk7I73fZRO3vsoLtIA6AAOkq9cXjmG54l6KsdsbUd1K8eo5R5laoyFU0QA6HQg8o3G4mWk9us2iih9e8GpVGtz78pcer5Ii4Y3lGeIPL6R4kXa2PG7EKUHoE1xOGpbqrXSPiIEXa9yTDVp16scs7C02tGVYwBodyDyh5RGROm1i4bXc4hr1zfp4o2lvRp8kTb75st09afflxdpWsaPnZZR+jMPfgQXaQC0GbzXqbyfhDr/qptQy6V9bNS/b+UYlvaGVo5BPfTOo40aLh5WOvIMtXSzazM2/lXZ7GqEZCxC4Y0lCq4uyOPuHjH5d/XIn10en4zUD40fE3+2g/r6feTtd8tbtGNiAfEPDVK/kHhbPi3/P8ymZZtdxd9ecbOr3Ii2qRyYSFcv2Z2lH2u9TcaZ9A5th9blBrRUMi4lgC/OmO4e3qhW/4ZnbHbdBZtdjdE2m127+yy32dUm3rMz5+6W87Db7aYRv58mhaxzHru6CbW7S7yvQu61sLTvpNIU2YrSxmZIbkJdD4QoKGQ9GotLoW/EJlQrv3d53ujKXxb83LXFZlded1zm6ZQRvva1r30Zm113QUQeFNkvSj85c0ZGelDLvH1Qo/RqKpUWpFIBYD04ys412nPRNXIk15X+IMflczwPD/gG5fxbDku7uglVr9yjugkV6TGgFrL4nLQNEHkj7JPi0AlUy6VnyhcN/g6si3qRppdLjw3PADSfTCYjpZ3vaJZXjrn7nvtoamqKnF02WrzympiH/1LOw9lMoRpMKp0umX+vzs7R5eu3SjahQtrbCAumrzjK7u5YiVaUMbUySK0xiN0zpvxURhum1lSDS4pxmgbXpU8m4hTZsdHy6oa8TcsNPXgxKdQIzonXkDQ9xQWpNfun1uwHp1LxhZqaSuX27tYI1qZSMVzDntFLJ2EJkXWlu+yU3FpXHjURpNZUBak1ByMTC5I9b056CKe89PZ0k8fTR74BL40MD9KR8VGZmujz9lOfy0k93d0lqTE8FgdHj5LLN06pnSRtLl2n9cVrFEzYKBDaLpl/Wy3sSK0xRmYnVqhzb8HXJj2G1xcLptY899xzXxAXwjvK4aGnIyPyoVisCQm7h49IcH233FgZNnFx4Rg6QfahU2Sz4CIN9lIepa+24dk76K9Yc3p4CNVwQPvjsDemXb62CACPF+0m1FrKPYYiWyXlHhdXNyme2+3ezPtaQGdg5e6poH1Aag1oGLyAuTwDNDBxmo7c/RGaPHUfdbu8yrPAypSnUmnhCP3MmburSggANWPRKhjZXP1SpUo7d0EdHxnSLfdYS+UYbbnHpZV1lHtsIAepwQ9AOwCRb0fyOs03Wlz2y55J0FBvRi5g01MTcgEbOXKc7nzoYyh52EZUi9KrlEcOsT8CHAZY2vkiVlvu8eT0lJzzjopjf4UiAOXSfuByjyjxWBfFGvx430CHApEHDYE3YWkbE2kFkHM9tWkaDW9MhAnaFLRR+rXbt/ZISDFymEhRJotbxKC94TlKrdXe3d1VIu1nTk6XdE/29nuktPMeES2qtKubUPWkHZtQmwy6zoIOByIPGs5+aRoHakykdzcCmApH6deW5ipKiK3bRb2T95DNO0XUi1Qq0F7ITds93TQ4PELH7/og3fP+x+mOkzMl0s4bUcthaedIulbauXIMS/thqxxjJC0JtAc2BMosD0S+0Vg0/7MVVEvT0Ebpx47f1fgoPWg6XEnJPXaafDMPyIu07t4+5RkAWo+az86btkeGBqgnFaDs+jtEkTka9XbryroKR9m10s6bUPXKPR5WGrVRGAA9Njc3wy+99NLFL33pS1/4u3/3715AM6hSOtI6n/roI3973O8bVw5NoWL5yVymUAbPTHRKVRkpQ1g31UpkZXYov1N5bJV3j9WWPPQMDJN/8jh5fH7ZhVQteaiHrc+/J0KQ5zGdNbkSVQeVnzRCtZKL9nyGBt0Ompk5Xiin5/PJ7rEjU6dk91hmJ9GA0qgoP1mVtik/Kcvn7o5/M2Bp5yj7gNcjvoS4Dw/S+IiYZ8TnkyPsHrebhsem5NzDVWA44LA2f1mmCOZtXZTK5CgYjih57QHZCVVb7rHpdaw164reHNhqzCzdeVCKHUqb8LmrF0t3neV1RawvfMe1mfMdj10uxzo44JWVnzbW1ub+7R/829/7t3/wB7955cqVH6ytrV1VfhUodKTI+4f9Zx+469TDyqEpQOTL2EfkVdS69GvzVyiVFJOrwNlXmPi55CEL4PjMOSn06dQOZdKlgg6Rt57I58QiGVu5SoGlm5TPZaW8O7oKucOFWthT5B05KuRHnCZxPvkzYAiIfFUOq8hrpX3INyDTYcbEl39wkPqFsBdrtJf1n8iKz2re3i3Fs9d3hJKRdYqFNyiyHaOtHZuMwqfTYj63QvMZi4t8Ng6RN0JR5GWtdmu9tkw8TDaxrpop8movElXaJ8dHaExccPMx71Hh5yYmxn2fu/DZp/7hP/ifvtDV1T0Ti8dpZUUsOKBIx94PczqdA0997LFnP/fxR5+ZPjoyozzcMBxjdys/lZJPJygXLM0LbzhCJBzDp5WDArlEiPJbt5Ujk9D5d1VYpnORQrS9XjgFY2TqJI0cOaU8sgt3II1srsiGVIzdf4esWS9/Fgt4T3cXJTdmKZswuXWAWPAdI2eVg1Ly2RTlAk2YV3q95PBNKwcFmnLeBTZxAWEfOKoclSLbyYduKUcFuDvsyJGTNOCfVB7Zhc/phjifW+K81oUQMcfoeeVgL9nN6zKCZDbV3otWktteFheUAWWcnlEetQ7F19ftJseQsSpW6pj3ejxSArqFoPPxfuVQOZ89JaScI+rpTKErKh9r89ezm9cKEUghyvb+vZ/bVlJYV8TnW2D3ny3OgVah+N65xyoHuVpEbkv53PUY/9yZRTqyQvbEhiVfWzY0J4NENtdgQ+Y7Hq8OcQHa3+8mV2+vcLTCcTX4YpvHaXJnh5LiwprT1/gC+5FHHkEul4aOjMgzXV1dztBWbDWUyK7efe/7zo74h3wNub2vIKMiZREeCSLydVNTlH76nFisu2Uu/YC30BlRvVUeC681JnWjGojIV47K6HQz5v0RnEq1cXuW8uL94Tss3T2FpjZ8TjlKz6LPkUVObSi/86ILIvJV6bSIvLzF7ty9xT440E9Hxsdk1F2N1nV3ib9V/J4WlvadVJoiW1GZHrO+GRRfIflzNB6XIpARv1Meac8nxBgWnx8rRpWtHpEvvnc9HvllJawckbdlxOviiLwV7xbwnG4gIq/eIeML7OHBQblWT4z65VrNY7niHTLNuI1sb1NgM0yrG5syrY33oGjvkD333HNfVP4zIOjIq5r/4W//+nN/87/9by6cvuOuEutJJWMyErixPEe2A1Y/sY/cqTuZIiLfGGSUXoge51nvx613f1x/dLdeLBqRb/T7Xol6I/J6cJR+aOyYrFxUDkfpVxdvUCy0qjyiAyLyVbF8RD66RvnYmm5EXo3WsaB3dTlkg6Vamo7x4s9ROo6wJ3Z4oU/vibTXCiLyxkFE3hhWfm21ROTVO2ROjrCLLy7JKsdynXfIksmUHL+1jtvHHnsMEXkNHRmR/8yTjz474XWcLd9YyXm7hejuHdSjVNQwGsm1uUcQkdfCf3dZVPYgVIvSM9qr963gKmVThd8xk4rR4BZG5A9yJ6QuOGJU/m+r6ETk9eAoPV9w8TnlKHx3T29JlH5o7Gjxzove/oh9I/K8VyJnfvt6ROSNMXFkhny+IRkA6XL260brWORdTueeKDuTEpLO0s6bTgOhMK1tbNJaIEjhrW2KJQqbUPUi7bVi5Yg8b8K1JQtFABCRrw9L58hb+LW5nV2UioWKEXk10i43kPfv3UBejLRXuUPGkXYet+V3yNKZQqS9VhCRL6Ujr2p+9x99/sVHH7zzCeVQMsiRQPHl8Y0ojxRQo/RqDnatHMqIfLWodI1R2YPAUXr35HlKZ3N7Sr3xv8+77E0T6irR4MMQkdf7t1UOcu45Sj8wPKF756V8f0Slc8ALh11IfiY4S9mkWBhNBhH52uCNz3yRNzg0TE6nGLtS0nuVZ6vDiztH59RIO383ux47IvLGQUTeGFZ9bTynTo2PSkGPhALU4+qvey+KzGsXX0bvkFUDEflSOjIi/9HHHnrm2GTpBlcuf8iNiipH6c/VFaU/lBH5anniNUZlDwJH6VNd/SQ8fg+8sHEUrW/4KPX2ushOudryrmulWjT4METk9f5tlQOce47Sa++8cMUbbZReHZtk65Lnn6NWvFGqPG+ao0JbgSX5/2c2iMjvpTxa5x/0kn0nSKnwEkU3blGXLSvz2bV31Rg1WheNxSm8tSXzYlfWAzJap420N6NyDCLyxrFyRD6TiJAtkxBzmFgXXBXmsBZhhYi8OnZTW6vSXXweJx0/fkreGWOcLjEnV9mLEgqLcRsKUyAYKom0c7DtIHfIKpEVAvD8888jIq/h0ETk9eAoPedhc4k8LbVE6a0WkW9KZLbFEXlGW7VGpSu/Q0ePndiTm8cR3dtz18X1zZryyAFARN6UiLwevKGZ757Vsj9Cy403/5pikYByZB6HPSLPCzpH53p7emQu+36VYwpVim7ItCq7o5tGjp2jfO9A3XmxZmPlqHJmJ0a2sFq5CxH5ekiHb5M9GSzMYYMNL2B3IJodkVfHLt8dc7tcJWNXes/tGxQJrMiACPsRVx3jLzXSLjedijF7kL0oB4WbQ124cGFQOQSCQxOR14Oj9Jsrc2KhCcic3T5NlL5/aIzGps/JdA5+rjzS19KIvLj+2hMZb0ZktsUReUYvGpWOLFFw8V1KpxKyOgpHchn+7h8v5F1ns3nKZTPGo/SIyJsSkdeDz5E2Sq89p+Vo86ajwWVZp95sDlNEnhd+beUYvvMxOTYiK8ewxNdSOSaRztGOzSXOq/iciIu+WCxKSVtf3XmxZmPlqLItx2MMEXkj2Hh+5DvWPIcdoog8j0mOtPNYVceu7K8gvnN/hfKxW8hOGKehieNk7+2ngLj4Dq8tsDjTRjRDochWQ/aiHJREIpH84z/+43+uHALBoRZ5Fe3tfZb2Ls0mPI7Wc5UNvjpl1K6jWpFXB4zX66G+ni6Kh5bl46ahJ9SHWOTlJsfsTsX0KcY7OFLoHjvgFxNRitLJOjc577fRMr6h/GQih0TktZSfU749ztLObfE5BYM7b6opGJkYywQ2uxoVee6y3+dy7Uq7+JocGy1uQlUX/nL2u8WulnuUKQ7ZhCnS0gisLKOFMQaRN4LaobSTRb7aBbd27OpdcPP4LN9AHk8JUef3LZumvJhzrZRqBpHfy6FOrakGb8LzV2hoE1ydpx17X7Hkkva2Mt+euvLad+XPpqGT4nKYU2uy4fmK+wPUTc7usk3ODLdk59uILIv7Ui21Jpel3MZ7ypGJHJLUmmpUasSmIjd9iy9Kx5RHGk+7p9ZkMhnyuPsKzVk87ppLxjG88JeXeyzfeF6JXGSxIKMHaAhlJlZODymMsZvyZ6TW1If83PGcYOXUmjpeG8s47xNiQedx6xTjl6vF7Ee9G8izwVkhNDF54Wj3WmfzN1Jr9qKTGwIYzrWdf+9VeueH35TCx4KuwhH6idERefXLi2AtCyBoDRzNnX3rZbr86ndk/p8WTp068+BH6cQ9j5J3eEJ5FLQzdtegkMQT1D16jlyD1qo8YjbdLq/y0y686PNi3y8W/fERPx0/eoTuPnuaTs0co+PHjpB/yCeFQG8O44WfF3u++zG/tELvXb9Jl2/coluLS7LJEufL1irxAID64btknMs+OjxExybH6dyp43Tn6RNy7I76h2RVGT2JV8fuyvoG3VpYkmN3dn6xZOxaZW8KODgdaaAP3nf+wpmZI/qh4zrJ58UVrJB63viqV8+cBwznjPGtqU2+rbwZoEzU5DQLpNYoRwXU1JpqcMWTaIW8a/7uG50i3/gJ2YxGt9No1Rz5PFJrmnDumWrRPt70PDo6TmMjw+JrhEaU/REH7RlRjlVTa8bGJunE2fsLe3y8Q8QVffj2Ot9m9w1oOiqW3V5neB5LJJIUjERMqxxTTHFAak39aFNr3GP6+7NaSCYWIHs+i9SaOhkcGhEX0k6Kx+PU5xuVG8j73X00PuqX/RXGxMW3NrWt3rHLzxndiyLvYoh102pVnJBas5eOFPlHHrr/Vxol8lo4BSOysSTzdaPZnkL7YGXAxJXFLpe3FUpB7iOWB+Iwi7xzULyM0ghELSKvpVIufVdXl+wzMDx5XKZWsdAX5a+CyPPE2tvdRemtKh1JGwVEvqrIp0MLlAzdpm5xMeb27X5OeZ8LX6iV73MxihVEXtZo53Mv3ne+gDlx8gx5xGLPn0d3v09KO6f9lS/8aj67XrnHyHb0QAv/fkDkD0CJyI9aTuSJq8IgR75m+C6ZS4xRn89XCDhMnZD57CztnO5WrbFSs8auVUU+Fosn/+RP/gQirwEibwCO7ma6vWJG1Z9MWXg4cszyxxOwWHWVZxrEYRZ5IQDlIk+8YYgn6jqpJUrP+yTsdoecRKnXJzc1D2qqAPDtzcEBD20sFpq1mApEvqrI88KTS5XWpWfUO2jl1agYI1H6Zos8L+hc05mj6vy5G+HqE6N+8jgd5MglaXtjnjaXrlNOiFRXj1N+MerCr9dRUZaRM1Ha9YDIHwCLizwi8vrIQI9YM3hPSr9bXGiLeTKxdpVIzFU+bz8N+ceV3yylfOyytK8GCoHDZo3dosgLibfSOY3HIfLldORm19/+/K9//VNPvP+CcmgKepsuVXjw8gbYvj4X9Qg5TMeClNxal3WUG8Jh3uw6dEq2jNZS2ETXGJFkwWN5r6eGOTdrefdH31KOTASbXatuds0Gb+pucq12TnnvC6fNrS7coC5HbdOhmZtdubIE13audyNbYPmWuJi8KitwubwjZBfnqlV1niuBza7GKdnsOnLeclVrshuXxQkW0ueZILt7b2GBVtKsza7qus9jt1us+5U2kevWax+boXS+S8h5Wua2W2HsFje7irFgpfEwJ/jVX/3V48ohECAib5BKJcC4OZA7F6HRkREaHh6Rt7g9A4Mlt/Zj0W1xBXWAQYqIvHJUoBhxaQDVovTlcNSEIyORrW2KBpog01xW0FW2WR8R+SJysdYpP1l+TpnyKP3E8dqj9I2KyPMi39PTI6N1Qz4vHZkYo5FhvsOzmxOrtwlV/dwV9+UEQ7SdzFEmlRAXMnHKZHOU6/E1LdJeK1aPyFs5qmz1iLysvJLPifeNo7f682WrMCMir0ba1U7G2v0oXKO90n4UHrsZsfTnutzUMzBGsa1NSm4FKBwOUTzXI8d1K2u0aylG5C02HsKCr3/96/9KOQQCiLxBKtbyFQtBMnBLNwdblYbx6TsOdGsfIm+eyGtRc+k5cpLjnGSlhjnL0/LaBm1shgqbAWPx5mx2lQIEka9EJZHXot3nwjj7PGKxLYzj8lz6dGpHXgSUU6/Ia2+v+7xe8g8Pys1sw2LRV3NiOXWmfNFnyqVdpscEgiX7ctSF34yGUI3E6iJv5TxviLxxDiryWmnnfShcsU7bWGm//SicHsMpMVwtpry/Ake8G32R0Sgy0aC4sIXItwMQeYNUE3m1y2e16O6BNuBB5JWjAmaJvApXsOHuv1tZZ1GetBETXlRN3ROhApE/sMirqGOT9zZUitJzKo7eBXc1kVcXfW4Ox5E6lnauosPSzqXi9qsco62Apb1YLG6mr3K7HSJ/MBCRN46VRT4TD5MtuyNeV9++F+BaaefNp1z2USvtfDFerZNxpaZoXKZVL9J+0IsMU0mIc2rBC1uI/F4g8gapReS1lEd3y6P06gY87joqb5Hvw54KKk0SuoolGMXflE8ElQPzaIXIS/bp7CplXkx2fKHT4/aRkyvZaHoPNASIfMNEXkt5lL67p1eOS0a94O4fOSrGrfhTxUVdTlzQshCUS/uoEHbe/MzSvt/tdV70tSXjVjUl4/QuFmsBIn8wsmLehsgbw8oib+MxIb54b5VW5NXxy8KuFi/QSjvnuNfSDZWlnSvYhSJbxVKttabHWFnkpcdA5NsCiLxBKoq8oFqahYzuKlF6Lm/YJaShW6kywdIwPDG9f5ReTyrFgDNdpqrJLP/7h1jkPb12mpyclCkTI6NjNDR2VJ7HTDZfkD+dFI26gcibIvIqapSeN78mohExvu3FKH13dw8NDI/LKL3bIxb+Yf8eaa8WqdvSVJ9YU6pPbDW4ZBxE/mBA5I1jZZE/dvw0DY1OivGdE2N4rCjtE2MjUuLV/ShcfpjHvBYev3ExRkOa/Sgs7TKlUiPtRoHI1w9Efi8QeYNUjsjX3hyIRT24MifTNhgWeaY8Ss/Cz7vbi+hJZTNkCiKvHJTCNb2TK+9QIiLOuzj/2rstqvzlHE7qstuM7YlQgcibKvJa+DxxlH7j9qw4pVlxLruLF9w9Tq5Ksb+0r2vKPao5sWaWjIPIHxCet6WMQuTrxUoiL3ssiHHQ3+eksbGxQgWoPg/5hMSr0s7jtxxtpL3afpRGoo6JWtJ+mg1Evn3oSJG/9/zZp+46M32fcmgKjRB5FZZ0Lk3JUXpGKw0s90PjZVH6MqmUtwjFS0lHCxcEpgGRVw7KUM659m4L5133OPuK57HfW1q5qNJGyqpA5Jsm8ipqZ2f1gpvHJkfpVWnnnFg1Ulcu7bXeXm8UEPmDsSujEPl6aZXIs5DzRlO1xwJXjnGkIpSOrFBsY14Mh0hJKqsKj08Wc6P7URpFMX+/LO3HClhV5DeCofA3XoDIa+lIkX///XddaCeR16InDUxJlN7lkZH6QV8/TU2M0ah/mHrES+EcfFOByCsHZeicc867Vs8j31Ep3xNRaSNlVSDyTRd5LXzBzVH69bVV2oznZE6sNlLXTGnXI5OICClIQOQNYmWR5/Q8205hjB1WkVfLtbK0+7we3XKtHNTiuXZ48gR5/ROUSSVpff4Krc1fpmQqQ6FYpiH7URpFTo5Zi4t8r9e0c2qE2wsLc9/+9rf/UDkEAmvNBu0E374zERb6+fdepcuvfkc2j+AmEipDo1M0OT5KQz6fbp1pYB34PK7cfJveeunrtDz7FiWiu8LLd1pmzj9MZx/6hGxYpIp922HDZ9AKOBzKdI7z0XE47B3Zu7EiLO28EXV8xE8zR4/Q2VPH6eTMMTp+7Eihm7ZvYM/ap6bG8N6TlfUNWg3GKJLvl42gmK1wQIq7lZqk2W2tvfgHnQFE3uJwFJBF8Mpr36XFq69TJLCsPLM7cW0GwxSOJom6CmkcwJrwJsrrP3uRZt/8a3lxpsIlSSdP3kPnPvBJmjrzAHmHJ5RnAABAYHLgqFVwBJ2l3eft3yPtp45P0/CQT0bbK0k73xVjab+1sETXbs7TzflFWlxepWAoYjlpB8AsIPJtBKfOyCj9T/6KZucWihPX6kaAIrEdcgyfJvvg8WIEAjSQfOMWhEMRpe9YrBtBy2YhLcC6qNLucbuK0n7mxLSUdk6T2U/aOWBVLu3Lq+uQdpPI5nC3oF2AyLch6WShwYTexOVweql/4iyNn3uUfOMnIIIWx0iUXr3tzLmhQ4PWKlkGWkcxtQaAJuPylu7JUKV9aHBgj7RPTx2pWdrLA1aQdgD2gpm/Q8inEzTYm6Fzp08U8ghHRujYmXuRrtEm1BKlP//+J0puO/M+CV4MAQCgVbC0T597P53/0Kdp4shROjF9tCjtE6MjB5L2SgErYD4OG973dgEi3ynksxRYuCxFkHPpo+HdKirl6RoZ3IK3NNoovXZPBFe8KV8MAVBpm9SaCo30QG1UakTYDFja7fkM5WIblIsskt/jkNLOHYx5fvKPTcmOqNWkfWFppanSjguBziKTQcpPORD5DoRz6W++9XKx4o2Kmq7xwEd+sX2j9OKC5bCgVi7iizMunxaNBPfkii4HY2TjUoMWK0fXuVi3eghSaxoExpJETY/hEo9HJ8eLkfZzZ8/S8ROnaFg8vjb7Br37w2/Q8uybxbuIqrRzMyU9ad+OxloTaUc1J9ChYMZqMK2MlpSjVrxRo/TVNlUCa8NNpm6+99O9uaJ5G9n7J8kxep5s3ilsdD7EYLMrMApLe5fDUSLtJ45NyfQYLvfo7feURNo9vhGaPHkvnX/k52no6J0UWL5F13/2fbr63lt05cYtOU9tbAZbJ+0a2qLEIy4yaiYW29oVGSDpSJHfjiY6+0TrVVDZZyLgKH21TZX3PP45GaV3D/iVZ9qIQ3yrXrupbPLYaTp976N0+sGPy4sze1njLAAA4Dmjz+UU0j4opX16aoLOnT5Od5yaEdI+KKTdLaS9h3p7ef5gCS58caQ9Fo/TemCzGGlnaY+kuvj/VpJKmdyYr8Noi7QfpMJZHkTkDxn7bao8ee9jlaP0DSzB2Em08i5MNrlFFJmnPntabirjqJnL3S8vzu565NPY6HyIQGoNKCcvRFEr7adPHJPSrjZWYmn3uPdWNkul00LaE8X0mMvXb0lpn1tcpo3NUDHSDgBoPZj5jdIBudqVNlXWE6Uv3JK1k8+HMoitQs2lf+eH35S59EihOpwgteZww3fmtNJ+9tQM3XXudIm086bUcjifvVzar99c0Eh7HBtGTQKdXUEjgMiDPSKYSsaUZ3aj9Mfve0KKYJ/LVcyjnD7Ct2RP0B2nTsiFArSWXDYtc+lruThDlN4IapoBAM3F7fOXXIir0j4+MkwzRyeltJ+cOVoi7XoVrlRpX1kPyM3yLO03529D2sEeslnMde0CRB4UUUXwymvflZtjtSLY7x2UIri7UHjI43ErzwKrsd/FGaL0RrBuxRoGqTWdh7oHxu32FC/EtdK+X432re2YrrQXNssnIe0AdACY+YEuvDmWRVAtYZnNlOZD7i4UUVkKcWllXXkGWAntxVnlKP0FROk7AKTWtDeqtPu8/eTpyVM2OEsUniVv107JHc9K0h6KbBWl/drNBSnti8urkHZgCKs2hMrmcaegnI7cjnzP+bNPPXDXqYeVQ1OwuQbJ5uhRjkrJx8yXWrtnTPlJIZehfCKoHDQOFsFoaJ02Fq9TKhmneK6bApthWgtsUjAckSLPi0gqLf791LZ8HWai977LfzedUI7MY897rqEZ55zE320Xf38J2RTlk7UVaeJypJGNJXFhNkv5fFaIfB85ugo5sy7PAPlGp2hw7Jg8jm+H5PciXb1kd1bYB2HSZ0+PqucgIV5zLq0cmYety0U254ByZB1yyS2yZcU4kJ8T66W6ZRJh8fp2qn+WWkgmukF2ypGtp198mXu3kaW9t6ebvF4PDfR7yD88SGMjQzLCzmkxvsEhGhwZF0MrJfcyrc69K+dfJm/voa2tKEXE3BvYDIm5OCjnYk6L4bk4nRHjscmyU5j/8mTr9ZKt21rdpuW8INYxW3efeH39yqPWwNKvTT2nTmud08WFhbnvf//7f6QcAgEi8qBmOEpfrF9eFt3hyi2O4dNkHzyOWuYWRxuln3v3VYoEVpRnOErfR5Mn7943St/d1VXcWDc+2oYlS0HTcQh5tTIOuzmpU2qknUvEck77iekpOnPimEyPmRBjp1J6jKPbSYNH7qCJc49Sj3e8eJeUI+2rG5uItINDydYW6siXA5EHDcUhrt7dY6dp6MT7Zf51d+/e0mbAOmxtrigpVN+VkXo16scMjR+jmfMfKOTSjx8t2Vh35uR0cb8ESwgA+5E9BMKplfbJ8RFdadc2VlJR02MKXZsDNDu3WEyPYWnP2HqV37Qm2RzSHQBoFR0p8tF4HFdsTSafTclcTnXRmpo6IiO75z7wCeRftwFqF+DCRuef7Y3ST5+uGDk8XFh7wyswTr0yqpX2QjfUUmkfHPDuK+2Fxkql0s6R9vJuqFYXZbPuZjSCtqi+gqZL4AAgIm8GtsP5toaWrtG7P/zPUgSj4YDyaFlkF1VSLM/uRue9UXq9jXVzi0vKs6CVOCxek7qdU2tUaVdrtJdLe6EbamVpV2u0l0s757WXS3s70hYReQvKcjtcZNj26RoPWg9EHjQcFsGbb71M115/UYqgSq3518AaaKP0c1ffLKmGsby6UczRzeaFAGFfBNgHq6fWzNz9qAw0sIyr+z9UaeduqCztao32StKubazE0n7lxpwcL2qN9k6Qdj2sfBFp1eorVgfpUu0DRL5Nyees31k2GYtIEXzrpRdklD4RjSjPIErfbmwF1yturOMqQg7fNNn9d5Ctb1h5tJPgBU37BToFnkdVaXf2FWq133nv+0saK7G0l1Mu7ddm56W0axsrsbQ3CnubyCiit/Vh5YsMq6VLvfnmm5defPHFiy+9JIQClACRN4rVRNriOXYcpS90HH25apTePYAKKBXJW/vijatseEZP0Pidj9PkqXtxxwVYCpvwElXax4b7yZ0NUm7jXUquvEO2ZJB6uruU3ywllU6XSDs3ViqXdi75CEBHkW/NRUZGjCVOY+v39MkCCz948cUXnnzySd/nP//5+3/nd37nI6+88gpKT5bRkZfPaxvBuWgiQ2bWkuc60rYup3JUSj62wf9bODAJm3tELEya6zAhefn4pnJgHhXreNf473O6Btel5/KHDNcx7+4pvI9cy5wj9RVrmQsOdR15exfZyyPeddSRPxB6NewVeKPziJvo6LFpGhosbIjt6x+sXpfeIKgjX5n8zpZYBZPKubJeHXnaEZ/TJtWRZxHo6emmfreLxkb9ND46TGNCCngDqvx89rnJN3JEfj65HOv6whU5J/F+ED6/kWiCNkNhWl4LyE2p4a1teUcqlUo3vUY7k8+I+Y3Pr5jz7e5R5VHrkI+tye82cV4rrYutQq5LuQzZejzyy0pY+rVFm3NO5VgVF3+CS98AAEqwSURBVNHDYu3gfgpc7YkLKwx4++WF9/vf98DZ//G3/v4/dHQ5ZmLxOK2srF5V/lOg0JEin0wmI2+9d/U7z//pt754dW51bnxsdGZ0yDuuPN0QDqvI2/r8pf+uioF/PxYJUHBlTm6MZaF39hUaYvDP/UNjNDZ9VpavTMSjsjEK00qRr/i3Cw6zyPNriK5cLTYNYyqdy1QqRZmU8XMFka+M1UVefk5NEHkWAZerl4aEpLMIsLSzCLC093vcQhK65WbVcngTKjfDTdmc5PCMUyqyQslomCKxHUpk7C2Tdj12Rd4Gka8TiLwxGi3yPAa5CZpW2otj1eeV0q43VjmNbUeMxbvO33XfZz79mV9JJBK+S2+++R3laSDoSJEfHPRNP/nxjz3z8Y997Fc+/alPP/WRj3/i7NSJO+UnsVGRwUMr8uX/roZ8nP/u+lE7jgZXF+QxR+i1HUdHjpyQaRp2u4MyORs53f3kG+iXkwF3Q3TkduRFgdlU/dsPs8hrOrvyvgjtuWSh5/PG8Lkcnpg+UJQeIl+ZThd5VQQ87j7yeftLRECN3lUTgWgsLiPr3A11db3QmZqPWehlN1S1k2UTOrvWC0TeOBB5YxxE5PXGqtq5uBZp587FgWBIfIVpXYxXHqvReELuO7ki+OlPf/oN5T8Bgo4U+ac+9tiz//jzv/p7Tzz+2MMPPvTwjNvtce6JDCbjlEmLRcUgEPky8nnDIq/Ct7g57YZbkpdHdlnu+fz5R8aKt8d7e3tk5QiWeIi8ydQo8irquawlSp/NpOXFXC20RuRLN31B5I1Rj8irIuD1emig31MiArwBtR5pXwsEpQhwLntR2nUi7RB540DkjdEJIl9N2msZq5Wkne+IZcTvlI/Vt99++xJEvpSOFPmzZ04+8b7zx5+olos9PHlcbqyU5fN2YvLxeoDIl9EAkddSHtl1e/eKiToRbIc3KNmgOy3VgMjXLvJaqp3LWvZFaEFEvjJWF3l7JkZ5ToErE/lyaR8dGaZR/6AUgX4hB7WIQGRbyEAd0q4HRN44EHljFF9br9d6nzlV5MWao6azNlva9YDI76VjRf7h+889oRxWzMXmiincep7LH/Ltf44cciSxFiDyZTRY5FXUyK66ES1NXXIjmnbRjqXF4sYTh3gPeFI0C4i8MZFXKT+XTL1Reoh8Zawu8kdnzpDHx5/fPPUPjlaU9u4u8TnfR9rXNzZLRKBeadcDIm8ciLwxdkXeep+5ux/8EHULR2JPGhgo5LQ3W9r1gMjvpSNFfurI5H2PP3T3U8phkfJcbDV/l788Pj+NTJ2UEsHsJKLyeyUg8mWYJPJaOLIbS9koKVxdu2jzRMITNEsuT4Zc/jbPQtNgIPIHE3ktRqP0eiLP559rfWfF5z+vbIo2E4h8bcheF5kdcju7aXx8nNx9TnL3D5DPP16ztIfCW7SxGdwj7QcRgUpA5I1jZZHPRANkF+ujFUW++NpaLPLqWM2nYjQxeURKO0u6yyMusL0D+0o7j1Ou8tRoadcDIr+XjhT5EzPHHtYTeZVq+bssEbWUzasq8nEhNSbXYD2MIs/ove92W543OMtNNKOj4zQ2dZyGJ2bkc+nUjjzfjQAi3ziRV6k3St/lHpZlBdXNzpNjftm4h/dNbAeWa861PwgQ+b3wAs+33HkMyooUQz7qSkcos7VC8c0FSici1NXdUzy3KvtF73hzmxnSrgdE3jhWFnniuUlGva2XvpKNbTZd5NWxqt1/MjzgJlsyRMngEm2tzsp1hdGO12rSrpZmbcZYfestiHw5h1LktVSKDO53q7+6yAfE/0DkzUDvfc9G1ykVnCdnby8NDI3IiUo9f/XcZdmPqiLP59zkuzCdKPJaaonSD/kGSjY7ayNE3HTMPJHf3fB62EWe33O+A6JeTLG0T4gLKj436nnhSLtnYLi4F4nPrVqrPZ2zUTiebkr0rh6KIs8y2u0qPGgRIPLGsUrUWxdeM4UrmPXayqWdxyyP1fL9J909vXK9HD12RqbTxLZCtLFwVc7FiVwPBUJbLZF2PRCR38uhF3mV8sgg54VVa1SkCqWURrtNDgx1UYuszRVuVZkIRH4Xvh2YTYSrnr9GNCeqKvJNSKfqdJFXqRalL4fTLHhRCUe2KRZcpuwBKlHVymES+XJpHxzw0JHx0ZKLKZb2cjh6x+eGz8t2Qiz6Dg+lk+JCOrtDiZ0Upe3ulkq7HkWR58gtRL5mslyMP164I2nJiLzJsnwQ1KBfI15bubRrc9pVaedgF/+elvJIeyyVpxQ5KRddl3Nxyu6irFBFq4zVH//4lYtvvfUW6shrgMjrwNEj3hwbCaxQLpfTjdL3iYExPDQkr279Q4Mli9rm8i05AMwEIr8LizyldysPqeePNzfznZRKd1mYeqL0EPnmiLyW8ih91tZLwcjWnlrgHCXKxMTnH5tdDYs8z13cXEkvbUmd33p6SpuxMVppZxFY2wjSeiBY0g1VSjt/TpvU2dUIEHljSMGzsMg3UpYbjdHXVi7t9VZ60qbHrG5sUkjMqdqxyt5TWNPEORXzfnkTxlby+uuv/xgiXwpEvgpcZ16NDDIsgmqUt6e3sFGrHLmgrc2bL/J9Q2RTGu2oNEWk20DkVTjNQj1/Mr9anLuDROkh8s0XeRU1Sr+dd8sxplehRL4+XnD4bpiJQt8JIi/bogsRYGlnWefGSiPDgxXTllRS6bTMW1elfXktQBviokor7SwBekDkjWNlkbeRkD5l7teWKrQK7S7ytUg7u4hRadeF13OIfNsAka8RtYRlIhqRAs0RXR4ket0CM9tiQRCD00xsff5SkW+WSLeRyGthUdcrQVoepa9U9pCByLdO5FWqlZ9kWMD4de7YPbQRiZKnu/Hj0Koi39tto0xcfBbKRJ6l3eXqpSEh6Xy7vdgWXZF2vcgdo01b4gg7z2+bQga00l7P7XaIvHEsnSOvmfutJn2MlUW+T4zZdGK7+NoOIu3au2J1SbseEPm2AiJfJ5yKwbf6AxEh8LG0buMRm6NbLAfiZ160TAIiv0stIq/Cks7nb+P2rHjJOZlLzzLP6O2F0AKRt7bIv/bOdXpzdo1eemuW/ur1G/Tj65t08doWheMZcnbbyde39w5afRQ2vFpV5Mcmp2hy+rT4PPeQ1zdcIu0D3v6Kt9sZnsMSiZ2KaUsHrdHOQOSNA5E3jlVFnsfhzKk7aHjqNPUIOR8bHz+QtJensh0IPqeqyLNrCKexChD5vehbCTgQvMg7fNNk998hbzUC68GpGpxyc+W179Li1Z/J/RAqLPeTJ++mex6/QFNnHiCnu1TaeGLlKOfQ4AD5hwboxPSUeKwjr4nbipdf+wl987t/Se9dvUbJ1G5jsEu34/T8Kxv0+y+u0I9vbiuPtje8mZ67pKa3N8hlT9HM0Unyetzis+umsaMnpQxwtN3hKP1cqhLAkbqV9QDdWliiy9dv0c3527S4vErBUKEqRaX0GNAacjmTgwTAVHjNsOczlBNynAoukLdrh86cOCYvrHt7esg/fkRuKtcbr7F4Qt4RW1haodm5RbpyY47mFpdlShsHEjnVrdFg/LcXiMgbpFrUhiWPb40NDQ7S6OQ0Tcyco16Xp2raRr0gIr9LPRF5Pco3VHLajSrmHKXnEnre4Qnq9xaqEmmjJtyqmqMm64vXxVtg8uSHiHzViPwrb7xNgVBIVkeJR9bFeEvJMcIRaiaeytGNjeSBo/TNjsgndtIUiMTo7ZvL9Pbsirzj8BevXqHr80vkysfIS+LzuzZPNsord5gKf6+aI6tN/1O7IevdSTQbROSNkxMXbbaUuAhFRL5umh2RZ2lX02P4Ynp8lDeNCxcYHSFvv4cc+TQFl67L8o5clYvvCPMFeFMi7TWSZ5Hn901Q2PdgnYj8T37y0x+//TYi8lo6UuTHRkfOfvyRBy4oh6ZQbbLfWX2Xeu058g4MkquvkPe2X9pGvbRM5HU22UraWORV1A2Veo3CeJOsWpVI71Zn4PaN1og8R2abIdFtIvKb4S3lSJyXdJJ2YmFKRgtjTa1UxKxupWWk/p3lOHGwc2qwV3lGj1LRNVPktdL+xrVF+t5Pr9GLb1ynV96doxu3A3R7I0zhaEIs6DkKJ7Li9SfkXYaddFoIvbhAWb1JsWiUwklqqbTrAZE/ADy/paLiwweRrxczRV4r7dwMbWR4SDfQo64ZvI70D42R/+gZyubtFFq5RaHVedrcilNgK9kSadfDJqvgWVPkf/CDH/zllStXfqAcAkFHivzRI5P3tVLkeQCwPOxXwpLFgoWRq+PUS+tEvuzfVeAofWEhNBczRV5LeZRePX+Voia5KDdEMVmSdEW+SRLdhiKvwhdYtUbpPU4HeV3aKP3ec9ookddK+08uL9D3f3a9RNqXA1sUTXBn09ILRJ5PstkM7STFhcrODkXE4n95MUij3h6aGhZzSiZL2W5vS6VdD1Xkbd19Tb2jUSuZ7TWy28T5taDI59PxgsjzHOAeUR61CIdE5LXSzmlsY2UbUTk1ppacdrU8607OUWhWxVV/+LVZ6TNnYZF/5ZVXLkLkS4HIG2Q/keeJg6lWwlJN2+DOhzupHSEbtcuo1USe6SSRV1Gj9Hz+gjtdtBHc3QBYEjVhacqmiufdFCDyhkRey35R+p8txOjKaoIyuXzFKL0RkVel/SdXFuhH78zRX785WyLtq8HtfaU9mUhQPBajRDwmf06nxe9nuHJM4b+5Z9onRb5wruqvI282RZG36GZh2TjIohH5osjbHBD5OjEi8lpp5z4x5SmVfX2uuqRdu2Zo88+z0Q0p8janxT5zEPm2AiJvkKoinxSSIOSmHLWEZXnaBue1Do0dJf+Rk2JicMjn96tDf1hFnnQiF2aKfAku8bdXqFpj6/GIBdZPWVu3+B2bFJaGA5E/sMirVIvSR3dKo/S+PoeM1KvsJ6Is7ZwC88b1paK0/8Wrl6XEz60EpdBXk3aW9EQiTnEh7Fpp5+eqpW9B5A9GW0TkIfJ1k9lWZNnl0z2v+0l7tZRKrbTX01OhSKxwJxciXzsQ+b1A5A1SVeRZanREXqVS2gZLvMfnp5Gpk8VIYaXOo4c2Iq/zvjdL5KuVn1QXA//IGPknpmlIfHEFgnRqZ9+LspqByDdM5LXsF6X/6XxplF4rouXSfvFn1+g7r12Vx1ppL6e6tKelJNS75wIifzCy0XWIvBEsLvIs5rmMGFP2XnL0uuU87e5zClkfbqi0G0llK+7LgMjXDER+LxB5g9i63WTr2V3wtewn8iratI3yKP1+nUch8rvkhYjJRc5kqol8V2yRfP1uGh0/Umhl31vY1FTLRVnNQORNEXmV/aP0OzJKvxpO0ttzG/Sff/gOvfjGjRJpjwuxL4elPSPkfCe5K+3xWJSS4tiotOsBkT8gMjqqP8e0GiuLPH9+bQlF+iwk8mpwZfr4yUIKq7ufxkdHpLRz9ZhmS7seEPn6gcjvRd9KQNMJrS3Q/Huv0uVXvyubFamU1zTnfHotPAlxucvhQQsujIeIZDRCKzffprdeekHWpecOwCpcrWjm/Afo7EOfkOlTwPpwhD6yfos2l65QfKuwoKlcWd6iK/NrJbXqVVja06mUFPWtSJiCmxvyKxIJSYFPpXaEKOx/kQ9Au+AoE+FWoK6DA+5eyobmKBu4Rq50gMZ8u/upPP3ePXXaU+JCWlunnXsqlNdp3zc9ptOpELhrFQ26huooEJE3iK2HN84cLCKvR3mUnkVeuzlWLWHZJSaksbHR4m3BPmevLJtoNtaMyCvRKpOpWHpToO3syqlTvBciGg7I3gGVKhYxdUXpEZE3NSKvR7UoPUfushneiFqItEejWzI9ZmcnqYm0N2/VQUT+YOQRkTdEsyPyaqSdyz0ODxZ6ewwNFko/er1eGps6IdbMHjFmN2mdixQoKazdrn7ZPEkbad8Mhk2JtNdKW0Tk3ZXX/FaAiPxeEJG3MBylv/6zF2n2zZf3ROlHRsdKOsGxJAJrwZub1Sg9X5h1bJTeYhEbs1Cj9MG1OdoMrFMoGCiJtFut3CMA7Y4aaR8ZHqSjk+Oyi/a508fp5MxRGvULce93y3WQu6Nq8QxP0viZ99HQyfdTOpWkldm36eq7lxBpr5Fs2UZ8KxGNRsPKj0ABIt8GlAuhmk9fflswZTe/ax0wBp839aKMewuo7Jc6BawH32WBtANQwGHTjAWb8Yv6WqW9HL30mOs3F6S0R2ImVA9rIFnuRiewHeB9A6AjRV4M6o69YmMhvPLad+nylavFyUqNMLhGTpB95E6ycec/OyL0VoQvyrR7IdSLMoaj9CfvfRS59ACAjoalvcthr1vaeROqKu23FpZKpL0dI+0OLpNkQUouzoDlQUS+TeGoYDk8ObpcLhqaPEVH7nyEJk/dS97hCeVZYCXSO3F5l4UvynhzbLUovdOt5BPn9rbs7u7WdiEFwLogleFwwutSn8u5R9rvOHW8bmm/OX+7KO2c197unyk1Ig/AQYDIdxCFXfouOjIxKjfA+iePo1pKG1CpYhHDUfozD36Epu96RJzPGfJ5+2l8ZJhmjk7S2VMzdOwILtRAe8BCBzqPnt4+GXDgoJHDoS/tx48dOfTSrgci36ARYGbtILYCS3TzrZfrLmEJrIEapVdLWGqj9ANDIzR54nzxIs3d59pTSg0AAJqFGmn3DfTT0Pg0zZx/mM6du7NmaV9ZDxwqaQfALCDyZtDijSvlQlheLeVAedg66R2g8VSL0jPFpiXb5ne0BaARQM7aF216jH/AST2JZUqvXKJc6Cb1UlL5rb1Uk/ZgKNIUaUf6SmeBQgN7gcgbJd8eQluthKVuHvZBqND19FBg0sVbyUXZtUtyQZydW6RrNxfkghjcSmCDM2gL2iW1xooVRJopo+U57adPHCtJjxkbP0Kn73uMTtzzqCx7zAGHd374TVqbv0xbW1stlfZqoDKMQSz2vtls1twg3Eog8oeESiUsGTUPmyfmXq8QQmBJQutLckHkpibaBZGbdXCjpO6xO2XlImxwBlYEEXnrUS7tJ4Ssl+e093TvDRBwpN3W46HekVPUf/R+2ciQ15WFhQVLSLsW5KF3FrFYDHXky4DIH0LUEpbledgen5/uuO9DdMcHfq6k+yiwLvlclgb6uuSmsjMnjtHpc/eUbHC2OxClB6DdaYSMlks7b5bfsxFVPF8OS/vWdqxipD2WSCi/CToFpCO1FxD5Q0ylPOze3l4p8uc+8IliNYJK8OLATTyGBgfEz7h12XSyKQreeoOWr/6EgitzyoO7qVN3PfKpfc8hAM2gXVJrOoF8LrevtOttlq8k7YvLq5aLtAPzcNhwjtuJjpxZ4x3cEKpIA3P0yzfHRsMB5ZlC2o02wut09u7ehlWiwNzEY2IUlXBaiTZ1ann27T0bnFGGFLQcbJQ/ODrBku6urj3Sfte505B2i5PNat5bBMHAAUCIBJTAUfpqJSxPnTq9extWSH3TSyBCBvYlsDRb3OBcrdEUypAC0B7wHVJ5Z21orCjtk2N+Ke1nTk5XlXa1whWk3VpwzX0AGgE+SZ1EA6vGVCthqcKLg9rEY2FpRSwEkGwrwVH6QkWJb+lucD5QGVIAgKnk0wnqtuektPd73GLMTtPM2QeK0j7oG6go7aHIbvUYtcIVpN1alETkATgAEHmwL9oSliura3s2PHETj+2okERHj/JfACuhVpTQ2+CMKD0ArYf3GXGkfWigX3Zt9ruy1LOzTsmVd2h76V1KRTeV39ylmrQvr240TdohpMawo5oOaBAQeVAzHOHdDGxUXBwcw6fJPnicsl39yiNNAvmFNVO+wTmbSSvP7EbpT9z3xN4ofZv0TQDA6qjSzpF2lnZOj+F9RhxpnxgflV2bx46doTMPflSWBHZ5BuSYfeulr9PyzXdbKu16oLxjZ8Plja0EGkLtBSJvBodYLLm2sHfyDPVN3U/+qdMoYWlR1NSpd3/0rb1lSL2+is3CtFWKxkeGpYicnJ5SnjUfLrcJQKMxK6qsSrs6VrTSzukxLO3V0mO2Uzba6R6mrv5C1anAqvXqtJeAoAowmXg8jjryZUDkQcPwOFLFherUiWmaPHG+phKWoLVUKkPKFJuFnX9oT5Wi4SGfrogA0G40YuMhS3tvT7eutFcaK7Wmx2SR0w4AqABE3ihINdhDZOU6vfvD/7xvCUtgTaqVIfUMDOlWKWIRSaV303MAaEfqjchXkvZTx48dWNqxEbVxoMSjMbJZpK+0ExB50HD2K2HZthsrD1Fah945VEVkMxiWVYpm5xaliPCGZwA6FZb2fk+fIWnnsQJpbx0o8WgMNIRqL/ApB/VRx52IaiUsUf6wPSiewx/9ZVFEVjc2ZZWi5E5KiojN0UPZ3iExm3Qr/xUA7cc9j39OBhj6vbv7P1RpP3ZkwpC081iBtLcO7KnpHNbX18MvvfTSxUAgsNvCHEg6UuQ3g6G5+cUNnGwLoS1hWa38oXZjJbAW1USkx3eEHCNnyeadIur1Ko8CYE0ymYys055PRqS0n5wpbNjmWu3Tx09aTtqRI995lJxTG9J+tHBRhT6Xk2zZTPj555778pNPPun7xV/8xcF/8k/+yUeWl5ffVH4NKHTkpyeZTEZe+M7Ff3V1bnVuJ52lMzNHzipPNQxbdx/ZevXLLPLiQNkd5cgcbK5BGQnVko9t8P8WDkxC799VqeXf5whvZGNJpmvk8zkp8o6uQiSXy6wNTx6XKTeZbI5S8S35uBZbT7/4Kq2Ek88kiXb2/m6jsbmGxN+uH3XOxwPif0xebMVkb3eXpSPlhJAkgsqBidi7yN43rBzshdMPXK5eGvaP0eiRGfJPzMjJeCscFN9tym8dHJt7hGwVGp+98sbbtBk2/3PA74XN0ascWId7pn00NSzGhhifdvFZtRr5REh8XtNk63KRzdm8C3b+HHI+u8fdRz5vP/mHB8nvc5NtJ0SxjVu0vT4n5uuU/F1n3+6cztK+k0rT1laUIttRCmyGaC0QpGA4QtF4Qgp9mi8ImlAOz5aOi8kztu84bAmaOcjW57dWuUJxbgrrEs/fldeuVsCzYvG1iXNaaW1pCZmdgscI7J4x+d0seHzy/ivfQD8ND/pkx2LZ8GzASyMjfucnPv7Rh3/uk5/8lY1AgK5du/6q8p8BDY1bYS3MoM83/aknP/zsbzz9yWeVhw4MDzx7/6RyVEo2PG+6WNoHju1ZDLPr75ouk1wnnktM6pHduCIX6noZHDsmq9oM+Esr2+zs7FB49RYFVxfkBQBj80zskdmcEIT81m3lyDzsQ6fEBZxLOSrF6N9eF/ZuGfXWkhcCkgtcVY5MpMsp+wTowa/Bld6U53Bkam+aFJ+/rc0V+XVQ7CN3VhSF//M/fJWuzS0qRybicIoxYL27Dn/zsWl6+LQYG71ecvhmlEetQzY4K2XU5hwU89dR5dHGwlLQ090lLix75cWlUwgCfy+PrGsJrs5TaH2JYuE1WS7XN3UnxcVQTqUzlkmHSW+tkD0hpE+OwzPKo9aA72zkgtflz3b/WUvJMqfW5HhdFNiHTlRcu1pBJiMuagOX5c92MbdWWltaAUt8jj1G4Bi/R35vBDw+eTzy3S4eo91dDnK5nMqz+vAFNY/FuLh4TokL55+/8AtP3Lhx4wfK00BwKO7ncIT+rfeufuf5P/3WFzlK7x8emhn3+8aVpw3R8oi8kHibmNS1tDwibzAqnYxFZJSehY9xewvRxK6uLvL4/FIO1Xr0qayYDMTPfNtNvYLv687TdnBNPm8mlozI57Pi397b9bHhVIsEiteQCi1SNLQuO8gyfJelu6fw+eQ7Lb7RKXnBxsS3Q/K7ERCRr0wxIt/VS3anT3nUOjQ6Iq8XaR8bGZJpMd5+t5wjerq75e9pKY+0byfE59fmpFx0nbgLcjLXTVlbt6Uaz+R2omTLxKuPw1aBiLwhbHLuLlQGs2xEXsy1ds+o8mB9lEfaBwc8dGR8VEbaWeR7hdB3i4tuLbXcBfvGN77xfDAYLFxlAMmhEHktt5dW3vzL7//wD1/+6XsXHd09PqNpNxD5vRxUZnkRVWUwlYxLGeTUG0aVwbGJKRoZLtx2UyeDZGy7IdHe/YDIVxZ57WvgDsDBlTlZvpLPoZquwD/3D43R2PRZeWHGXWXVOy21ApGvTCeLfKOkfX1jk9aFHGjFICN+hyPv+bgifOK9K59bWw1E3iAWFvnCvGl1kbfVJPI87hzii8cjS7tffJ8Y85es0z09pe+9OjajsTiFt7ZrTl2DyO/l0Im8SjAUnv/Ra5f+5IXv/vD5aCJDwwMD474Bd82rnyVFPi4mU5Nl0kyR18JRet4gWx6lL4cng0Q0jIi82dQh8irqfgj1HHKEXrsfgisX1Rulh8hXplNE3mxp1420s/BB5I0BkTeGhUU+m0qSbUdf5NXxOejzlkg7fy9G2rv0I+160s4V0OrZbwKR38uhFXkVNe2m3s2x1hR582WyWSKvUh6l5785Gt8pue22neDcdPHvphOF/8gkIPL1ibyKeg4DS7PyHDJGo/QQ+cpYXeSdjhxlktslIq9KgdfroYF+T3OkXQ+Li7wttS3mN2uKPI9ZWxIiXzcWFvmBwSHyjwiBF3OtwzVQIu2j/kE5PitJO8PjrxHSrgdEfi+HXuS1cNoNR+m/oUTpH7jr1MPKU3uoJvK0IyZdrqRiIodF5LXIXPpogmIZe8lkwGLH50LurufXxhUochnlv2ocEHljIq+l0n4IRo3S86ZZu5ABvSg9RL4yVhf5ozOnaGzqhLh46yHvgBAFjbT3uwv7Xpoi7XpYXOTzFhZ5vlCHyBvAYiLPG4N7uhzU73HTkJD2gUE/+UaO0JBvoETay8cnj79EYoeCkS0p7avrmw2Tdj0g8nuByOtQy+bYqhF5rlgDkTcFW497T+UBbVTPJyaf8WOnyTc8Lus5Z3diym8dHIj8wUVepfxOC6NG6TkFR43S521dlE0LURNfTLnIa8/9X//0TdoI1paicyAg8vsiG/HIPNsw9Tm7aWrqqKxW0d3TSx6vryZpD4mLso3NYOOlXQ+tyEupspDwCYoiLz53VistasvxeS6MO4h8HbRQ5NV5093npFH/MLnsGUqFFigZmCN7NklOl6ukFKsKj7+UGJ+boUiJtG+JC2wzpF0PiPxeIPL7UGlzLC/k5Xmem5ub4evXr19JbG0kfe5eU1dSiPwu2XiQ3LaEzKkdHB6RUQPeJOsfPyq7xnJ0l2WR5fEgVBV5XshMuAtQjt1dtvGoTUVeS7UovWdgaLe3QC4vPKafBga85PW4aWxkuHiblyO63/nrH8umPKYDkS9BezHF6TFcpeLIxBj1kLj4SkVlnfbo5rK4ALOVnNv9pJ07B5si7XpoRd5qwifYFXkL9gjIpnZF3j1W8Y5ZK+DPmK0oy+Iio8VR7xKaJPLa8ckpMlwsQp03vWK8cqS9z+Ol4YkZcvv8YhlL08rs2zLIwmlT0YyjRNo5XaZZ0q4HRH4vh6KOfCNRa9J/5COPXUjknOFXX3314srKytx77713UXy45jia/5u//ivPPf2px59R/hNT0K0j34Ra5mbUka8HmxDZ8gYV2jrynGfN8m5GPfOqdeQ3r5t+F0bmK46eVw4KWKWOfKNfA2+C5S+PWFhq5e998f+gS+9dU45MxGHNOvL/3eMz9NApcbFlYh15lgKu097X56IeccEsv4vjanXaU8kYrS1cp9DqLXk8MHGKMt0+S9Vpl/XGN5R644PWqjfO5LaXC9LX7SbH0N65rZXkxcVaLnRT/mwfOW+piLyla7XzvMlrpsDOXbEbcPGoHZ92ceHMor7f+GRS6TSlxXiMiQto/kqEVykTWiisOWN3Kb9lDZ555pknZmdnUUdeA0TeBCDy5rGfyGupJIMcneeNl/xVDxD55om8SrULM462sQxuR2OU3Nmh/+33/wNdudmEQI1FRb7RDaGMSDujnhdu4BJLJKQg8HE6IMYIN4Tq81dsptcqIPLGsbLIl8hyh4m80fGplXaeN2Px5J4L6lwiSPmIWFMd3ITwnPKoNXj66afvW15eflM5BALr3AMDwCCVbuVy+cqbb71Ml1/9Lm3c3pV2TruZPHk33fP4BZo684BM2wDWhCvYrNx8m9566QVavPozWt/YoIWlFZqdW6QrN+bo5vxt2tgMyY1VvWV1ikHtsBRwDvvQ4ACNjwzTiekpOnPiGJ2cOUoTo355G56bu5RLAks732bfDIaL5+XaTTHuxHnhNCc+L5wiY5XIOwBWIZutfUwcZHyysK8HgnJ8Xr5+i66L8Tm3uFycNzE22x/rXDp3EGdPn3yiWsWbRtCyHPleb8WKDq3KkZeb6rjmbQW0Gys556+rx1nSdbTWeuZVc+S5jrLZOfJc07cDc+RrhXPp47Z+SqWzMne6nPfffY6GfYW7VFzuzDQsmiN/38wgHRnaP0eepUCb0z5atteAN6LqVadgKVBz2gPBkPgKl+S08ya4ajntxTry3VUqfrUK5MgbJ6vNkR+1VI58YW4yPw/dCLxnpLgR1727Sfgg45MvqsORbdoMhWl5LSBlnXPaufADj89ac9rzmQQRF+0Qr8nuHlEetQZ//ud//gfb29vmN45pIyDyJsAVbw7aOXY/WibyOv+uilVFXguLei1dRzn9Rq2UogKRb63IM9XKTzJHJ8ak0D/y4L3U5+yla7cKG2gbikVF/oE7jtGkV0zpGpHXSgFXqBgfHWmKtOsBkTcORN4gFhZ5l9NJZ+66X4w9B7n6h2igrPlZPdK+thGUUXcj0q4HRL69gMibhNo5Vq1Jf/6O4w93ORo4wYmFsDzfDyJfO2rXUU654UhIedfRYqWUbJ5S8UJt8nKR58mVb2dylY5EaEWsGebuD4DIi7egisj3OnI0OTEhm5acnJ6iR953L/2t/+oz8lY0s7C8Kr8fGIuK/M995BF69LGPivORJ9/wSEl1CpYCrupUTdq5cgxLQSOkXQ+IvHEg8gaxkMirJVm5vOP4+KRYN7zU2+skj2+E+j2eqiVZtdLO45PT1rTS3uj0mKxYH2UTMoh8W4DNrk3kgw89+GtPPfGBZz780F1PKA8ZxuadEhP6oHJUoCmbXXU22ao0Y8On3mZX7qSbixw88srpNdyMaMA/oTxSYGcnReHVm7Rj6yNnn4ecvb1CiITEu3YvpK69/qJM/TAVsUAets2u5dhH7qy4mS4bnid7JiE3xvK55L0QWlbWA/Rn3/4v9Gd/8V+URwziaP1mV1ePg4Y8PXR6vJ9OH5ughz/0KI37hbD3Vd/Mx1Kg3SCsbkRtRp5sNjgrZBSbXY2Aza7GaNVmV5Zx3njKawXntjudvWTPZyi0cqtYZEEWYxjnYgy7oqw3PnmPSbPJxTYov70i5jpsdm0HIPItQC1h+RtPf/JZ5aG60RX5Joh0J4u8SrVKKZWAyFtD5OXtYIVKF2bMty/+iP7iBz8yVq6yySLv4ZQYIen3nT1OdwhpPyG++NgmBIpLqWrFgD+3Lk8hraaV0q4HRN44EHljNEPkM5mMvNullntkaWd5r1Y9Jrg6T4Hbs3LN4PXGfeQuSmdzLZF2Paws8r/8y0/ft7ICkdcCkW8xHKV/+rMfe/a+szP3KQ/VBER+l0aLvBYZNRFf2hKWqiCxHPHEm0zuUHz5Xcqm4spvmAREvi6RV1EvzHhTs5o+pWIoSm+iyGul/X7xNe4frCnSvrZwjYIrt2TKmGdkmvKukZZKux4QeeNA5I1hhsjLDsXdXeTm7qc1SDuje1Ed36b0RmHebFQd+UaBiHx7AZG3CKdOHP/w5/7GE89+6on3X1AeqgpEfhczRV6FZdB37C5KpvNS3ssFKRdZFK8jrByZBETekMgXKOR370bp94okR+n/7Nvfoxvze3sSlNAgkTcq7ZVuvxc+gyFTG0IdhFTgBjmycUuKvGwctKk0DoLI10UmuU22SKHZV6eJPEs67w0ZHPDWLe3lfRTK14x8OkE5XjMFEPna+exnPzsTCoXQ2VUDRN5i1Jp2A5HfpRkiz1RrhsXwosGLrWkbPyHyBkV+7ybN3fSpU8oju1yfW6S/YKmvFKU3IPKqtD8ghP3eBki7HmmxttlTEcuKPCLyxkmHb5N9J4iIfJ3UI/Is6Zzb7vW4Gy7tepSIvJjXrfS+FUWe533/GeVRawCR3wtE3sJU2xwLkd/FKiLP8ELAC0BvPk7RwO3G5s1D5A8ckddjN31qb3WGP/3296TUl0Tp9xF5Vdofe+BOOnVsvC5pZ0lXOy5Wk3Y9IPLGQUTeOJaOyHOlmM1rspeINuqtSrtbjEn+qlfaeVzyGK1V2vWAyBsDIr8XiHwboBelh8jvYgWRd9kSNHFkmlzu0rJ6XK9+Y3metgOLyiMHACJvisirVIvSv/HuVfrzv/g+vfSTN0pEvlXSrgdSa4xjdZG3dERezr8Fr3KM3SO/WwWu0X7u9IzcXJpx9FF3d4/ckFqPtKcyyvcDSLseGS7xGLohf4bI1w5Efi8Q+Tbjox9+5O9/9slHnrn/oUfvC8Vz4du3b8+9+uqrF1dWVuZ+9dOPPTs9NWLqCg6R11/g1b99Nwe7tFIKd5Tl6iLB1QW5IdEQEHlTRV5LpSg9i/e3fvBjmhgbk9I+KaSdI3rVMEPa9bB6RB4ibxyIfG1kUjvkoDTZxZw0PD5J/pFxS0i7HjIlKaikJFlM5NPb62SPrULk2wSIfJsyOTFxbzAUmksmxSyq8OXf/Qdv1Fv9pl4g8tVFXmU3urt30WWZ57KB/FUXEPmmibyK0z0ghV4vSq9Hs6RdD4i8cQqfYSWX2oqpNerdFoh8ETWNsZAa0ys7F7O0b9y+QSExx3JaIzf184s5WN3c3ipp18PKIp+LrlFefEHk2wPrfHJAXWxHo2uZTGZHOZQ89dFH/va43zeuHJoCS3zFzq6JoJgBMsqROdi6nXu7Qhro7GqEah0fy/92zsmMhtZpbf4KpZJxWfZQbVDEnWN9o1NSEJn4dqEr4r5YtbOrQO2KaTbVOruyUFC2ZEgcmEx6p+Q88jnkLsAMS8F+HRe5I2qzyIm/38Z/f1cv2Z2FWvJWIhsPkj1v1c6umg6gVcZ5q8jzBSoHCrpd1ju3mvm3PMjSKFja1S7aw4M+8g8O0MTYiKwmwyLfq+S8M27vkOzM7ewfonhsmzYWrsjxG7e5aS0QLnYs5rHbiI7FhhEXj7LbsYADVFbqiJtPxcSVt/jaZ95vBV/72te+rA1gAoh8R7G8Hlrt6+sbnzkyalo4rvUiryMBFhR5LRwZCq0tyEg8wwsNw3LfPzRGY9NnZQSf02+qpt1YVeQ17e3NxrjIH/zmI5/H4MocxRIp2ojs0Hog2DJp18PqIk8JIcpijEDk66co8lY8tw0W+XJpHxsZovGR4RJp5zruWviiekeMwWgsLsdkYDNEoagYl2JIyrlZkOkeECfXOrIMkTfGV7/6VYh8GRD5DmJtfePqxR/+5I++8d0fPh9NZOiBu049rDzVMCDy9Yu8ijZKz9Le1eMsRnc5Ss8Ni6pG6SHyTY/I65FmOeixmIgKrC7y+YT4nELkDdGpIl8u7YMDHjoyPloi7eU57nrSviYuqjnSvh2Ny0h7OpMpRNrF500VeZvbb6n0FYi8MZ577rkvlGcjHHYsdHkKGkUoHJ7/j3/2jd964pf+ju1//df/6dlLV+YuKU8dmHy++bmEnQhvfL3+sxdp9s2XKRLYzZXn1I3Jk3fTPY9foKkzD8gcbdAIWnT7vInYbZ3/N4L2haW9y2GnkeFBOjo5Tiemp+jc6eN0/NgRGvUPkbffTR63W/ntXVjMQ5Et2YX51sISXbu5QDfnb9Py6gYFQxF5R6wVOe4AWAVE5DucW/OLr/7l93/4hy//9L2Lju4e35mZI2eVpwxh6/VSpaYaLYvIc9TF7K6qgoNG5PXgVJrIxlIx7YYj9Jxyw3CUnnM9ecNWJpunVGJbRuS1Uax+t4u2NxpQ2nI/2i4ib57U2rpcFTd8txI5BhCRNwYi8oZxOsWclUvK/SRqRJ7nqN6ebhr0eQs57UM+mhjzi++Du+kxXaXpMQxLeyKxQ0Eh7hxpX13f1I+01woi8oYoRuT58+YqpIJaha985Su/h4h8Kahac8iotXNsJfTq16s0pWqNkMnyiheFzoKFhiRmUrVqDVcfSIuJrwFweo1eCcudnRTlxCLGEq/CKTrv/uhbypGJVKtaI7tivqccmUvtVWtMFHnnINkHjipH1iEbniv8/RatWpPdvCbnB1StqR8r9wjo9/TRsSMTFA1vUE7Wau+iHvG1X9lHFnOOpG9x12LxM1d3anRkvaTpkqYhlBXQVq1xjFur/n6xak2P9aokPfnkkz7kyJeC1JpDhjbt5h/9i3//zMuvv3dReerg2HCDpxHwxtj5916ly69+lzZuzyqPijW8t6dE4gEAoJlwpJ3lOL21So7EOk36+2VOO8M9Fzg9hueocolnaeeSrLxBnNNjLl+/JdNj5haXkR5jQbJZnIt2AuZ1iLm9tPLm919+ra7NsdVTa0LiUj6tHJmD7m15vkXZ8tSaxv/teiUss2LIcoUULnnIi+JaIER5TukRi6uptF1qjXkgtcYYbZNa0+cX47yQ3mYVWpFao6bHeL0emRLD6TGj3Ll4fJx6HHlKxUIUWLxK28FVIeHZYjWuVDoto+vqHKWmx6gVnupOjzkAfMfSllRSazxjlkpfyaZ2yLZTWLfMKttplNxOlGyZuDDEHqTWtAEQeUB8m+qt965+5/k//dYXb69Hwl5v/3ilevQQ+eaJvBZZwnL9NkUyzj0LIr8fciHg1yYWVFNeB0S+CETeGO2TIz986EReK+2c1z4yPCSlfVjIe7+7r5jTzr/HuDw+GhqfJrdvjKKRTQqtzsmAQzDlpM1guCXSroctr82Rt1Yeui2bLMxZAquJvC21TZSGyLcL1vlUA0vwvYsv/6tn/+d/cf9v/IN/+cS3Lv7kBeVhYGF4ce1zOWls6gTN3PUhOv3gx2RX2cMNtv8AoAfPF9wRdWhwQEbZuXrMmRPH6OTMUZoY9cvSj3rpMVz2UU2PWVhakekx86sh2rHtVpqxWnpMNte6iwgAmgVEHuhy4+atH/zL33/uc5/7jX888//8yXe+rDy8h83NzfBLL7108Utf+tIX5hdvzykPgybBG0174ks01GcvlnBzuftRwhIAUCLt3FSpXNrHxGO1SvuVG3Myp31jMySryKjSbmVZdtiQ691pYKPrXhC2AjXzwYce/LXHH3vkwtXZhUs3b968dO3atYvaQfW7/+jzLz764J1PKIemcBiq1lTEZifH6HnloIC2Ygx3h+VIPFe74Xr0WqLhAG0sz9N2wGCpSns3OUb0K5das2oNY45goGqNMdqmas3Q6Yrpg62ilqo1LO1cLaavz0U9Xcr3GqrHsLRzTjuLe3JnR4hSSqbE1EouEaT81m1lfrpLedQaaCvD2MXcaaXyk5xWk+M5S2C5qjVby4VUMwtWrXnsscfgrWXgDQENAyLfWpHXUq2EZXj1pqxbzzXsawYiXwQibwyIvHFctgSFl65RV9+APLfl0t7V5SCPu69uaU+nM/L4IEDkjdEWIs9zyaC15hKI/F6QWgNAu1BHV91qJSzHps/SuQ98QqbdsOwDAKwLSztfmD/wkV+g6dN30czRyZL0GN6QOuDt3yPxLO1c9lFNj5mdW9yTHnNQiQcAtB6IPGgYP33rauNq0oOGwFH3lZtv01svvUCLV38mU2xUhsaP0cz5D9DZhz7RoZtjEbgB7YWa085R7tz2MrlyETo6OiA3oDIDQ2OyM2qt0s612iHtAHQ21rnPBNqeK9dv/qCemvRGaGn5SS692eVUjkppRulNZk+ZsjpKP8oSlmsLFAmsyI1qat1nrk/fLwSBI/WcZ8+1l/ek3dgcZHf7lYMyUH7SEqD85AFoQflJlnYu+cgpMT5vP/mHB2lsZEhG2P1+8TkX5zIRCdDG4lV5Ac7j1NnXL6V9J5WmUHiLNkNhCgTDtC5knWu1c8lH7jOREb/TLPKZRCGly2YTc0ShOZRl4LWB52aB1cpPUmanMGeJ12T3WOt9y+8o5Sd5LnFZZy7hRlXPP//8F5VDoACRBw1FW5P+6tzqnNPp9B2bHGlYkl1LRV7IWzuLvEomvVNsNMXS3tXjpG7xxbg8AzJSz7fymfh2YRHUE/ldEXFRIrikPGouEPnKQOSNU2gcJF6fwCyR50i7y9VLQwPeEmnnSlNcPranu1uOKcZud8hOqT4xDrv7Bii4MkeR9QUKBDYoKPyqXNpbWasdIm+MbCpJth0WefG+WUzkM4kI2fi8Wkzk7XYbPffccxD5MiDywDSMdI7dD4j8wUVeC4s6S4I24sfoRem73EO60UO3kJCNxevyvzMbiHxl2kbke/orbhpvFTbKNTQiXy7t46PDxVz2cmlXUSPtW1tRGW3f2AzKSHs0kaY8b6Tnc+sQ809vIc3GKkDkjcF3XAoReeuJfC65ZUmR53LXf/zHf/zPlUOgYJ1PNehYQuHw/H/8s2/81hO/9Hdsv/v7X3320pW5S8pT9ZNr3i3jw0QsEijZHMvirsIR+pP3fEhurjsyMVqQd508XQAOIyztfGeK67TzRtSzp2bkWDl2ZKLiWFFz2rkL6tLKusxpv3ZzQea0r25sys6onNNutQZL7UY2a90a99auv2/d1wb2gpUYNJWbcwuv/uX3f/iHr79781LeZneemTmiX9OwAhwR3xMNRUReOTg4uWxapt1whD2VLOTJq1F6LSXRw8iWhVNreMNrYze9IiJvjN2IvMdyEflaU2tY2nuEtPe7XTQ26i9G2rnhUi2R9sh2lNaFqKs57VFZBjK1b3qMem6t+NmzckTelk8XI/L2fotV6MqI+VV93yyXIy9eVyZpuYh8IpFIIiK/F4g8aAnrG4GrP3rt0p/Um3YDkTdX5LXw5tjIxpKsOW8TcpJI20pu+RdFJJk07TWUg9SaykDkjdPb66S+HuFViWhR5CtJO1eQ6fe4DUk7R+GN5LRD5I2RTYn3bKewNuyZO1tMyfsGka8Kp9Rcv379yl/91V+98NZbb31HeRgooD4bsAzcOfZTH/vgM9WaStmEoJQ342laQ6iBYxUX0aY0hBI4xu5WfirQtGZMVRpCMdxQh3OM8/FCVNMs6msIpaVxt4rREMoYxYZQ7jHLSVW3kHKuzR6PxyiZiNOAb6im5kqpdEb8NwlKZTLignbHtHQY9dxa8bNn6YZQ4uLesk2X+H2LKO/bmLXeN9lJmINTLWoI9eabb15aXFyce/311y/Ozc1dun379iVtF3lQCkQeWI5Bn2/6U09++NnfePqTzyoPFdEV+XSCcsEbypF5QORry4LiSgxd2W1KqhVvGkjtIm9ejidE3hhWEfm8EO2eLn6rNmRUdGziKI0dO6M8q48q7dwNlWXdTGnXAyJvDIi8MVSRt7nM/7yxtEcikfBPfvKTi++8885FSHv9QOSBpfn4E4/+/U9//EPP3Hd25j4+hshbU+Q9vXYaHB4lp7NHphwwnGMfWJqVX42iNpE3d6MWRN4YrRB5Tn3hFBnecOrs7RXfncVIezS8QVubK8XPJzdF47KrPa7+lkq7HhB5Y0DkjWGWyK+vr4evXLlyiaV9dnb20vXr1y9C2g8ORB60BQ+974Ff+/DD91749FNPXghl+sLiqn3u1Vdfvbi8vDwXj26H//fffuZ55VdNAyKvL/Lqa3AP+KUMDfj3birjPHsWJs67PwgQ+cocdpEvl3btRWUl1Ej77RtvUyK4KB/rHr2TcrYu+bNVsLLIZ2KbZIsuKXPEOeVRa9AWIu+w3vuWDs6TPRU5kMhzXvu7774rpf3mzZuXrl27Bmk3CYg8aCuczoJJayeEyYnxe7/6r3/HeEnLGoHIVxd5Fa47z0I/MnVSeWQXrle/sTJP2xsFaaoXiHxlDpPIl0s77zn1uN3Ks5XhzaZpIe6xBG/S3o20F+7qFXoh2IdOk63bJX+2ChB5Y0DkjVFvRJ6lnYNr3/ve915gaQ8EAnPLy8tvKk8Dk4HIg7YHIm8tkdfCqQre4Yk9UfodIVDh1Zu0sTxPOSFRtQKRr0ynijxLu12sVIO+ASnt3d1d5HL2Ks9WppK06wGRN04utkH56IoyR0Dka6VdI/J60h4MBucQbW8dEHnQ9nCU/pc+88kv6G2ObSRVRb4okebSbiKvUi1Kz2k3nKvMX/uBza6V6QSRZ2nvEaLO5R3rlXaW9K1ozFBOO0TeOBB5Y1hZ5L/4hX/67PiQZ+YXPvM3nlneysg01hs3blyan5+/BGm3HhB50FF89uee/KcffeT+C+rm2EYCkTcu8lo4Ss9S7/KUvpe1bI6FyFfG6iLv7dqh0NLVosjrSbvdZqPe3h7lv9BHlfZYPCG/GrERFSJvHIi8MTJRJSXJIiKvRtpZ2r/5zW9+ORQKFd44YHkg8qAj4Zr0jz50z4VPPfH+C8pDBwYi3xiRV3G6B6TUV4rSh9YWKBYJKI8UgMhXxsoiz9I+c3RSRtej2xHhLs6apD2VThfSYxoo7XpA5I0DkTeGfN+2xfvWApFXpf2dd965xJF21GpvbyDyoKOpVpO+XiDyjRV5LWPTZ2Uu/X5Req3Il0d0N269SbHwunwOIt86kVfPSzy4JAQ5RoP+CfKPHyWXu1/5DX200s6lH2PxpCnSrkeJyPvPks1R/QKj2aSDt8ie3obI10lR5K1Y4rGJIs+12rmCzPXr1yHtHQhEHhwaaukcWw2IvHkir8Iyz1H6SiUsM12eimkYc+++qsmzh8g3A1Xa+/pc5Ha55HnhY67VnkrG5AVYJLBC6Z24ZuPzpCz7yNH1Vki7HhB541hZ5DPxMNm2Fg6VyKsNll588cUXIO2HA4g8OHRwlZuPPvqBZ+qN0kPkzRd5lWqbYyuxK/LmSTxzWEVeK+1c+pEvqFRprwZL+8rCdQrevsofFtPqyB8EiLxxEJE3RiNE/vr163MrKytz6Ip6uIHIg0PNhU89+U+f+GBtm2Mh8s0TeS16JSz1IrosO4VzAJE/qMhrpb2nS/leo7Rrz0symaJ0JiOfS21cJUduByJvAIi8MSzdPbVOkUeDJVAJiDwAglo2x0LkWyPyKhyld0+ep2QqU5RDLbnoGuVjnCMPka9H5A8i7dwVdZtLPgpp5/x2lvhKQOSNkw3OCpuPQeTrpF1FvlzaFxcXL6GKDKgERB4ADdU2x0LkWyvyTLWqNUw+m6J8PCC/zKKdRb5Z0q4HRN44RZHv85O9f1J51BpA5I3x7/7dv/vyjavvXvq5jz32zNCR0z50RQVGgcgDUIHyzbF6Iq+W8eq3RX3TY17TdxiWizyTXXtb+clE2kTkGVVWXbYkJcKre0pYHhSrirwrH6XtjQWy9fRJkS+XdqezV+a2N0Pa9YDIGwcibwyriby6XrzyyisXX3zxxech7KARQOQB2IeJifF7P/boB575xV/+3DNLa9GS1tTqRPzbn//1rzeyZn0lIPKVRb6XkjTsH6HB4VHlkQJq9ZRqjabqwYoiz9J+ZHyUvP1uigTXqMvpNSztfGxGBZnsxmVhVmmIvAEg8sZopcir0s4NlsQ6MXf58uWL6IoKzAAiD0ADgMi3XuTV9KbC5thxWeawnODqvBT6ZMz4WtpqkVcj7fHwKlEmSW63m0YnZ8gzMKT8hj6qtMfjCYolEqZKux4QeeNYWeTT2+tkj4vP4iEWea20cxWZ9957D9IOmgZEHoAGAJG3jsgXyO+WsDxySnlMQcx60fCGLFVpJErfTJHPZDLkcffJUo+y5KOaHiPeg2wmRWvzVygi/g6u0+4e8Mu/d2B4krLinKjSzmkxHG1vprTrAZE3TltE5Luc5Bg+ozxqDcwQeVXa0WAJWAWIPAANoFkiryeyEPkC5SKvhaP0g6PHyOMbUR4psJNKUXhlloJrC1KGa8FMkWdJ7+7qIncf12qvPad9bekmBRavSlF2uIfJ7j3aUmnXAyJvHEuLvKwWtdaxIs8NlhYXF+def/31i5B2YEUg8gA0iIN2jq0FiHw1kVeqtlShYpReEFybl1H63e6w+jRK5I1Ku4y0JxIl31nazW4IdVAg8saByBujKPI11mpXu6KiwRJoJyDyADQYo51jawEifzCR18IRepZ6l8enPFKguDl2WT/txojIs6RzbrvX426ItOsBkTcORN447SrynCKj1mqfnZ3lNBk0WAJtCUQeABPhzrGf+fgjz5w8OtoQs4LIN07kVTi3nDvH+nWi9KG1efG1UFLCcj+RV6Xd2dNN3v5+Q9LOOe2c215PegxE3jiZnTjZwjfkzxD5+rCyyP+n//TV59/82asXH33ogQu+ieM+dEUFnQhEHoAmUEvn2FqAyDde5LWMHjsr8+l7nG7lkQJqlH5zebZE5G1iBnU5nTI9ps/FKTK1SXuhNntB1o1Iux4QeeMgIm8cq4m8uhmVywRzesyNGzd+oDwFQEcCkQegiVTrHFsLEHlzRV7FN8olLCd0S1huhQJE3S5yu4S4tEja9YDIGwcReeO0UuS10q729kDZR3DYgMgD0CI4Sv/Ln/nos/efO36f8tC+QOSbI/Iq6uZYvbSbcpop7XpA5I2TT0UpF7opf4bI10ezRF5bq53LPi4sLFyCtAMAkQeg5dSzOdaKIs805TUImi3yWjhKz2k3agnLZHKHUpmMUqu9udKuB0TeOBB545gh8lppR4MlAKoDkQfAQvDm2M99/NFnpo+O6JoYRL51Iq/i8IxKmWqltOuh/v1m1rk/CBB546QCN8iRjXekyKvS/s4771y6cePGpVu3bl1aWlpC2UcAagQiD4AFqbQ5FiJfTeS5IZT5a79lRRkibxhE5I1Tj8hzp2Iu+YiuqAA0Dog8ABamfHOsVmQ5ksUL4iN3DJrWgKoIRL4IRN4YEHnjtGtEXm2w9OKLL74AaQfAHCDyALQJHKUfmzw6w9UZNjY25lZWVt7kxy/++b/Jy18wE25xPnpeOdgLRL71tI3IeybI7i7sM7AKEHnjfOlLX/rC2vLC3KMPv++Cb2xa1mpHV1QAmgdEHoA2ByJfACIPkTeK5VNrNq8RZZKWuZuh3g1kaX/ttddeWF5elkEFAEDzgcgD0Ob80f/1xVuVNsc2DIh8EYi8MSDyxmmlyGulne8GLi4uXgqFQmKwAQCsAEQegA6gUZ1jK2IVkfffUVGyCiLPVWvMvUEBkTdG24j8yPmKF4utolkir1aQ0TZYQrQdAGsDkQeggzho59iKQOSLQOSNAZE3jhkir0r7K6+8cvHtt9++iK6oALQnEHkAOhSO0j/92Y89e9/ZmZo7x1YEIl8EIm8MiLxxDiryqrRzg6Xl5eW5y5cvo8ESAB0CRB6ADufkieMf/uCD91w4UJQeIl8EIm8MiLxx6hF5rbSjKyoAnQ9EHoBDgtPpHHjqY489W61zbEUg8kUg8saAyBunksir0o4GSwAcXiDyABxC6t4c2xYiXxBZs4HIGwMib5ynn376vofuP3/hjjvuuC/ncNEbb7xxEdIOAGAg8gAcYmreHAuRLwKRNwZEvj60XVFff/31F1DyEQCgB0QeACCpujkWIl/EqqKcDt4ie3obIm+AVos8p8iotdpnZ2c5TeYiIu0AgFqAyAMASjh14viHHy7fHAuRL4KIvDFSa++RgzKHXuS10s612q9duwZpBwAYBiIPANCFN8f+wqc/8YVPPvLgheljYzOqyKsb7F750Y8uvv3OO7L+9Ff/7//5knzSZCDylUFqjXEyyW2yRW7Jnxsp8jxW5gQXL16UDZY2NjbmVlZW0GAJANAwIPIAgH354EPv+7VYMhWu1DTm4p//G3NLxShA5CuD1BrjNCIir17goisqAKCZQOQBAAcGIt96kFpjnHoj8qq0c632N998E11RAQAtAyIPADgwEPnWg9Qa41QTea20oysqAMBqQOQBAAfmN3/9V557+lOPP6McmgZEvjJWT62xckT+pZdeuvjNb/y/zz/60L0Xpu+4d+bV116XXVFRqx0AYHUg8gCAhsCbY3/pM5/8wpMfeuBC3Z1jawQiXxmIfH1kMhni6jH8Jbj4yiuv/JHyFAAAtA0QeQBAw6m7c2yNQOQrg9Sa6mgbLCHSDgDoFCDyAADTqLlzbI1A5CuDiPwu169fm1tZWZ3jWu3vvPPORUg7AKBTgcgDAJpC1c6xNQKRr8xhFXnejIoGSwCAwwpEHgDQVLhz7M8/9cSzn/lo/Wk3EPnKHAaRL5f2xcXFS6FQaF55GgAADh0QeQBASzCyORYiXxmri3x2/R2ifK5mkUeDJQAA2B+IPACg5dS6ORYiX5l2FnlV2l955ZWLb7/9NhosAQBAjUDkAQCWYb/NsRD5ylhd5P/Ob/73F+49d+qJX/yln39maSOBBksAANAAIPIAAEuitzm2kshzRNfn2PYdZpHPBmeFzccs9frUSDtL+1e+8pXfUh4GAADQICDyAABLo90cyyIfDG9LOeRNj9evX7+k1gT/e7/xXz//qSfe19C69XpA5PVRpb38vCDSDgAA5gGRBwC0Bbw5durIkftuLy3pyuFvf/7Xvw6Rb57Ic4Ol+fn5uTfeeOMipB0AAFoDRB4A0BFA5M0TeXRFBQAAawKRBwB0BBD5xoj8+vp6+MqVK7JWO7qiAgCAtYHIAwA6gnvuuvPn/9avfPoL952dNtw5thY6SeQ5rx1dUQEAoH2ByAMAOgreHPu5v/HEs2ZF59tV5Fna5wQXL16UDZY2NjbmVlZW0GAJAADaGIg8AKAj8fl8059+8vFn6+kcWwtWFfkvfuF/efb+c8ef+PRTT14IZfrQFRUAAA4BEHkAQMfzwYce+LVHH7r3QiOi9FYTebXs4z/7Z//sGZZ1ru7DjyNFBgAAOh+IPADg0FDoHPt4xc6xtdBKkdc2WFpZWZl777330BUVAAAOMRB5AMChhKP0T3/248/Wuzm2WSJfLu23bt26tFShhj4AAIDDCUQeAHCoqXdzrBkin8lkiKvHoCsqAACAeoDIAwCAQE27ufDUI8/4Bzw+5eE9NELk0WAJAABAI4DIAwBAGdU2x9Yr8tevXZtbWV2dQ4MlAAAAjQYiDwAAFdDbHFtN5LUNlmZnZzlNBg2WAAAAmAZEHgAAakDdHHv/fffdxyKvlXau1b6wsHApHA7PK78OAAAAAAAAsBKnTp748OTk5L3KIQAAAAAAAAAAAAAAAAAAAAAAAAAAAAAAAAAAAAAAAAAAAAAAAAAAAAAAAAAAAAAAAAAAAAAAAAAAAAAAAAAAAAAAAAAAAAAAAAAAAAAAAAAAAAAAAAAAAAAAAAAAAAAAAAAAAAAAAAAAAAAAAAAAAAAAAAAAAAAAAAAAAAAAAAAAAAAAAAAAAAAAAAAAAAAAAAAAAAAAAAAAAAAAAAAAAAAAAAAAAAAAAAAAAAAAAAAAAAAAAAAAAAAAAAAAAAAAAAAAAAAAAAAAAAAAAAAAAAAAAAAAAAAAAAAAAAAAAAAAAAAAAAAAAAAAAAAAAAAAAAAAAAAAAAAAAAAAAAAAAAAAAADaHaL/HzCU5ZbdzIygAAAAAElFTkSuQmCC;" vertex="1" parent="1">
          <mxGeometry x="60" y="370" width="505.51" height="439.14" as="geometry" />
        </mxCell>
        <mxCell id="6KB0BAxIn6tYUSvjbqSV-4" value="" style="shape=curlyBracket;whiteSpace=wrap;html=1;rounded=1;labelPosition=left;verticalLabelPosition=middle;align=right;verticalAlign=middle;rotation=-180;strokeWidth=2;" vertex="1" parent="1">
          <mxGeometry x="530" y="460" width="45" height="280" as="geometry" />
        </mxCell>
        <mxCell id="6KB0BAxIn6tYUSvjbqSV-5" value="&lt;p style=&quot;line-height: 100%;&quot;&gt;&lt;span style=&quot;font-size: 18px;&quot;&gt;&lt;i style=&quot;&quot;&gt;&lt;b&gt;Source &lt;/b&gt;&amp;amp;&amp;nbsp;&lt;b&gt;Target&lt;/b&gt;&lt;/i&gt;&lt;/span&gt;&lt;/p&gt;&lt;p style=&quot;line-height: 100%;&quot;&gt;&lt;span style=&quot;font-size: 18px; background-color: initial;&quot;&gt;Parameter&lt;/span&gt;&lt;/p&gt;&lt;p style=&quot;line-height: 100%;&quot;&gt;&lt;span style=&quot;font-size: 18px;&quot;&gt;Combinations&lt;/span&gt;&lt;br&gt;&lt;/p&gt;" style="text;html=1;align=center;verticalAlign=middle;resizable=0;points=[];autosize=1;strokeColor=none;fillColor=none;" vertex="1" parent="1">
          <mxGeometry x="579" y="550" width="160" height="100" as="geometry" />
        </mxCell>
        <mxCell id="6KB0BAxIn6tYUSvjbqSV-6" value="" style="edgeStyle=segmentEdgeStyle;endArrow=classic;html=1;curved=0;rounded=0;endSize=8;startSize=8;sourcePerimeterSpacing=0;targetPerimeterSpacing=0;entryX=0.484;entryY=0.226;entryDx=0;entryDy=0;entryPerimeter=0;" edge="1" parent="1">
          <mxGeometry width="100" relative="1" as="geometry">
            <mxPoint x="544" y="340.0588235294117" as="sourcePoint" />
            <mxPoint x="284.00400000000013" y="489.9801399999999" as="targetPoint" />
            <Array as="points">
              <mxPoint x="284" y="340" />
            </Array>
          </mxGeometry>
        </mxCell>
        <mxCell id="6KB0BAxIn6tYUSvjbqSV-7" value="&lt;p style=&quot;line-height: 160%;&quot;&gt;&lt;span style=&quot;font-size: 18px;&quot;&gt;&lt;b&gt;&lt;i&gt;Target &lt;/i&gt;Voxel Position&lt;/b&gt;&lt;/span&gt;&lt;/p&gt;" style="text;html=1;align=center;verticalAlign=middle;resizable=0;points=[];autosize=1;strokeColor=none;fillColor=none;" vertex="1" parent="1">
          <mxGeometry x="554" y="310" width="210" height="60" as="geometry" />
        </mxCell>
        <mxCell id="6KB0BAxIn6tYUSvjbqSV-8" value="" style="edgeStyle=segmentEdgeStyle;endArrow=classic;html=1;curved=0;rounded=0;endSize=8;startSize=8;sourcePerimeterSpacing=0;targetPerimeterSpacing=0;exitX=0;exitY=0.565;exitDx=0;exitDy=0;exitPerimeter=0;" edge="1" parent="1" source="6KB0BAxIn6tYUSvjbqSV-9">
          <mxGeometry width="100" relative="1" as="geometry">
            <mxPoint x="577.4000000000001" y="767.6200000000001" as="sourcePoint" />
            <mxPoint x="283.0000000000002" y="723" as="targetPoint" />
            <Array as="points">
              <mxPoint x="283" y="805" />
            </Array>
          </mxGeometry>
        </mxCell>
        <mxCell id="6KB0BAxIn6tYUSvjbqSV-9" value="&lt;p style=&quot;line-height: 160%;&quot;&gt;&lt;span style=&quot;font-size: 18px;&quot;&gt;&lt;b&gt;&lt;i&gt;Source&amp;nbsp;&lt;/i&gt;Intensity&lt;/b&gt;&lt;/span&gt;&lt;/p&gt;" style="text;html=1;align=center;verticalAlign=middle;resizable=0;points=[];autosize=1;strokeColor=none;fillColor=none;" vertex="1" parent="1">
          <mxGeometry x="579" y="771" width="160" height="60" as="geometry" />
        </mxCell>
        <mxCell id="6KB0BAxIn6tYUSvjbqSV-16" value="" style="edgeStyle=segmentEdgeStyle;endArrow=classic;html=1;curved=0;rounded=0;endSize=8;startSize=8;sourcePerimeterSpacing=0;targetPerimeterSpacing=0;exitX=0;exitY=0.545;exitDx=0;exitDy=0;exitPerimeter=0;" edge="1" parent="1" source="6KB0BAxIn6tYUSvjbqSV-17">
          <mxGeometry width="100" relative="1" as="geometry">
            <mxPoint x="560" y="860" as="sourcePoint" />
            <mxPoint x="260" y="610" as="targetPoint" />
            <Array as="points">
              <mxPoint x="200" y="842" />
              <mxPoint x="200" y="610" />
            </Array>
          </mxGeometry>
        </mxCell>
        <mxCell id="6KB0BAxIn6tYUSvjbqSV-17" value="&lt;p style=&quot;line-height: 160%;&quot;&gt;&lt;span style=&quot;font-size: 18px;&quot;&gt;&lt;b&gt;&lt;i&gt;Target&amp;nbsp;&lt;/i&gt;Intensity&lt;/b&gt;&lt;/span&gt;&lt;/p&gt;" style="text;html=1;align=center;verticalAlign=middle;resizable=0;points=[];autosize=1;strokeColor=none;fillColor=none;" vertex="1" parent="1">
          <mxGeometry x="579" y="809.14" width="160" height="60" as="geometry" />
        </mxCell>
      </root>
    </mxGraphModel>
  </diagram>
</mxfile>
